999
dxflib 2.0.4.8
  0
SECTION
  2
HEADER
  9
$ACADVER
  1
AC1015
  9
$HANDSEED
  5
FFFF
  9
$DIMASZ
 40
250.0
  9
$GRIDUNIT
 10
5.0
 20
5.0
  9
$DIMADEC
 70
2
  9
$DIMGAP
 40
62.0
  9
$SPLINESEGS
 70
8
  9
$AUPREC
 70
2
  9
$LUNITS
 70
2
  9
$DIMEXO
 40
62.0
  9
$INSUNITS
 70
13
  9
$DIMLUNIT
 70
2
  9
$DIMTXT
 40
250.0
  9
$GRIDMODE
 70
1
  9
$LUPREC
 70
4
  9
$DIMSTYLE
  2
Standard
  9
$PLIMMAX
 10
215900.0
 20
279400.0
  9
$PLIMMIN
 10
0.0
 20
0.0
  9
$DIMEXE
 40
125.0
  9
$DIMAUNIT
 70
0
  9
$AUNITS
 70
0
  0
ENDSEC
  0
SECTION
  2
TABLES
  0
TABLE
  2
VPORT
  5
8
100
AcDbSymbolTable
 70
1
  0
VPORT
  5
30
100
AcDbSymbolTableRecord
100
AcDbViewportTableRecord
  2
*Active
 70
0
 10
0.0
 20
0.0
 11
1.0
 21
1.0
 12
286.3055555555554861
 22
148.5
 13
0.0
 23
0.0
 14
10.0
 24
10.0
 15
10.0
 25
10.0
 16
0.0
 26
0.0
 36
1.0
 17
0.0
 27
0.0
 37
0.0
 40
297.0
 41
1.92798353909465
 42
50.0
 43
0.0
 44
0.0
 50
0.0
 51
0.0
 71
0
 72
100
 73
1
 74
3
 75
1
 76
1
 77
0
 78
0
281
0
 65
1
110
0.0
120
0.0
130
0.0
111
1.0
121
0.0
131
0.0
112
0.0
122
1.0
132
0.0
 79
0
146
0.0
  0
ENDTAB
  0
TABLE
  2
LTYPE
  5
5
100
AcDbSymbolTable
 70
21
  0
LTYPE
  5
14
100
AcDbSymbolTableRecord
100
AcDbLinetypeTableRecord
  2
ByBlock
 70
0
  3

 72
65
 73
0
 40
0.0
  0
LTYPE
  5
15
100
AcDbSymbolTableRecord
100
AcDbLinetypeTableRecord
  2
ByLayer
 70
0
  3

 72
65
 73
0
 40
0.0
  0
LTYPE
  5
16
100
AcDbSymbolTableRecord
100
AcDbLinetypeTableRecord
  2
CONTINUOUS
 70
0
  3
Solid line
 72
65
 73
0
 40
0.0
  0
LTYPE
  5
31
100
AcDbSymbolTableRecord
100
AcDbLinetypeTableRecord
  2
DOT
 70
0
  3
Dot . . . . . . . . . . . . . . . . . . . . . .
 72
65
 73
2
 40
6.3499999999999996
 49
0.0
 74
0
 49
-6.3499999999999996
 74
0
  0
LTYPE
  5
32
100
AcDbSymbolTableRecord
100
AcDbLinetypeTableRecord
  2
DOT2
 70
0
  3
Dot (.5x) .....................................
 72
65
 73
2
 40
3.1749999999999998
 49
0.0
 74
0
 49
-3.1749999999999998
 74
0
  0
LTYPE
  5
33
100
AcDbSymbolTableRecord
100
AcDbLinetypeTableRecord
  2
DOTX2
 70
0
  3
Dot (2x) .  .  .  .  .  .  .  .  .  .  .  .  .
 72
65
 73
2
 40
12.6999999999999993
 49
0.0
 74
0
 49
-12.6999999999999993
 74
0
  0
LTYPE
  5
34
100
AcDbSymbolTableRecord
100
AcDbLinetypeTableRecord
  2
DASHED
 70
0
  3
Dashed __ __ __ __ __ __ __ __ __ __ __ __ __ _
 72
65
 73
2
 40
19.0500000000000007
 49
12.6999999999999993
 74
0
 49
-6.3499999999999996
 74
0
  0
LTYPE
  5
35
100
AcDbSymbolTableRecord
100
AcDbLinetypeTableRecord
  2
DASHED2
 70
0
  3
Dashed (.5x) _ _ _ _ _ _ _ _ _ _ _ _ _ _ _ _ _
 72
65
 73
2
 40
9.5250000000000004
 49
6.3499999999999996
 74
0
 49
-3.1749999999999998
 74
0
  0
LTYPE
  5
36
100
AcDbSymbolTableRecord
100
AcDbLinetypeTableRecord
  2
DASHEDX2
 70
0
  3
Dashed (2x) ____  ____  ____  ____  ____  ___
 72
65
 73
2
 40
38.1000000000000014
 49
25.3999999999999986
 74
0
 49
-12.6999999999999993
 74
0
  0
LTYPE
  5
37
100
AcDbSymbolTableRecord
100
AcDbLinetypeTableRecord
  2
DASHDOT
 70
0
  3
Dash dot __ . __ . __ . __ . __ . __ . __ . __
 72
65
 73
4
 40
25.3999999999999986
 49
12.6999999999999993
 74
0
 49
-6.3499999999999996
 74
0
 49
0.0
 74
0
 49
-6.3499999999999996
 74
0
  0
LTYPE
  5
38
100
AcDbSymbolTableRecord
100
AcDbLinetypeTableRecord
  2
DASHDOT2
 70
0
  3
Dash dot (.5x) _._._._._._._._._._._._._._._.
 72
65
 73
4
 40
12.6999999999999993
 49
6.3499999999999996
 74
0
 49
-3.1749999999999998
 74
0
 49
0.0
 74
0
 49
-3.1749999999999998
 74
0
  0
LTYPE
  5
39
100
AcDbSymbolTableRecord
100
AcDbLinetypeTableRecord
  2
DASHDOTX2
 70
0
  3
Dash dot (2x) ____  .  ____  .  ____  .  ___
 72
65
 73
4
 40
50.7999999999999972
 49
25.3999999999999986
 74
0
 49
-12.6999999999999993
 74
0
 49
0.0
 74
0
 49
-12.6999999999999993
 74
0
  0
LTYPE
  5
3A
100
AcDbSymbolTableRecord
100
AcDbLinetypeTableRecord
  2
DIVIDE
 70
0
  3
Divide ____ . . ____ . . ____ . . ____ . . ____
 72
65
 73
6
 40
31.75
 49
12.6999999999999993
 74
0
 49
-6.3499999999999996
 74
0
 49
0.0
 74
0
 49
-6.3499999999999996
 74
0
 49
0.0
 74
0
 49
-6.3499999999999996
 74
0
  0
LTYPE
  5
3B
100
AcDbSymbolTableRecord
100
AcDbLinetypeTableRecord
  2
DIVIDE2
 70
0
  3
Divide (.5x) __..__..__..__..__..__..__..__.._
 72
65
 73
6
 40
15.875
 49
6.3499999999999996
 74
0
 49
-3.1749999999999998
 74
0
 49
0.0
 74
0
 49
-3.1749999999999998
 74
0
 49
0.0
 74
0
 49
-3.1749999999999998
 74
0
  0
LTYPE
  5
3C
100
AcDbSymbolTableRecord
100
AcDbLinetypeTableRecord
  2
DIVIDEX2
 70
0
  3
Divide (2x) ________  .  .  ________  .  .  _
 72
65
 73
6
 40
63.5
 49
25.3999999999999986
 74
0
 49
-12.6999999999999993
 74
0
 49
0.0
 74
0
 49
-12.6999999999999993
 74
0
 49
0.0
 74
0
 49
-12.6999999999999993
 74
0
  0
LTYPE
  5
3D
100
AcDbSymbolTableRecord
100
AcDbLinetypeTableRecord
  2
CENTER
 70
0
  3
Center ____ _ ____ _ ____ _ ____ _ ____ _ ____
 72
65
 73
4
 40
50.7999999999999972
 49
31.75
 74
0
 49
-6.3499999999999996
 74
0
 49
6.3499999999999996
 74
0
 49
-6.3499999999999996
 74
0
  0
LTYPE
  5
3E
100
AcDbSymbolTableRecord
100
AcDbLinetypeTableRecord
  2
CENTER2
 70
0
  3
Center (.5x) ___ _ ___ _ ___ _ ___ _ ___ _ ___
 72
65
 73
4
 40
28.5749999999999993
 49
19.0500000000000007
 74
0
 49
-3.1749999999999998
 74
0
 49
3.1749999999999998
 74
0
 49
-3.1749999999999998
 74
0
  0
LTYPE
  5
3F
100
AcDbSymbolTableRecord
100
AcDbLinetypeTableRecord
  2
CENTERX2
 70
0
  3
Center (2x) ________  __  ________  __  _____
 72
65
 73
4
 40
101.5999999999999943
 49
63.5
 74
0
 49
-12.6999999999999993
 74
0
 49
12.6999999999999993
 74
0
 49
-12.6999999999999993
 74
0
  0
LTYPE
  5
40
100
AcDbSymbolTableRecord
100
AcDbLinetypeTableRecord
  2
BORDER
 70
0
  3
Border __ __ . __ __ . __ __ . __ __ . __ __ .
 72
65
 73
6
 40
44.4500000000000028
 49
12.6999999999999993
 74
0
 49
-6.3499999999999996
 74
0
 49
12.6999999999999993
 74
0
 49
-6.3499999999999996
 74
0
 49
0.0
 74
0
 49
-6.3499999999999996
 74
0
  0
LTYPE
  5
41
100
AcDbSymbolTableRecord
100
AcDbLinetypeTableRecord
  2
BORDER2
 70
0
  3
Border (.5x) __.__.__.__.__.__.__.__.__.__.__.
 72
65
 73
6
 40
22.2250000000000014
 49
6.3499999999999996
 74
0
 49
-3.1749999999999998
 74
0
 49
6.3499999999999996
 74
0
 49
-3.1749999999999998
 74
0
 49
0.0
 74
0
 49
-3.1749999999999998
 74
0
  0
LTYPE
  5
42
100
AcDbSymbolTableRecord
100
AcDbLinetypeTableRecord
  2
BORDERX2
 70
0
  3
Border (2x) ____  ____  .  ____  ____  .  ___
 72
65
 73
6
 40
88.9000000000000057
 49
25.3999999999999986
 74
0
 49
-12.6999999999999993
 74
0
 49
25.3999999999999986
 74
0
 49
-12.6999999999999993
 74
0
 49
0.0
 74
0
 49
-12.6999999999999993
 74
0
  0
ENDTAB
  0
TABLE
  2
LAYER
  5
2
100
AcDbSymbolTable
 70
5
  0
LAYER
  5
10
100
AcDbSymbolTableRecord
100
AcDbLayerTableRecord
  2
0
 70
0
 62
7
  6
CONTINUOUS
370
-3
390
F
  0
LAYER
  5
43
100
AcDbSymbolTableRecord
100
AcDbLayerTableRecord
  2
Filled mask
 70
0
 62
4
  6
CONTINUOUS
370
0
390
F
  0
LAYER
  5
44
100
AcDbSymbolTableRecord
100
AcDbLayerTableRecord
  2
Unused
 70
1
 62
7
  6
CONTINUOUS
370
0
390
F
  0
LAYER
  5
45
100
AcDbSymbolTableRecord
100
AcDbLayerTableRecord
  2
Vernier 1
 70
0
 62
1
  6
CONTINUOUS
370
0
390
F
  0
LAYER
  5
46
100
AcDbSymbolTableRecord
100
AcDbLayerTableRecord
  2
Vernier 2
 70
0
 62
3
  6
CONTINUOUS
370
0
390
F
  0
ENDTAB
  0
TABLE
  2
STYLE
  5
3
100
AcDbSymbolTable
 70
1
  0
STYLE
  5
11
100
AcDbSymbolTableRecord
100
AcDbTextStyleTableRecord
  2
Standard
 70
0
 40
0.0
 41
0.75
 50
0.0
 71
0
 42
2.5
  3
txt
  4

  0
ENDTAB
  0
TABLE
  2
VIEW
  5
6
100
AcDbSymbolTable
 70
0
  0
ENDTAB
  0
TABLE
  2
UCS
  5
7
100
AcDbSymbolTable
 70
0
  0
ENDTAB
  0
TABLE
  2
APPID
  5
9
100
AcDbSymbolTable
 70
1
  0
APPID
  5
12
100
AcDbSymbolTableRecord
100
AcDbRegAppTableRecord
  2
ACAD
 70
0
  0
ENDTAB
  0
TABLE
  2
DIMSTYLE
  5
A
100
AcDbSymbolTable
 70
1
100
AcDbDimStyleTable
 71
0
  0
DIMSTYLE
105
27
100
AcDbSymbolTableRecord
100
AcDbDimStyleTableRecord
  2
Standard
 41
250.0
 42
62.0
 43
3.75
 44
125.0
 70
0
 73
0
 74
0
 77
1
 78
8
140
250.0
141
2.5
143
0.03937007874016
147
62.0
171
3
172
1
271
2
272
2
274
3
278
44
283
0
284
8
340
11
  0
ENDTAB
  0
TABLE
  2
BLOCK_RECORD
  5
1
100
AcDbSymbolTable
 70
1
  0
BLOCK_RECORD
  5
1F
100
AcDbSymbolTableRecord
100
AcDbBlockTableRecord
  2
*Model_Space
340
22
  0
BLOCK_RECORD
  5
1B
100
AcDbSymbolTableRecord
100
AcDbBlockTableRecord
  2
*Paper_Space
340
1E
  0
BLOCK_RECORD
  5
23
100
AcDbSymbolTableRecord
100
AcDbBlockTableRecord
  2
*Paper_Space0
340
26
  0
ENDTAB
  0
ENDSEC
  0
SECTION
  2
BLOCKS
  0
BLOCK
  5
20
100
AcDbEntity
  8
0
100
AcDbBlockBegin
  2
*Model_Space
 70
0
 10
0.0
 20
0.0
 30
0.0
  3
*Model_Space
  1

  0
ENDBLK
  5
21
100
AcDbEntity
  8
0
100
AcDbBlockEnd
  0
BLOCK
  5
1C
100
AcDbEntity
 67
1
  8
0
100
AcDbBlockBegin
  2
*Paper_Space
 70
0
 10
0.0
 20
0.0
 30
0.0
  3
*Paper_Space
  1

  0
ENDBLK
  5
1D
100
AcDbEntity
 67
1
  8
0
100
AcDbBlockEnd
  0
BLOCK
  5
24
100
AcDbEntity
  8
0
100
AcDbBlockBegin
  2
*Paper_Space0
 70
0
 10
0.0
 20
0.0
 30
0.0
  3
*Paper_Space0
  1

  0
ENDBLK
  5
25
100
AcDbEntity
  8
0
100
AcDbBlockEnd
  0
ENDSEC
  0
SECTION
  2
ENTITIES
  0
HATCH
  5
47
  8
Filled mask
 62
256
370
-1
  6
CONTINUOUS
100
AcDbEntity
100
AcDbHatch
 10
0.0
 20
0.0
 30
0.0
210
0.0
220
0.0
230
1.0
  2
SOLID
 70
1
 71
0
 91
1
 92
1
 93
44
 72
1
 10
75.0
 20
210.0
 11
80.0
 21
210.0
 72
1
 10
80.0
 20
210.0
 11
80.0
 21
355.0
 72
1
 10
80.0
 20
355.0
 11
75.0
 21
355.0
 72
1
 10
75.0
 20
355.0
 11
75.0
 21
210.0
 72
1
 10
90.0
 20
210.0
 11
100.0
 21
210.0
 72
1
 10
100.0
 20
210.0
 11
100.0
 21
355.0
 72
1
 10
100.0
 20
355.0
 11
90.0
 21
355.0
 72
1
 10
90.0
 20
355.0
 11
90.0
 21
210.0
 72
1
 10
110.0
 20
210.0
 11
125.0
 21
210.0
 72
1
 10
125.0
 20
210.0
 11
125.0
 21
355.0
 72
1
 10
125.0
 20
355.0
 11
110.0
 21
355.0
 72
1
 10
110.0
 20
355.0
 11
110.0
 21
210.0
 72
1
 10
135.0
 20
210.0
 11
155.0
 21
210.0
 72
1
 10
155.0
 20
210.0
 11
155.0
 21
355.0
 72
1
 10
155.0
 20
355.0
 11
135.0
 21
355.0
 72
1
 10
135.0
 20
355.0
 11
135.0
 21
210.0
 72
1
 10
65.0
 20
200.0
 11
65.0
 21
365.0
 72
1
 10
65.0
 20
365.0
 11
450.0
 21
365.0
 72
1
 10
450.0
 20
365.0
 11
450.0
 21
200.0
 72
1
 10
450.0
 20
200.0
 11
65.0
 21
200.0
 72
1
 10
165.0
 20
210.0
 11
190.0
 21
210.0
 72
1
 10
190.0
 20
210.0
 11
190.0
 21
355.0
 72
1
 10
190.0
 20
355.0
 11
165.0
 21
355.0
 72
1
 10
165.0
 20
355.0
 11
165.0
 21
210.0
 72
1
 10
200.0
 20
210.0
 11
230.0
 21
210.0
 72
1
 10
230.0
 20
210.0
 11
230.0
 21
355.0
 72
1
 10
230.0
 20
355.0
 11
200.0
 21
355.0
 72
1
 10
200.0
 20
355.0
 11
200.0
 21
210.0
 72
1
 10
240.0
 20
210.0
 11
275.0
 21
210.0
 72
1
 10
275.0
 20
210.0
 11
275.0
 21
355.0
 72
1
 10
275.0
 20
355.0
 11
240.0
 21
355.0
 72
1
 10
240.0
 20
355.0
 11
240.0
 21
210.0
 72
1
 10
285.0
 20
210.0
 11
325.0
 21
210.0
 72
1
 10
325.0
 20
210.0
 11
325.0
 21
355.0
 72
1
 10
325.0
 20
355.0
 11
285.0
 21
355.0
 72
1
 10
285.0
 20
355.0
 11
285.0
 21
210.0
 72
1
 10
335.0
 20
210.0
 11
380.0
 21
210.0
 72
1
 10
380.0
 20
210.0
 11
380.0
 21
355.0
 72
1
 10
380.0
 20
355.0
 11
335.0
 21
355.0
 72
1
 10
335.0
 20
355.0
 11
335.0
 21
210.0
 72
1
 10
390.0
 20
210.0
 11
440.0
 21
210.0
 72
1
 10
440.0
 20
210.0
 11
440.0
 21
355.0
 72
1
 10
440.0
 20
355.0
 11
390.0
 21
355.0
 72
1
 10
390.0
 20
355.0
 11
390.0
 21
210.0
 97
0
 75
0
 76
1
 98
0
  0
HATCH
  5
48
  8
Filled mask
 62
256
370
-1
  6
CONTINUOUS
100
AcDbEntity
100
AcDbHatch
 10
0.0
 20
0.0
 30
0.0
210
0.0
220
0.0
230
1.0
  2
SOLID
 70
1
 71
0
 91
1
 92
1
 93
40
 72
1
 10
75.0
 20
1210.0
 11
80.0
 21
1210.0
 72
1
 10
80.0
 20
1210.0
 11
80.0
 21
1355.0
 72
1
 10
80.0
 20
1355.0
 11
75.0
 21
1355.0
 72
1
 10
75.0
 20
1355.0
 11
75.0
 21
1210.0
 72
1
 10
90.0
 20
1210.0
 11
100.0
 21
1210.0
 72
1
 10
100.0
 20
1210.0
 11
100.0
 21
1355.0
 72
1
 10
100.0
 20
1355.0
 11
90.0
 21
1355.0
 72
1
 10
90.0
 20
1355.0
 11
90.0
 21
1210.0
 72
1
 10
110.0
 20
1210.0
 11
125.0
 21
1210.0
 72
1
 10
125.0
 20
1210.0
 11
125.0
 21
1355.0
 72
1
 10
125.0
 20
1355.0
 11
110.0
 21
1355.0
 72
1
 10
110.0
 20
1355.0
 11
110.0
 21
1210.0
 72
1
 10
135.0
 20
1210.0
 11
155.0
 21
1210.0
 72
1
 10
155.0
 20
1210.0
 11
155.0
 21
1355.0
 72
1
 10
155.0
 20
1355.0
 11
135.0
 21
1355.0
 72
1
 10
135.0
 20
1355.0
 11
135.0
 21
1210.0
 72
1
 10
165.0
 20
1210.0
 11
190.0
 21
1210.0
 72
1
 10
190.0
 20
1210.0
 11
190.0
 21
1355.0
 72
1
 10
190.0
 20
1355.0
 11
165.0
 21
1355.0
 72
1
 10
165.0
 20
1355.0
 11
165.0
 21
1210.0
 72
1
 10
200.0
 20
1210.0
 11
230.0
 21
1210.0
 72
1
 10
230.0
 20
1210.0
 11
230.0
 21
1355.0
 72
1
 10
230.0
 20
1355.0
 11
200.0
 21
1355.0
 72
1
 10
200.0
 20
1355.0
 11
200.0
 21
1210.0
 72
1
 10
240.0
 20
1210.0
 11
275.0
 21
1210.0
 72
1
 10
275.0
 20
1210.0
 11
275.0
 21
1355.0
 72
1
 10
275.0
 20
1355.0
 11
240.0
 21
1355.0
 72
1
 10
240.0
 20
1355.0
 11
240.0
 21
1210.0
 72
1
 10
285.0
 20
1210.0
 11
325.0
 21
1210.0
 72
1
 10
325.0
 20
1210.0
 11
325.0
 21
1355.0
 72
1
 10
325.0
 20
1355.0
 11
285.0
 21
1355.0
 72
1
 10
285.0
 20
1355.0
 11
285.0
 21
1210.0
 72
1
 10
335.0
 20
1210.0
 11
380.0
 21
1210.0
 72
1
 10
380.0
 20
1210.0
 11
380.0
 21
1355.0
 72
1
 10
380.0
 20
1355.0
 11
335.0
 21
1355.0
 72
1
 10
335.0
 20
1355.0
 11
335.0
 21
1210.0
 72
1
 10
390.0
 20
1210.0
 11
440.0
 21
1210.0
 72
1
 10
440.0
 20
1210.0
 11
440.0
 21
1355.0
 72
1
 10
440.0
 20
1355.0
 11
390.0
 21
1355.0
 72
1
 10
390.0
 20
1355.0
 11
390.0
 21
1210.0
 97
0
 75
0
 76
1
 98
0
  0
HATCH
  5
49
  8
Filled mask
 62
256
370
-1
  6
CONTINUOUS
100
AcDbEntity
100
AcDbHatch
 10
0.0
 20
0.0
 30
0.0
210
0.0
220
0.0
230
1.0
  2
SOLID
 70
1
 71
0
 91
1
 92
1
 93
116
 72
1
 10
1120.0
 20
1400.0
 11
1120.0
 21
1225.0
 72
1
 10
1120.0
 20
1225.0
 11
1125.0
 21
1225.0
 72
1
 10
1125.0
 20
1225.0
 11
1125.0
 21
1400.0
 72
1
 10
1125.0
 20
1400.0
 11
1120.0
 21
1400.0
 72
1
 10
1130.0
 20
1400.0
 11
1130.0
 21
1225.0
 72
1
 10
1130.0
 20
1225.0
 11
1135.0
 21
1225.0
 72
1
 10
1135.0
 20
1225.0
 11
1135.0
 21
1400.0
 72
1
 10
1135.0
 20
1400.0
 11
1130.0
 21
1400.0
 72
1
 10
1140.0
 20
1400.0
 11
1145.0
 21
1400.0
 72
1
 10
1145.0
 20
1400.0
 11
1145.0
 21
1225.0
 72
1
 10
1145.0
 20
1225.0
 11
1140.0
 21
1225.0
 72
1
 10
1140.0
 20
1225.0
 11
1140.0
 21
1400.0
 72
1
 10
1150.0
 20
1400.0
 11
1155.0
 21
1400.0
 72
1
 10
1155.0
 20
1400.0
 11
1155.0
 21
1225.0
 72
1
 10
1155.0
 20
1225.0
 11
1150.0
 21
1225.0
 72
1
 10
1150.0
 20
1225.0
 11
1150.0
 21
1400.0
 72
1
 10
1160.0
 20
1400.0
 11
1165.0
 21
1400.0
 72
1
 10
1165.0
 20
1400.0
 11
1165.0
 21
1225.0
 72
1
 10
1165.0
 20
1225.0
 11
1160.0
 21
1225.0
 72
1
 10
1160.0
 20
1225.0
 11
1160.0
 21
1400.0
 72
1
 10
1170.0
 20
1400.0
 11
1175.0
 21
1400.0
 72
1
 10
1175.0
 20
1400.0
 11
1175.0
 21
1225.0
 72
1
 10
1175.0
 20
1225.0
 11
1170.0
 21
1225.0
 72
1
 10
1170.0
 20
1225.0
 11
1170.0
 21
1400.0
 72
1
 10
1180.0
 20
1400.0
 11
1185.0
 21
1400.0
 72
1
 10
1185.0
 20
1400.0
 11
1185.0
 21
1225.0
 72
1
 10
1185.0
 20
1225.0
 11
1180.0
 21
1225.0
 72
1
 10
1180.0
 20
1225.0
 11
1180.0
 21
1400.0
 72
1
 10
1190.0
 20
1400.0
 11
1195.0
 21
1400.0
 72
1
 10
1195.0
 20
1400.0
 11
1195.0
 21
1225.0
 72
1
 10
1195.0
 20
1225.0
 11
1190.0
 21
1225.0
 72
1
 10
1190.0
 20
1225.0
 11
1190.0
 21
1400.0
 72
1
 10
1200.0
 20
1400.0
 11
1205.0
 21
1400.0
 72
1
 10
1205.0
 20
1400.0
 11
1205.0
 21
1225.0
 72
1
 10
1205.0
 20
1225.0
 11
1200.0
 21
1225.0
 72
1
 10
1200.0
 20
1225.0
 11
1200.0
 21
1400.0
 72
1
 10
1210.0
 20
1400.0
 11
1210.0
 21
1225.0
 72
1
 10
1210.0
 20
1225.0
 11
1215.0
 21
1225.0
 72
1
 10
1215.0
 20
1225.0
 11
1215.0
 21
1400.0
 72
1
 10
1215.0
 20
1400.0
 11
1210.0
 21
1400.0
 72
1
 10
1220.0
 20
1400.0
 11
1220.0
 21
1225.0
 72
1
 10
1220.0
 20
1225.0
 11
1225.0
 21
1225.0
 72
1
 10
1225.0
 20
1225.0
 11
1225.0
 21
1400.0
 72
1
 10
1225.0
 20
1400.0
 11
1220.0
 21
1400.0
 72
1
 10
1230.0
 20
1400.0
 11
1235.0
 21
1400.0
 72
1
 10
1235.0
 20
1400.0
 11
1235.0
 21
1225.0
 72
1
 10
1235.0
 20
1225.0
 11
1230.0
 21
1225.0
 72
1
 10
1230.0
 20
1225.0
 11
1230.0
 21
1400.0
 72
1
 10
1240.0
 20
1400.0
 11
1245.0
 21
1400.0
 72
1
 10
1245.0
 20
1400.0
 11
1245.0
 21
1225.0
 72
1
 10
1245.0
 20
1225.0
 11
1240.0
 21
1225.0
 72
1
 10
1240.0
 20
1225.0
 11
1240.0
 21
1400.0
 72
1
 10
1250.0
 20
1400.0
 11
1255.0
 21
1400.0
 72
1
 10
1255.0
 20
1400.0
 11
1255.0
 21
1225.0
 72
1
 10
1255.0
 20
1225.0
 11
1250.0
 21
1225.0
 72
1
 10
1250.0
 20
1225.0
 11
1250.0
 21
1400.0
 72
1
 10
1260.0
 20
1400.0
 11
1265.0
 21
1400.0
 72
1
 10
1265.0
 20
1400.0
 11
1265.0
 21
1225.0
 72
1
 10
1265.0
 20
1225.0
 11
1260.0
 21
1225.0
 72
1
 10
1260.0
 20
1225.0
 11
1260.0
 21
1400.0
 72
1
 10
1270.0
 20
1400.0
 11
1275.0
 21
1400.0
 72
1
 10
1275.0
 20
1400.0
 11
1275.0
 21
1225.0
 72
1
 10
1275.0
 20
1225.0
 11
1270.0
 21
1225.0
 72
1
 10
1270.0
 20
1225.0
 11
1270.0
 21
1400.0
 72
1
 10
1280.0
 20
1400.0
 11
1285.0
 21
1400.0
 72
1
 10
1285.0
 20
1400.0
 11
1285.0
 21
1225.0
 72
1
 10
1285.0
 20
1225.0
 11
1280.0
 21
1225.0
 72
1
 10
1280.0
 20
1225.0
 11
1280.0
 21
1400.0
 72
1
 10
1290.0
 20
1400.0
 11
1295.0
 21
1400.0
 72
1
 10
1295.0
 20
1400.0
 11
1295.0
 21
1225.0
 72
1
 10
1295.0
 20
1225.0
 11
1290.0
 21
1225.0
 72
1
 10
1290.0
 20
1225.0
 11
1290.0
 21
1400.0
 72
1
 10
1300.0
 20
1400.0
 11
1300.0
 21
1225.0
 72
1
 10
1300.0
 20
1225.0
 11
1305.0
 21
1225.0
 72
1
 10
1305.0
 20
1225.0
 11
1305.0
 21
1400.0
 72
1
 10
1305.0
 20
1400.0
 11
1300.0
 21
1400.0
 72
1
 10
1310.0
 20
1400.0
 11
1310.0
 21
1225.0
 72
1
 10
1310.0
 20
1225.0
 11
1315.0
 21
1225.0
 72
1
 10
1315.0
 20
1225.0
 11
1315.0
 21
1400.0
 72
1
 10
1315.0
 20
1400.0
 11
1310.0
 21
1400.0
 72
1
 10
1320.0
 20
1400.0
 11
1325.0
 21
1400.0
 72
1
 10
1325.0
 20
1400.0
 11
1325.0
 21
1225.0
 72
1
 10
1325.0
 20
1225.0
 11
1320.0
 21
1225.0
 72
1
 10
1320.0
 20
1225.0
 11
1320.0
 21
1400.0
 72
1
 10
1330.0
 20
1400.0
 11
1335.0
 21
1400.0
 72
1
 10
1335.0
 20
1400.0
 11
1335.0
 21
1225.0
 72
1
 10
1335.0
 20
1225.0
 11
1330.0
 21
1225.0
 72
1
 10
1330.0
 20
1225.0
 11
1330.0
 21
1400.0
 72
1
 10
1340.0
 20
1400.0
 11
1345.0
 21
1400.0
 72
1
 10
1345.0
 20
1400.0
 11
1345.0
 21
1225.0
 72
1
 10
1345.0
 20
1225.0
 11
1340.0
 21
1225.0
 72
1
 10
1340.0
 20
1225.0
 11
1340.0
 21
1400.0
 72
1
 10
1350.0
 20
1400.0
 11
1355.0
 21
1400.0
 72
1
 10
1355.0
 20
1400.0
 11
1355.0
 21
1225.0
 72
1
 10
1355.0
 20
1225.0
 11
1350.0
 21
1225.0
 72
1
 10
1350.0
 20
1225.0
 11
1350.0
 21
1400.0
 72
1
 10
1360.0
 20
1400.0
 11
1365.0
 21
1400.0
 72
1
 10
1365.0
 20
1400.0
 11
1365.0
 21
1225.0
 72
1
 10
1365.0
 20
1225.0
 11
1360.0
 21
1225.0
 72
1
 10
1360.0
 20
1225.0
 11
1360.0
 21
1400.0
 72
1
 10
1370.0
 20
1400.0
 11
1375.0
 21
1400.0
 72
1
 10
1375.0
 20
1400.0
 11
1375.0
 21
1225.0
 72
1
 10
1375.0
 20
1225.0
 11
1370.0
 21
1225.0
 72
1
 10
1370.0
 20
1225.0
 11
1370.0
 21
1400.0
 72
1
 10
1380.0
 20
1400.0
 11
1385.0
 21
1400.0
 72
1
 10
1385.0
 20
1400.0
 11
1385.0
 21
1225.0
 72
1
 10
1385.0
 20
1225.0
 11
1380.0
 21
1225.0
 72
1
 10
1380.0
 20
1225.0
 11
1380.0
 21
1400.0
 72
1
 10
1390.0
 20
1400.0
 11
1390.0
 21
1225.0
 72
1
 10
1390.0
 20
1225.0
 11
1395.0
 21
1225.0
 72
1
 10
1395.0
 20
1225.0
 11
1395.0
 21
1400.0
 72
1
 10
1395.0
 20
1400.0
 11
1390.0
 21
1400.0
 72
1
 10
1400.0
 20
1400.0
 11
1400.0
 21
1225.0
 72
1
 10
1400.0
 20
1225.0
 11
1405.0
 21
1225.0
 72
1
 10
1405.0
 20
1225.0
 11
1405.0
 21
1400.0
 72
1
 10
1405.0
 20
1400.0
 11
1400.0
 21
1400.0
 97
0
 75
0
 76
1
 98
0
  0
HATCH
  5
4A
  8
Filled mask
 62
256
370
-1
  6
CONTINUOUS
100
AcDbEntity
100
AcDbHatch
 10
0.0
 20
0.0
 30
0.0
210
0.0
220
0.0
230
1.0
  2
SOLID
 70
1
 71
0
 91
1
 92
1
 93
40
 72
1
 10
2050.0
 20
1300.0
 11
2100.0
 21
1300.0
 72
1
 10
2100.0
 20
1300.0
 11
2100.0
 21
1250.0
 72
1
 10
2100.0
 20
1250.0
 11
2050.0
 21
1250.0
 72
1
 10
2050.0
 20
1250.0
 11
2050.0
 21
1300.0
 72
1
 10
2110.0
 20
1295.0
 11
2155.0
 21
1295.0
 72
1
 10
2155.0
 20
1295.0
 11
2155.0
 21
1250.0
 72
1
 10
2155.0
 20
1250.0
 11
2110.0
 21
1250.0
 72
1
 10
2110.0
 20
1250.0
 11
2110.0
 21
1295.0
 72
1
 10
2165.0
 20
1290.0
 11
2205.0
 21
1290.0
 72
1
 10
2205.0
 20
1290.0
 11
2205.0
 21
1250.0
 72
1
 10
2205.0
 20
1250.0
 11
2165.0
 21
1250.0
 72
1
 10
2165.0
 20
1250.0
 11
2165.0
 21
1290.0
 72
1
 10
2215.0
 20
1285.0
 11
2250.0
 21
1285.0
 72
1
 10
2250.0
 20
1285.0
 11
2250.0
 21
1250.0
 72
1
 10
2250.0
 20
1250.0
 11
2215.0
 21
1250.0
 72
1
 10
2215.0
 20
1250.0
 11
2215.0
 21
1285.0
 72
1
 10
2260.0
 20
1280.0
 11
2290.0
 21
1280.0
 72
1
 10
2290.0
 20
1280.0
 11
2290.0
 21
1250.0
 72
1
 10
2290.0
 20
1250.0
 11
2260.0
 21
1250.0
 72
1
 10
2260.0
 20
1250.0
 11
2260.0
 21
1280.0
 72
1
 10
2300.0
 20
1275.0
 11
2325.0
 21
1275.0
 72
1
 10
2325.0
 20
1275.0
 11
2325.0
 21
1250.0
 72
1
 10
2325.0
 20
1250.0
 11
2300.0
 21
1250.0
 72
1
 10
2300.0
 20
1250.0
 11
2300.0
 21
1275.0
 72
1
 10
2335.0
 20
1270.0
 11
2355.0
 21
1270.0
 72
1
 10
2355.0
 20
1270.0
 11
2355.0
 21
1250.0
 72
1
 10
2355.0
 20
1250.0
 11
2335.0
 21
1250.0
 72
1
 10
2335.0
 20
1250.0
 11
2335.0
 21
1270.0
 72
1
 10
2365.0
 20
1265.0
 11
2380.0
 21
1265.0
 72
1
 10
2380.0
 20
1265.0
 11
2380.0
 21
1250.0
 72
1
 10
2380.0
 20
1250.0
 11
2365.0
 21
1250.0
 72
1
 10
2365.0
 20
1250.0
 11
2365.0
 21
1265.0
 72
1
 10
2390.0
 20
1260.0
 11
2400.0
 21
1260.0
 72
1
 10
2400.0
 20
1260.0
 11
2400.0
 21
1250.0
 72
1
 10
2400.0
 20
1250.0
 11
2390.0
 21
1250.0
 72
1
 10
2390.0
 20
1250.0
 11
2390.0
 21
1260.0
 72
1
 10
2410.0
 20
1255.0
 11
2415.0
 21
1255.0
 72
1
 10
2415.0
 20
1255.0
 11
2415.0
 21
1250.0
 72
1
 10
2415.0
 20
1250.0
 11
2410.0
 21
1250.0
 72
1
 10
2410.0
 20
1250.0
 11
2410.0
 21
1255.0
 97
0
 75
0
 76
1
 98
0
  0
HATCH
  5
4B
  8
Filled mask
 62
256
370
-1
  6
CONTINUOUS
100
AcDbEntity
100
AcDbHatch
 10
0.0
 20
0.0
 30
0.0
210
0.0
220
0.0
230
1.0
  2
SOLID
 70
1
 71
0
 91
1
 92
1
 93
44
 72
1
 10
2060.0
 20
300.0
 11
2110.0
 21
300.0
 72
1
 10
2110.0
 20
300.0
 11
2110.0
 21
250.0
 72
1
 10
2110.0
 20
250.0
 11
2060.0
 21
250.0
 72
1
 10
2060.0
 20
250.0
 11
2060.0
 21
300.0
 72
1
 10
2120.0
 20
295.0
 11
2165.0
 21
295.0
 72
1
 10
2165.0
 20
295.0
 11
2165.0
 21
250.0
 72
1
 10
2165.0
 20
250.0
 11
2120.0
 21
250.0
 72
1
 10
2120.0
 20
250.0
 11
2120.0
 21
295.0
 72
1
 10
2175.0
 20
290.0
 11
2215.0
 21
290.0
 72
1
 10
2215.0
 20
290.0
 11
2215.0
 21
250.0
 72
1
 10
2215.0
 20
250.0
 11
2175.0
 21
250.0
 72
1
 10
2175.0
 20
250.0
 11
2175.0
 21
290.0
 72
1
 10
2225.0
 20
285.0
 11
2260.0
 21
285.0
 72
1
 10
2260.0
 20
285.0
 11
2260.0
 21
250.0
 72
1
 10
2260.0
 20
250.0
 11
2225.0
 21
250.0
 72
1
 10
2225.0
 20
250.0
 11
2225.0
 21
285.0
 72
1
 10
2270.0
 20
280.0
 11
2300.0
 21
280.0
 72
1
 10
2300.0
 20
280.0
 11
2300.0
 21
250.0
 72
1
 10
2300.0
 20
250.0
 11
2270.0
 21
250.0
 72
1
 10
2270.0
 20
250.0
 11
2270.0
 21
280.0
 72
1
 10
2310.0
 20
275.0
 11
2335.0
 21
275.0
 72
1
 10
2335.0
 20
275.0
 11
2335.0
 21
250.0
 72
1
 10
2335.0
 20
250.0
 11
2310.0
 21
250.0
 72
1
 10
2310.0
 20
250.0
 11
2310.0
 21
275.0
 72
1
 10
2345.0
 20
270.0
 11
2365.0
 21
270.0
 72
1
 10
2365.0
 20
270.0
 11
2365.0
 21
250.0
 72
1
 10
2365.0
 20
250.0
 11
2345.0
 21
250.0
 72
1
 10
2345.0
 20
250.0
 11
2345.0
 21
270.0
 72
1
 10
2375.0
 20
265.0
 11
2390.0
 21
265.0
 72
1
 10
2390.0
 20
265.0
 11
2390.0
 21
250.0
 72
1
 10
2390.0
 20
250.0
 11
2375.0
 21
250.0
 72
1
 10
2375.0
 20
250.0
 11
2375.0
 21
265.0
 72
1
 10
2050.0
 20
325.0
 11
2450.0
 21
325.0
 72
1
 10
2450.0
 20
325.0
 11
2450.0
 21
225.0
 72
1
 10
2450.0
 20
225.0
 11
2050.0
 21
225.0
 72
1
 10
2050.0
 20
225.0
 11
2050.0
 21
325.0
 72
1
 10
2400.0
 20
260.0
 11
2410.0
 21
260.0
 72
1
 10
2410.0
 20
260.0
 11
2410.0
 21
250.0
 72
1
 10
2410.0
 20
250.0
 11
2400.0
 21
250.0
 72
1
 10
2400.0
 20
250.0
 11
2400.0
 21
260.0
 72
1
 10
2420.0
 20
255.0
 11
2425.0
 21
255.0
 72
1
 10
2425.0
 20
255.0
 11
2425.0
 21
250.0
 72
1
 10
2425.0
 20
250.0
 11
2420.0
 21
250.0
 72
1
 10
2420.0
 20
250.0
 11
2420.0
 21
255.0
 97
0
 75
0
 76
1
 98
0
  0
HATCH
  5
4C
  8
Filled mask
 62
256
370
-1
  6
CONTINUOUS
100
AcDbEntity
100
AcDbHatch
 10
0.0
 20
0.0
 30
0.0
210
0.0
220
0.0
230
1.0
  2
SOLID
 70
1
 71
0
 91
1
 92
1
 93
120
 72
1
 10
1100.0
 20
400.0
 11
1100.0
 21
215.0
 72
1
 10
1100.0
 20
215.0
 11
1395.0
 21
215.0
 72
1
 10
1395.0
 20
215.0
 11
1395.0
 21
400.0
 72
1
 10
1395.0
 20
400.0
 11
1100.0
 21
400.0
 72
1
 10
1105.0
 20
395.0
 11
1105.0
 21
220.0
 72
1
 10
1105.0
 20
220.0
 11
1110.0
 21
220.0
 72
1
 10
1110.0
 20
220.0
 11
1110.0
 21
395.0
 72
1
 10
1110.0
 20
395.0
 11
1105.0
 21
395.0
 72
1
 10
1115.0
 20
395.0
 11
1115.0
 21
220.0
 72
1
 10
1115.0
 20
220.0
 11
1120.0
 21
220.0
 72
1
 10
1120.0
 20
220.0
 11
1120.0
 21
395.0
 72
1
 10
1120.0
 20
395.0
 11
1115.0
 21
395.0
 72
1
 10
1125.0
 20
395.0
 11
1130.0
 21
395.0
 72
1
 10
1130.0
 20
395.0
 11
1130.0
 21
220.0
 72
1
 10
1130.0
 20
220.0
 11
1125.0
 21
220.0
 72
1
 10
1125.0
 20
220.0
 11
1125.0
 21
395.0
 72
1
 10
1135.0
 20
395.0
 11
1140.0
 21
395.0
 72
1
 10
1140.0
 20
395.0
 11
1140.0
 21
220.0
 72
1
 10
1140.0
 20
220.0
 11
1135.0
 21
220.0
 72
1
 10
1135.0
 20
220.0
 11
1135.0
 21
395.0
 72
1
 10
1145.0
 20
395.0
 11
1150.0
 21
395.0
 72
1
 10
1150.0
 20
395.0
 11
1150.0
 21
220.0
 72
1
 10
1150.0
 20
220.0
 11
1145.0
 21
220.0
 72
1
 10
1145.0
 20
220.0
 11
1145.0
 21
395.0
 72
1
 10
1155.0
 20
395.0
 11
1160.0
 21
395.0
 72
1
 10
1160.0
 20
395.0
 11
1160.0
 21
220.0
 72
1
 10
1160.0
 20
220.0
 11
1155.0
 21
220.0
 72
1
 10
1155.0
 20
220.0
 11
1155.0
 21
395.0
 72
1
 10
1165.0
 20
395.0
 11
1170.0
 21
395.0
 72
1
 10
1170.0
 20
395.0
 11
1170.0
 21
220.0
 72
1
 10
1170.0
 20
220.0
 11
1165.0
 21
220.0
 72
1
 10
1165.0
 20
220.0
 11
1165.0
 21
395.0
 72
1
 10
1175.0
 20
395.0
 11
1180.0
 21
395.0
 72
1
 10
1180.0
 20
395.0
 11
1180.0
 21
220.0
 72
1
 10
1180.0
 20
220.0
 11
1175.0
 21
220.0
 72
1
 10
1175.0
 20
220.0
 11
1175.0
 21
395.0
 72
1
 10
1185.0
 20
395.0
 11
1190.0
 21
395.0
 72
1
 10
1190.0
 20
395.0
 11
1190.0
 21
220.0
 72
1
 10
1190.0
 20
220.0
 11
1185.0
 21
220.0
 72
1
 10
1185.0
 20
220.0
 11
1185.0
 21
395.0
 72
1
 10
1195.0
 20
395.0
 11
1195.0
 21
220.0
 72
1
 10
1195.0
 20
220.0
 11
1200.0
 21
220.0
 72
1
 10
1200.0
 20
220.0
 11
1200.0
 21
395.0
 72
1
 10
1200.0
 20
395.0
 11
1195.0
 21
395.0
 72
1
 10
1205.0
 20
395.0
 11
1205.0
 21
220.0
 72
1
 10
1205.0
 20
220.0
 11
1210.0
 21
220.0
 72
1
 10
1210.0
 20
220.0
 11
1210.0
 21
395.0
 72
1
 10
1210.0
 20
395.0
 11
1205.0
 21
395.0
 72
1
 10
1215.0
 20
395.0
 11
1220.0
 21
395.0
 72
1
 10
1220.0
 20
395.0
 11
1220.0
 21
220.0
 72
1
 10
1220.0
 20
220.0
 11
1215.0
 21
220.0
 72
1
 10
1215.0
 20
220.0
 11
1215.0
 21
395.0
 72
1
 10
1225.0
 20
395.0
 11
1230.0
 21
395.0
 72
1
 10
1230.0
 20
395.0
 11
1230.0
 21
220.0
 72
1
 10
1230.0
 20
220.0
 11
1225.0
 21
220.0
 72
1
 10
1225.0
 20
220.0
 11
1225.0
 21
395.0
 72
1
 10
1235.0
 20
395.0
 11
1240.0
 21
395.0
 72
1
 10
1240.0
 20
395.0
 11
1240.0
 21
220.0
 72
1
 10
1240.0
 20
220.0
 11
1235.0
 21
220.0
 72
1
 10
1235.0
 20
220.0
 11
1235.0
 21
395.0
 72
1
 10
1245.0
 20
395.0
 11
1250.0
 21
395.0
 72
1
 10
1250.0
 20
395.0
 11
1250.0
 21
220.0
 72
1
 10
1250.0
 20
220.0
 11
1245.0
 21
220.0
 72
1
 10
1245.0
 20
220.0
 11
1245.0
 21
395.0
 72
1
 10
1255.0
 20
395.0
 11
1260.0
 21
395.0
 72
1
 10
1260.0
 20
395.0
 11
1260.0
 21
220.0
 72
1
 10
1260.0
 20
220.0
 11
1255.0
 21
220.0
 72
1
 10
1255.0
 20
220.0
 11
1255.0
 21
395.0
 72
1
 10
1265.0
 20
395.0
 11
1270.0
 21
395.0
 72
1
 10
1270.0
 20
395.0
 11
1270.0
 21
220.0
 72
1
 10
1270.0
 20
220.0
 11
1265.0
 21
220.0
 72
1
 10
1265.0
 20
220.0
 11
1265.0
 21
395.0
 72
1
 10
1275.0
 20
395.0
 11
1280.0
 21
395.0
 72
1
 10
1280.0
 20
395.0
 11
1280.0
 21
220.0
 72
1
 10
1280.0
 20
220.0
 11
1275.0
 21
220.0
 72
1
 10
1275.0
 20
220.0
 11
1275.0
 21
395.0
 72
1
 10
1285.0
 20
395.0
 11
1285.0
 21
220.0
 72
1
 10
1285.0
 20
220.0
 11
1290.0
 21
220.0
 72
1
 10
1290.0
 20
220.0
 11
1290.0
 21
395.0
 72
1
 10
1290.0
 20
395.0
 11
1285.0
 21
395.0
 72
1
 10
1295.0
 20
395.0
 11
1295.0
 21
220.0
 72
1
 10
1295.0
 20
220.0
 11
1300.0
 21
220.0
 72
1
 10
1300.0
 20
220.0
 11
1300.0
 21
395.0
 72
1
 10
1300.0
 20
395.0
 11
1295.0
 21
395.0
 72
1
 10
1305.0
 20
395.0
 11
1310.0
 21
395.0
 72
1
 10
1310.0
 20
395.0
 11
1310.0
 21
220.0
 72
1
 10
1310.0
 20
220.0
 11
1305.0
 21
220.0
 72
1
 10
1305.0
 20
220.0
 11
1305.0
 21
395.0
 72
1
 10
1315.0
 20
395.0
 11
1320.0
 21
395.0
 72
1
 10
1320.0
 20
395.0
 11
1320.0
 21
220.0
 72
1
 10
1320.0
 20
220.0
 11
1315.0
 21
220.0
 72
1
 10
1315.0
 20
220.0
 11
1315.0
 21
395.0
 72
1
 10
1325.0
 20
395.0
 11
1330.0
 21
395.0
 72
1
 10
1330.0
 20
395.0
 11
1330.0
 21
220.0
 72
1
 10
1330.0
 20
220.0
 11
1325.0
 21
220.0
 72
1
 10
1325.0
 20
220.0
 11
1325.0
 21
395.0
 72
1
 10
1335.0
 20
395.0
 11
1340.0
 21
395.0
 72
1
 10
1340.0
 20
395.0
 11
1340.0
 21
220.0
 72
1
 10
1340.0
 20
220.0
 11
1335.0
 21
220.0
 72
1
 10
1335.0
 20
220.0
 11
1335.0
 21
395.0
 72
1
 10
1345.0
 20
395.0
 11
1350.0
 21
395.0
 72
1
 10
1350.0
 20
395.0
 11
1350.0
 21
220.0
 72
1
 10
1350.0
 20
220.0
 11
1345.0
 21
220.0
 72
1
 10
1345.0
 20
220.0
 11
1345.0
 21
395.0
 72
1
 10
1355.0
 20
395.0
 11
1360.0
 21
395.0
 72
1
 10
1360.0
 20
395.0
 11
1360.0
 21
220.0
 72
1
 10
1360.0
 20
220.0
 11
1355.0
 21
220.0
 72
1
 10
1355.0
 20
220.0
 11
1355.0
 21
395.0
 72
1
 10
1365.0
 20
395.0
 11
1370.0
 21
395.0
 72
1
 10
1370.0
 20
395.0
 11
1370.0
 21
220.0
 72
1
 10
1370.0
 20
220.0
 11
1365.0
 21
220.0
 72
1
 10
1365.0
 20
220.0
 11
1365.0
 21
395.0
 72
1
 10
1375.0
 20
395.0
 11
1375.0
 21
220.0
 72
1
 10
1375.0
 20
220.0
 11
1380.0
 21
220.0
 72
1
 10
1380.0
 20
220.0
 11
1380.0
 21
395.0
 72
1
 10
1380.0
 20
395.0
 11
1375.0
 21
395.0
 72
1
 10
1385.0
 20
395.0
 11
1385.0
 21
220.0
 72
1
 10
1385.0
 20
220.0
 11
1390.0
 21
220.0
 72
1
 10
1390.0
 20
220.0
 11
1390.0
 21
395.0
 72
1
 10
1390.0
 20
395.0
 11
1385.0
 21
395.0
 97
0
 75
0
 76
1
 98
0
  0
LINE
  5
4D
100
AcDbEntity
100
AcDbLine
  8
0
 62
256
370
-1
  6
ByLayer
 10
0.0
 20
500.0
 30
0.0
 11
500.0
 21
500.0
 31
0.0
  0
LINE
  5
4E
100
AcDbEntity
100
AcDbLine
  8
0
 62
256
370
-1
  6
ByLayer
 10
500.0
 20
500.0
 30
0.0
 11
500.0
 21
0.0
 31
0.0
  0
LINE
  5
4F
100
AcDbEntity
100
AcDbLine
  8
0
 62
256
370
-1
  6
ByLayer
 10
500.0
 20
0.0
 30
0.0
 11
0.0
 21
0.0
 31
0.0
  0
LINE
  5
50
100
AcDbEntity
100
AcDbLine
  8
0
 62
256
370
-1
  6
ByLayer
 10
0.0
 20
0.0
 30
0.0
 11
0.0
 21
500.0
 31
0.0
  0
CIRCLE
  5
51
100
AcDbEntity
100
AcDbCircle
  8
0
 62
256
370
-1
  6
ByLayer
 10
250.0
 20
250.0
 30
0.0
 40
250.0
  0
LINE
  5
52
100
AcDbEntity
100
AcDbLine
  8
0
 62
256
370
-1
  6
ByLayer
 10
75.0
 20
210.0
 30
0.0
 11
80.0
 21
210.0
 31
0.0
  0
LINE
  5
53
100
AcDbEntity
100
AcDbLine
  8
0
 62
256
370
-1
  6
ByLayer
 10
90.0
 20
210.0
 30
0.0
 11
100.0
 21
210.0
 31
0.0
  0
LINE
  5
54
100
AcDbEntity
100
AcDbLine
  8
0
 62
256
370
-1
  6
ByLayer
 10
110.0
 20
210.0
 30
0.0
 11
125.0
 21
210.0
 31
0.0
  0
LINE
  5
55
100
AcDbEntity
100
AcDbLine
  8
0
 62
256
370
-1
  6
ByLayer
 10
135.0
 20
210.0
 30
0.0
 11
155.0
 21
210.0
 31
0.0
  0
LINE
  5
56
100
AcDbEntity
100
AcDbLine
  8
0
 62
256
370
-1
  6
ByLayer
 10
80.0
 20
355.0
 30
0.0
 11
75.0
 21
355.0
 31
0.0
  0
LINE
  5
57
100
AcDbEntity
100
AcDbLine
  8
0
 62
256
370
-1
  6
ByLayer
 10
100.0
 20
355.0
 30
0.0
 11
90.0
 21
355.0
 31
0.0
  0
LINE
  5
58
100
AcDbEntity
100
AcDbLine
  8
0
 62
256
370
-1
  6
ByLayer
 10
125.0
 20
355.0
 30
0.0
 11
110.0
 21
355.0
 31
0.0
  0
LINE
  5
59
100
AcDbEntity
100
AcDbLine
  8
0
 62
256
370
-1
  6
ByLayer
 10
155.0
 20
355.0
 30
0.0
 11
135.0
 21
355.0
 31
0.0
  0
LINE
  5
5A
100
AcDbEntity
100
AcDbLine
  8
0
 62
256
370
-1
  6
ByLayer
 10
80.0
 20
210.0
 30
0.0
 11
80.0
 21
355.0
 31
0.0
  0
LINE
  5
5B
100
AcDbEntity
100
AcDbLine
  8
0
 62
256
370
-1
  6
ByLayer
 10
75.0
 20
355.0
 30
0.0
 11
75.0
 21
210.0
 31
0.0
  0
LINE
  5
5C
100
AcDbEntity
100
AcDbLine
  8
0
 62
256
370
-1
  6
ByLayer
 10
90.0
 20
355.0
 30
0.0
 11
90.0
 21
210.0
 31
0.0
  0
LINE
  5
5D
100
AcDbEntity
100
AcDbLine
  8
0
 62
256
370
-1
  6
ByLayer
 10
110.0
 20
355.0
 30
0.0
 11
110.0
 21
210.0
 31
0.0
  0
LINE
  5
5E
100
AcDbEntity
100
AcDbLine
  8
0
 62
256
370
-1
  6
ByLayer
 10
100.0
 20
210.0
 30
0.0
 11
100.0
 21
355.0
 31
0.0
  0
LINE
  5
5F
100
AcDbEntity
100
AcDbLine
  8
0
 62
256
370
-1
  6
ByLayer
 10
125.0
 20
210.0
 30
0.0
 11
125.0
 21
355.0
 31
0.0
  0
LINE
  5
60
100
AcDbEntity
100
AcDbLine
  8
0
 62
256
370
-1
  6
ByLayer
 10
135.0
 20
355.0
 30
0.0
 11
135.0
 21
210.0
 31
0.0
  0
LINE
  5
61
100
AcDbEntity
100
AcDbLine
  8
0
 62
256
370
-1
  6
ByLayer
 10
155.0
 20
210.0
 30
0.0
 11
155.0
 21
355.0
 31
0.0
  0
LINE
  5
62
100
AcDbEntity
100
AcDbLine
  8
0
 62
256
370
-1
  6
ByLayer
 10
1000.0
 20
500.0
 30
0.0
 11
1000.0
 21
0.0
 31
0.0
  0
LINE
  5
63
100
AcDbEntity
100
AcDbLine
  8
0
 62
256
370
-1
  6
ByLayer
 10
1000.0
 20
0.0
 30
0.0
 11
1500.0
 21
0.0
 31
0.0
  0
LINE
  5
64
100
AcDbEntity
100
AcDbLine
  8
0
 62
256
370
-1
  6
ByLayer
 10
1500.0
 20
0.0
 30
0.0
 11
1500.0
 21
500.0
 31
0.0
  0
LINE
  5
65
100
AcDbEntity
100
AcDbLine
  8
0
 62
256
370
-1
  6
ByLayer
 10
1500.0
 20
500.0
 30
0.0
 11
1000.0
 21
500.0
 31
0.0
  0
CIRCLE
  5
66
100
AcDbEntity
100
AcDbCircle
  8
0
 62
256
370
-1
  6
CONTINUOUS
 10
1250.0
 20
250.0
 30
0.0
 40
250.0
  0
LINE
  5
67
100
AcDbEntity
100
AcDbLine
  8
0
 62
256
370
-1
  6
CONTINUOUS
 10
1100.0
 20
400.0
 30
0.0
 11
1100.0
 21
215.0
 31
0.0
  0
LINE
  5
68
100
AcDbEntity
100
AcDbLine
  8
0
 62
256
370
-1
  6
CONTINUOUS
 10
1105.0
 20
395.0
 30
0.0
 11
1105.0
 21
220.0
 31
0.0
  0
LINE
  5
69
100
AcDbEntity
100
AcDbLine
  8
0
 62
256
370
-1
  6
CONTINUOUS
 10
1105.0
 20
220.0
 30
0.0
 11
1110.0
 21
220.0
 31
0.0
  0
LINE
  5
6A
100
AcDbEntity
100
AcDbLine
  8
0
 62
256
370
-1
  6
CONTINUOUS
 10
1110.0
 20
220.0
 30
0.0
 11
1110.0
 21
395.0
 31
0.0
  0
LINE
  5
6B
100
AcDbEntity
100
AcDbLine
  8
0
 62
256
370
-1
  6
CONTINUOUS
 10
1110.0
 20
395.0
 30
0.0
 11
1105.0
 21
395.0
 31
0.0
  0
LINE
  5
6C
100
AcDbEntity
100
AcDbLine
  8
0
 62
256
370
-1
  6
CONTINUOUS
 10
1115.0
 20
395.0
 30
0.0
 11
1115.0
 21
220.0
 31
0.0
  0
LINE
  5
6D
100
AcDbEntity
100
AcDbLine
  8
0
 62
256
370
-1
  6
CONTINUOUS
 10
1115.0
 20
220.0
 30
0.0
 11
1120.0
 21
220.0
 31
0.0
  0
LINE
  5
6E
100
AcDbEntity
100
AcDbLine
  8
0
 62
256
370
-1
  6
CONTINUOUS
 10
1120.0
 20
220.0
 30
0.0
 11
1120.0
 21
395.0
 31
0.0
  0
LINE
  5
6F
100
AcDbEntity
100
AcDbLine
  8
0
 62
256
370
-1
  6
CONTINUOUS
 10
1120.0
 20
395.0
 30
0.0
 11
1115.0
 21
395.0
 31
0.0
  0
LINE
  5
70
100
AcDbEntity
100
AcDbLine
  8
0
 62
256
370
-1
  6
CONTINUOUS
 10
1125.0
 20
395.0
 30
0.0
 11
1130.0
 21
395.0
 31
0.0
  0
LINE
  5
71
100
AcDbEntity
100
AcDbLine
  8
0
 62
256
370
-1
  6
CONTINUOUS
 10
1130.0
 20
395.0
 30
0.0
 11
1130.0
 21
220.0
 31
0.0
  0
LINE
  5
72
100
AcDbEntity
100
AcDbLine
  8
0
 62
256
370
-1
  6
CONTINUOUS
 10
1130.0
 20
220.0
 30
0.0
 11
1125.0
 21
220.0
 31
0.0
  0
LINE
  5
73
100
AcDbEntity
100
AcDbLine
  8
0
 62
256
370
-1
  6
CONTINUOUS
 10
1125.0
 20
220.0
 30
0.0
 11
1125.0
 21
395.0
 31
0.0
  0
LINE
  5
74
100
AcDbEntity
100
AcDbLine
  8
0
 62
256
370
-1
  6
CONTINUOUS
 10
1135.0
 20
395.0
 30
0.0
 11
1140.0
 21
395.0
 31
0.0
  0
LINE
  5
75
100
AcDbEntity
100
AcDbLine
  8
0
 62
256
370
-1
  6
CONTINUOUS
 10
1140.0
 20
395.0
 30
0.0
 11
1140.0
 21
220.0
 31
0.0
  0
LINE
  5
76
100
AcDbEntity
100
AcDbLine
  8
0
 62
256
370
-1
  6
CONTINUOUS
 10
1140.0
 20
220.0
 30
0.0
 11
1135.0
 21
220.0
 31
0.0
  0
LINE
  5
77
100
AcDbEntity
100
AcDbLine
  8
0
 62
256
370
-1
  6
CONTINUOUS
 10
1135.0
 20
220.0
 30
0.0
 11
1135.0
 21
395.0
 31
0.0
  0
LINE
  5
78
100
AcDbEntity
100
AcDbLine
  8
0
 62
256
370
-1
  6
CONTINUOUS
 10
1145.0
 20
395.0
 30
0.0
 11
1150.0
 21
395.0
 31
0.0
  0
LINE
  5
79
100
AcDbEntity
100
AcDbLine
  8
0
 62
256
370
-1
  6
CONTINUOUS
 10
1150.0
 20
395.0
 30
0.0
 11
1150.0
 21
220.0
 31
0.0
  0
LINE
  5
7A
100
AcDbEntity
100
AcDbLine
  8
0
 62
256
370
-1
  6
CONTINUOUS
 10
1150.0
 20
220.0
 30
0.0
 11
1145.0
 21
220.0
 31
0.0
  0
LINE
  5
7B
100
AcDbEntity
100
AcDbLine
  8
0
 62
256
370
-1
  6
CONTINUOUS
 10
1145.0
 20
220.0
 30
0.0
 11
1145.0
 21
395.0
 31
0.0
  0
LINE
  5
7C
100
AcDbEntity
100
AcDbLine
  8
0
 62
256
370
-1
  6
CONTINUOUS
 10
1155.0
 20
395.0
 30
0.0
 11
1160.0
 21
395.0
 31
0.0
  0
LINE
  5
7D
100
AcDbEntity
100
AcDbLine
  8
0
 62
256
370
-1
  6
CONTINUOUS
 10
1160.0
 20
395.0
 30
0.0
 11
1160.0
 21
220.0
 31
0.0
  0
LINE
  5
7E
100
AcDbEntity
100
AcDbLine
  8
0
 62
256
370
-1
  6
CONTINUOUS
 10
1160.0
 20
220.0
 30
0.0
 11
1155.0
 21
220.0
 31
0.0
  0
LINE
  5
7F
100
AcDbEntity
100
AcDbLine
  8
0
 62
256
370
-1
  6
CONTINUOUS
 10
1155.0
 20
220.0
 30
0.0
 11
1155.0
 21
395.0
 31
0.0
  0
LINE
  5
80
100
AcDbEntity
100
AcDbLine
  8
0
 62
256
370
-1
  6
CONTINUOUS
 10
1165.0
 20
395.0
 30
0.0
 11
1170.0
 21
395.0
 31
0.0
  0
LINE
  5
81
100
AcDbEntity
100
AcDbLine
  8
0
 62
256
370
-1
  6
CONTINUOUS
 10
1170.0
 20
395.0
 30
0.0
 11
1170.0
 21
220.0
 31
0.0
  0
LINE
  5
82
100
AcDbEntity
100
AcDbLine
  8
0
 62
256
370
-1
  6
CONTINUOUS
 10
1170.0
 20
220.0
 30
0.0
 11
1165.0
 21
220.0
 31
0.0
  0
LINE
  5
83
100
AcDbEntity
100
AcDbLine
  8
0
 62
256
370
-1
  6
CONTINUOUS
 10
1165.0
 20
220.0
 30
0.0
 11
1165.0
 21
395.0
 31
0.0
  0
LINE
  5
84
100
AcDbEntity
100
AcDbLine
  8
0
 62
256
370
-1
  6
CONTINUOUS
 10
1175.0
 20
395.0
 30
0.0
 11
1180.0
 21
395.0
 31
0.0
  0
LINE
  5
85
100
AcDbEntity
100
AcDbLine
  8
0
 62
256
370
-1
  6
CONTINUOUS
 10
1180.0
 20
395.0
 30
0.0
 11
1180.0
 21
220.0
 31
0.0
  0
LINE
  5
86
100
AcDbEntity
100
AcDbLine
  8
0
 62
256
370
-1
  6
CONTINUOUS
 10
1180.0
 20
220.0
 30
0.0
 11
1175.0
 21
220.0
 31
0.0
  0
LINE
  5
87
100
AcDbEntity
100
AcDbLine
  8
0
 62
256
370
-1
  6
CONTINUOUS
 10
1175.0
 20
220.0
 30
0.0
 11
1175.0
 21
395.0
 31
0.0
  0
LINE
  5
88
100
AcDbEntity
100
AcDbLine
  8
0
 62
256
370
-1
  6
CONTINUOUS
 10
1185.0
 20
395.0
 30
0.0
 11
1190.0
 21
395.0
 31
0.0
  0
LINE
  5
89
100
AcDbEntity
100
AcDbLine
  8
0
 62
256
370
-1
  6
CONTINUOUS
 10
1190.0
 20
395.0
 30
0.0
 11
1190.0
 21
220.0
 31
0.0
  0
LINE
  5
8A
100
AcDbEntity
100
AcDbLine
  8
0
 62
256
370
-1
  6
CONTINUOUS
 10
1190.0
 20
220.0
 30
0.0
 11
1185.0
 21
220.0
 31
0.0
  0
LINE
  5
8B
100
AcDbEntity
100
AcDbLine
  8
0
 62
256
370
-1
  6
CONTINUOUS
 10
1185.0
 20
220.0
 30
0.0
 11
1185.0
 21
395.0
 31
0.0
  0
LINE
  5
8C
100
AcDbEntity
100
AcDbLine
  8
0
 62
256
370
-1
  6
CONTINUOUS
 10
1195.0
 20
395.0
 30
0.0
 11
1195.0
 21
220.0
 31
0.0
  0
LINE
  5
8D
100
AcDbEntity
100
AcDbLine
  8
0
 62
256
370
-1
  6
CONTINUOUS
 10
1195.0
 20
220.0
 30
0.0
 11
1200.0
 21
220.0
 31
0.0
  0
LINE
  5
8E
100
AcDbEntity
100
AcDbLine
  8
0
 62
256
370
-1
  6
CONTINUOUS
 10
1200.0
 20
220.0
 30
0.0
 11
1200.0
 21
395.0
 31
0.0
  0
LINE
  5
8F
100
AcDbEntity
100
AcDbLine
  8
0
 62
256
370
-1
  6
CONTINUOUS
 10
1200.0
 20
395.0
 30
0.0
 11
1195.0
 21
395.0
 31
0.0
  0
LINE
  5
90
100
AcDbEntity
100
AcDbLine
  8
0
 62
256
370
-1
  6
CONTINUOUS
 10
1205.0
 20
395.0
 30
0.0
 11
1205.0
 21
220.0
 31
0.0
  0
LINE
  5
91
100
AcDbEntity
100
AcDbLine
  8
0
 62
256
370
-1
  6
CONTINUOUS
 10
1205.0
 20
220.0
 30
0.0
 11
1210.0
 21
220.0
 31
0.0
  0
LINE
  5
92
100
AcDbEntity
100
AcDbLine
  8
0
 62
256
370
-1
  6
CONTINUOUS
 10
1210.0
 20
220.0
 30
0.0
 11
1210.0
 21
395.0
 31
0.0
  0
LINE
  5
93
100
AcDbEntity
100
AcDbLine
  8
0
 62
256
370
-1
  6
CONTINUOUS
 10
1210.0
 20
395.0
 30
0.0
 11
1205.0
 21
395.0
 31
0.0
  0
LINE
  5
94
100
AcDbEntity
100
AcDbLine
  8
0
 62
256
370
-1
  6
CONTINUOUS
 10
1215.0
 20
395.0
 30
0.0
 11
1220.0
 21
395.0
 31
0.0
  0
LINE
  5
95
100
AcDbEntity
100
AcDbLine
  8
0
 62
256
370
-1
  6
CONTINUOUS
 10
1220.0
 20
395.0
 30
0.0
 11
1220.0
 21
220.0
 31
0.0
  0
LINE
  5
96
100
AcDbEntity
100
AcDbLine
  8
0
 62
256
370
-1
  6
CONTINUOUS
 10
1220.0
 20
220.0
 30
0.0
 11
1215.0
 21
220.0
 31
0.0
  0
LINE
  5
97
100
AcDbEntity
100
AcDbLine
  8
0
 62
256
370
-1
  6
CONTINUOUS
 10
1215.0
 20
220.0
 30
0.0
 11
1215.0
 21
395.0
 31
0.0
  0
LINE
  5
98
100
AcDbEntity
100
AcDbLine
  8
0
 62
256
370
-1
  6
CONTINUOUS
 10
1225.0
 20
395.0
 30
0.0
 11
1230.0
 21
395.0
 31
0.0
  0
LINE
  5
99
100
AcDbEntity
100
AcDbLine
  8
0
 62
256
370
-1
  6
CONTINUOUS
 10
1230.0
 20
395.0
 30
0.0
 11
1230.0
 21
220.0
 31
0.0
  0
LINE
  5
9A
100
AcDbEntity
100
AcDbLine
  8
0
 62
256
370
-1
  6
CONTINUOUS
 10
1230.0
 20
220.0
 30
0.0
 11
1225.0
 21
220.0
 31
0.0
  0
LINE
  5
9B
100
AcDbEntity
100
AcDbLine
  8
0
 62
256
370
-1
  6
CONTINUOUS
 10
1225.0
 20
220.0
 30
0.0
 11
1225.0
 21
395.0
 31
0.0
  0
LINE
  5
9C
100
AcDbEntity
100
AcDbLine
  8
0
 62
256
370
-1
  6
CONTINUOUS
 10
1235.0
 20
395.0
 30
0.0
 11
1240.0
 21
395.0
 31
0.0
  0
LINE
  5
9D
100
AcDbEntity
100
AcDbLine
  8
0
 62
256
370
-1
  6
CONTINUOUS
 10
1240.0
 20
395.0
 30
0.0
 11
1240.0
 21
220.0
 31
0.0
  0
LINE
  5
9E
100
AcDbEntity
100
AcDbLine
  8
0
 62
256
370
-1
  6
CONTINUOUS
 10
1240.0
 20
220.0
 30
0.0
 11
1235.0
 21
220.0
 31
0.0
  0
LINE
  5
9F
100
AcDbEntity
100
AcDbLine
  8
0
 62
256
370
-1
  6
CONTINUOUS
 10
1235.0
 20
220.0
 30
0.0
 11
1235.0
 21
395.0
 31
0.0
  0
LINE
  5
A0
100
AcDbEntity
100
AcDbLine
  8
0
 62
256
370
-1
  6
CONTINUOUS
 10
1245.0
 20
395.0
 30
0.0
 11
1250.0
 21
395.0
 31
0.0
  0
LINE
  5
A1
100
AcDbEntity
100
AcDbLine
  8
0
 62
256
370
-1
  6
CONTINUOUS
 10
1250.0
 20
395.0
 30
0.0
 11
1250.0
 21
220.0
 31
0.0
  0
LINE
  5
A2
100
AcDbEntity
100
AcDbLine
  8
0
 62
256
370
-1
  6
CONTINUOUS
 10
1250.0
 20
220.0
 30
0.0
 11
1245.0
 21
220.0
 31
0.0
  0
LINE
  5
A3
100
AcDbEntity
100
AcDbLine
  8
0
 62
256
370
-1
  6
CONTINUOUS
 10
1245.0
 20
220.0
 30
0.0
 11
1245.0
 21
395.0
 31
0.0
  0
LINE
  5
A4
100
AcDbEntity
100
AcDbLine
  8
0
 62
256
370
-1
  6
CONTINUOUS
 10
1255.0
 20
395.0
 30
0.0
 11
1260.0
 21
395.0
 31
0.0
  0
LINE
  5
A5
100
AcDbEntity
100
AcDbLine
  8
0
 62
256
370
-1
  6
CONTINUOUS
 10
1260.0
 20
395.0
 30
0.0
 11
1260.0
 21
220.0
 31
0.0
  0
LINE
  5
A6
100
AcDbEntity
100
AcDbLine
  8
0
 62
256
370
-1
  6
CONTINUOUS
 10
1260.0
 20
220.0
 30
0.0
 11
1255.0
 21
220.0
 31
0.0
  0
LINE
  5
A7
100
AcDbEntity
100
AcDbLine
  8
0
 62
256
370
-1
  6
CONTINUOUS
 10
1255.0
 20
220.0
 30
0.0
 11
1255.0
 21
395.0
 31
0.0
  0
LINE
  5
A8
100
AcDbEntity
100
AcDbLine
  8
0
 62
256
370
-1
  6
CONTINUOUS
 10
1265.0
 20
395.0
 30
0.0
 11
1270.0
 21
395.0
 31
0.0
  0
LINE
  5
A9
100
AcDbEntity
100
AcDbLine
  8
0
 62
256
370
-1
  6
CONTINUOUS
 10
1270.0
 20
395.0
 30
0.0
 11
1270.0
 21
220.0
 31
0.0
  0
LINE
  5
AA
100
AcDbEntity
100
AcDbLine
  8
0
 62
256
370
-1
  6
CONTINUOUS
 10
1270.0
 20
220.0
 30
0.0
 11
1265.0
 21
220.0
 31
0.0
  0
LINE
  5
AB
100
AcDbEntity
100
AcDbLine
  8
0
 62
256
370
-1
  6
CONTINUOUS
 10
1265.0
 20
220.0
 30
0.0
 11
1265.0
 21
395.0
 31
0.0
  0
LINE
  5
AC
100
AcDbEntity
100
AcDbLine
  8
0
 62
256
370
-1
  6
CONTINUOUS
 10
1275.0
 20
395.0
 30
0.0
 11
1280.0
 21
395.0
 31
0.0
  0
LINE
  5
AD
100
AcDbEntity
100
AcDbLine
  8
0
 62
256
370
-1
  6
CONTINUOUS
 10
1280.0
 20
395.0
 30
0.0
 11
1280.0
 21
220.0
 31
0.0
  0
LINE
  5
AE
100
AcDbEntity
100
AcDbLine
  8
0
 62
256
370
-1
  6
CONTINUOUS
 10
1280.0
 20
220.0
 30
0.0
 11
1275.0
 21
220.0
 31
0.0
  0
LINE
  5
AF
100
AcDbEntity
100
AcDbLine
  8
0
 62
256
370
-1
  6
CONTINUOUS
 10
1275.0
 20
220.0
 30
0.0
 11
1275.0
 21
395.0
 31
0.0
  0
LINE
  5
B0
100
AcDbEntity
100
AcDbLine
  8
0
 62
256
370
-1
  6
CONTINUOUS
 10
1285.0
 20
395.0
 30
0.0
 11
1285.0
 21
220.0
 31
0.0
  0
LINE
  5
B1
100
AcDbEntity
100
AcDbLine
  8
0
 62
256
370
-1
  6
CONTINUOUS
 10
1285.0
 20
220.0
 30
0.0
 11
1290.0
 21
220.0
 31
0.0
  0
LINE
  5
B2
100
AcDbEntity
100
AcDbLine
  8
0
 62
256
370
-1
  6
CONTINUOUS
 10
1290.0
 20
220.0
 30
0.0
 11
1290.0
 21
395.0
 31
0.0
  0
LINE
  5
B3
100
AcDbEntity
100
AcDbLine
  8
0
 62
256
370
-1
  6
CONTINUOUS
 10
1290.0
 20
395.0
 30
0.0
 11
1285.0
 21
395.0
 31
0.0
  0
LINE
  5
B4
100
AcDbEntity
100
AcDbLine
  8
0
 62
256
370
-1
  6
CONTINUOUS
 10
1295.0
 20
395.0
 30
0.0
 11
1295.0
 21
220.0
 31
0.0
  0
LINE
  5
B5
100
AcDbEntity
100
AcDbLine
  8
0
 62
256
370
-1
  6
CONTINUOUS
 10
1295.0
 20
220.0
 30
0.0
 11
1300.0
 21
220.0
 31
0.0
  0
LINE
  5
B6
100
AcDbEntity
100
AcDbLine
  8
0
 62
256
370
-1
  6
CONTINUOUS
 10
1300.0
 20
220.0
 30
0.0
 11
1300.0
 21
395.0
 31
0.0
  0
LINE
  5
B7
100
AcDbEntity
100
AcDbLine
  8
0
 62
256
370
-1
  6
CONTINUOUS
 10
1300.0
 20
395.0
 30
0.0
 11
1295.0
 21
395.0
 31
0.0
  0
LINE
  5
B8
100
AcDbEntity
100
AcDbLine
  8
0
 62
256
370
-1
  6
CONTINUOUS
 10
1305.0
 20
395.0
 30
0.0
 11
1310.0
 21
395.0
 31
0.0
  0
LINE
  5
B9
100
AcDbEntity
100
AcDbLine
  8
0
 62
256
370
-1
  6
CONTINUOUS
 10
1310.0
 20
395.0
 30
0.0
 11
1310.0
 21
220.0
 31
0.0
  0
LINE
  5
BA
100
AcDbEntity
100
AcDbLine
  8
0
 62
256
370
-1
  6
CONTINUOUS
 10
1310.0
 20
220.0
 30
0.0
 11
1305.0
 21
220.0
 31
0.0
  0
LINE
  5
BB
100
AcDbEntity
100
AcDbLine
  8
0
 62
256
370
-1
  6
CONTINUOUS
 10
1305.0
 20
220.0
 30
0.0
 11
1305.0
 21
395.0
 31
0.0
  0
LINE
  5
BC
100
AcDbEntity
100
AcDbLine
  8
0
 62
256
370
-1
  6
CONTINUOUS
 10
1315.0
 20
395.0
 30
0.0
 11
1320.0
 21
395.0
 31
0.0
  0
LINE
  5
BD
100
AcDbEntity
100
AcDbLine
  8
0
 62
256
370
-1
  6
CONTINUOUS
 10
1320.0
 20
395.0
 30
0.0
 11
1320.0
 21
220.0
 31
0.0
  0
LINE
  5
BE
100
AcDbEntity
100
AcDbLine
  8
0
 62
256
370
-1
  6
CONTINUOUS
 10
1320.0
 20
220.0
 30
0.0
 11
1315.0
 21
220.0
 31
0.0
  0
LINE
  5
BF
100
AcDbEntity
100
AcDbLine
  8
0
 62
256
370
-1
  6
CONTINUOUS
 10
1315.0
 20
220.0
 30
0.0
 11
1315.0
 21
395.0
 31
0.0
  0
LINE
  5
C0
100
AcDbEntity
100
AcDbLine
  8
0
 62
256
370
-1
  6
CONTINUOUS
 10
1325.0
 20
395.0
 30
0.0
 11
1330.0
 21
395.0
 31
0.0
  0
LINE
  5
C1
100
AcDbEntity
100
AcDbLine
  8
0
 62
256
370
-1
  6
CONTINUOUS
 10
1330.0
 20
395.0
 30
0.0
 11
1330.0
 21
220.0
 31
0.0
  0
LINE
  5
C2
100
AcDbEntity
100
AcDbLine
  8
0
 62
256
370
-1
  6
CONTINUOUS
 10
1330.0
 20
220.0
 30
0.0
 11
1325.0
 21
220.0
 31
0.0
  0
LINE
  5
C3
100
AcDbEntity
100
AcDbLine
  8
0
 62
256
370
-1
  6
CONTINUOUS
 10
1325.0
 20
220.0
 30
0.0
 11
1325.0
 21
395.0
 31
0.0
  0
LINE
  5
C4
100
AcDbEntity
100
AcDbLine
  8
0
 62
256
370
-1
  6
CONTINUOUS
 10
1335.0
 20
395.0
 30
0.0
 11
1340.0
 21
395.0
 31
0.0
  0
LINE
  5
C5
100
AcDbEntity
100
AcDbLine
  8
0
 62
256
370
-1
  6
CONTINUOUS
 10
1340.0
 20
395.0
 30
0.0
 11
1340.0
 21
220.0
 31
0.0
  0
LINE
  5
C6
100
AcDbEntity
100
AcDbLine
  8
0
 62
256
370
-1
  6
CONTINUOUS
 10
1340.0
 20
220.0
 30
0.0
 11
1335.0
 21
220.0
 31
0.0
  0
LINE
  5
C7
100
AcDbEntity
100
AcDbLine
  8
0
 62
256
370
-1
  6
CONTINUOUS
 10
1335.0
 20
220.0
 30
0.0
 11
1335.0
 21
395.0
 31
0.0
  0
LINE
  5
C8
100
AcDbEntity
100
AcDbLine
  8
0
 62
256
370
-1
  6
CONTINUOUS
 10
1345.0
 20
395.0
 30
0.0
 11
1350.0
 21
395.0
 31
0.0
  0
LINE
  5
C9
100
AcDbEntity
100
AcDbLine
  8
0
 62
256
370
-1
  6
CONTINUOUS
 10
1350.0
 20
395.0
 30
0.0
 11
1350.0
 21
220.0
 31
0.0
  0
LINE
  5
CA
100
AcDbEntity
100
AcDbLine
  8
0
 62
256
370
-1
  6
CONTINUOUS
 10
1350.0
 20
220.0
 30
0.0
 11
1345.0
 21
220.0
 31
0.0
  0
LINE
  5
CB
100
AcDbEntity
100
AcDbLine
  8
0
 62
256
370
-1
  6
CONTINUOUS
 10
1345.0
 20
220.0
 30
0.0
 11
1345.0
 21
395.0
 31
0.0
  0
LINE
  5
CC
100
AcDbEntity
100
AcDbLine
  8
0
 62
256
370
-1
  6
CONTINUOUS
 10
1355.0
 20
395.0
 30
0.0
 11
1360.0
 21
395.0
 31
0.0
  0
LINE
  5
CD
100
AcDbEntity
100
AcDbLine
  8
0
 62
256
370
-1
  6
CONTINUOUS
 10
1360.0
 20
395.0
 30
0.0
 11
1360.0
 21
220.0
 31
0.0
  0
LINE
  5
CE
100
AcDbEntity
100
AcDbLine
  8
0
 62
256
370
-1
  6
CONTINUOUS
 10
1360.0
 20
220.0
 30
0.0
 11
1355.0
 21
220.0
 31
0.0
  0
LINE
  5
CF
100
AcDbEntity
100
AcDbLine
  8
0
 62
256
370
-1
  6
CONTINUOUS
 10
1355.0
 20
220.0
 30
0.0
 11
1355.0
 21
395.0
 31
0.0
  0
LINE
  5
D0
100
AcDbEntity
100
AcDbLine
  8
0
 62
256
370
-1
  6
CONTINUOUS
 10
1365.0
 20
395.0
 30
0.0
 11
1370.0
 21
395.0
 31
0.0
  0
LINE
  5
D1
100
AcDbEntity
100
AcDbLine
  8
0
 62
256
370
-1
  6
CONTINUOUS
 10
1370.0
 20
395.0
 30
0.0
 11
1370.0
 21
220.0
 31
0.0
  0
LINE
  5
D2
100
AcDbEntity
100
AcDbLine
  8
0
 62
256
370
-1
  6
CONTINUOUS
 10
1370.0
 20
220.0
 30
0.0
 11
1365.0
 21
220.0
 31
0.0
  0
LINE
  5
D3
100
AcDbEntity
100
AcDbLine
  8
0
 62
256
370
-1
  6
CONTINUOUS
 10
1365.0
 20
220.0
 30
0.0
 11
1365.0
 21
395.0
 31
0.0
  0
LINE
  5
D4
100
AcDbEntity
100
AcDbLine
  8
0
 62
256
370
-1
  6
CONTINUOUS
 10
1375.0
 20
395.0
 30
0.0
 11
1375.0
 21
220.0
 31
0.0
  0
LINE
  5
D5
100
AcDbEntity
100
AcDbLine
  8
0
 62
256
370
-1
  6
CONTINUOUS
 10
1375.0
 20
220.0
 30
0.0
 11
1380.0
 21
220.0
 31
0.0
  0
LINE
  5
D6
100
AcDbEntity
100
AcDbLine
  8
0
 62
256
370
-1
  6
CONTINUOUS
 10
1380.0
 20
220.0
 30
0.0
 11
1380.0
 21
395.0
 31
0.0
  0
LINE
  5
D7
100
AcDbEntity
100
AcDbLine
  8
0
 62
256
370
-1
  6
CONTINUOUS
 10
1380.0
 20
395.0
 30
0.0
 11
1375.0
 21
395.0
 31
0.0
  0
LINE
  5
D8
100
AcDbEntity
100
AcDbLine
  8
0
 62
256
370
-1
  6
CONTINUOUS
 10
1385.0
 20
395.0
 30
0.0
 11
1385.0
 21
220.0
 31
0.0
  0
LINE
  5
D9
100
AcDbEntity
100
AcDbLine
  8
0
 62
256
370
-1
  6
CONTINUOUS
 10
1385.0
 20
220.0
 30
0.0
 11
1390.0
 21
220.0
 31
0.0
  0
LINE
  5
DA
100
AcDbEntity
100
AcDbLine
  8
0
 62
256
370
-1
  6
CONTINUOUS
 10
1390.0
 20
220.0
 30
0.0
 11
1390.0
 21
395.0
 31
0.0
  0
LINE
  5
DB
100
AcDbEntity
100
AcDbLine
  8
0
 62
256
370
-1
  6
CONTINUOUS
 10
1390.0
 20
395.0
 30
0.0
 11
1385.0
 21
395.0
 31
0.0
  0
LINE
  5
DC
100
AcDbEntity
100
AcDbLine
  8
0
 62
256
370
-1
  6
CONTINUOUS
 10
1395.0
 20
215.0
 30
0.0
 11
1395.0
 21
400.0
 31
0.0
  0
LINE
  5
DD
100
AcDbEntity
100
AcDbLine
  8
0
 62
256
370
-1
  6
CONTINUOUS
 10
1100.0
 20
215.0
 30
0.0
 11
1395.0
 21
215.0
 31
0.0
  0
LINE
  5
DE
100
AcDbEntity
100
AcDbLine
  8
0
 62
256
370
-1
  6
CONTINUOUS
 10
1395.0
 20
400.0
 30
0.0
 11
1100.0
 21
400.0
 31
0.0
  0
LINE
  5
DF
100
AcDbEntity
100
AcDbLine
  8
0
 62
256
370
-1
  6
CONTINUOUS
 10
0.0
 20
1500.0
 30
0.0
 11
0.0
 21
1000.0
 31
0.0
  0
LINE
  5
E0
100
AcDbEntity
100
AcDbLine
  8
0
 62
256
370
-1
  6
CONTINUOUS
 10
0.0
 20
1000.0
 30
0.0
 11
500.0
 21
1000.0
 31
0.0
  0
LINE
  5
E1
100
AcDbEntity
100
AcDbLine
  8
0
 62
256
370
-1
  6
CONTINUOUS
 10
500.0
 20
1000.0
 30
0.0
 11
500.0
 21
1500.0
 31
0.0
  0
LINE
  5
E2
100
AcDbEntity
100
AcDbLine
  8
0
 62
256
370
-1
  6
CONTINUOUS
 10
500.0
 20
1500.0
 30
0.0
 11
0.0
 21
1500.0
 31
0.0
  0
LINE
  5
E3
100
AcDbEntity
100
AcDbLine
  8
0
 62
256
370
-1
  6
CONTINUOUS
 10
1000.0
 20
1500.0
 30
0.0
 11
1000.0
 21
1000.0
 31
0.0
  0
LINE
  5
E4
100
AcDbEntity
100
AcDbLine
  8
0
 62
256
370
-1
  6
CONTINUOUS
 10
1000.0
 20
1000.0
 30
0.0
 11
1500.0
 21
1000.0
 31
0.0
  0
LINE
  5
E5
100
AcDbEntity
100
AcDbLine
  8
0
 62
256
370
-1
  6
CONTINUOUS
 10
1500.0
 20
1000.0
 30
0.0
 11
1500.0
 21
1500.0
 31
0.0
  0
LINE
  5
E6
100
AcDbEntity
100
AcDbLine
  8
0
 62
256
370
-1
  6
CONTINUOUS
 10
1500.0
 20
1500.0
 30
0.0
 11
1000.0
 21
1500.0
 31
0.0
  0
LINE
  5
E7
100
AcDbEntity
100
AcDbLine
  8
0
 62
256
370
-1
  6
CONTINUOUS
 10
2000.0
 20
1500.0
 30
0.0
 11
2000.0
 21
1000.0
 31
0.0
  0
LINE
  5
E8
100
AcDbEntity
100
AcDbLine
  8
0
 62
256
370
-1
  6
CONTINUOUS
 10
2000.0
 20
1000.0
 30
0.0
 11
2500.0
 21
1000.0
 31
0.0
  0
LINE
  5
E9
100
AcDbEntity
100
AcDbLine
  8
0
 62
256
370
-1
  6
CONTINUOUS
 10
2500.0
 20
1000.0
 30
0.0
 11
2500.0
 21
1500.0
 31
0.0
  0
LINE
  5
EA
100
AcDbEntity
100
AcDbLine
  8
0
 62
256
370
-1
  6
CONTINUOUS
 10
2500.0
 20
1500.0
 30
0.0
 11
2000.0
 21
1500.0
 31
0.0
  0
LINE
  5
EB
100
AcDbEntity
100
AcDbLine
  8
0
 62
256
370
-1
  6
CONTINUOUS
 10
2000.0
 20
500.0
 30
0.0
 11
2000.0
 21
0.0
 31
0.0
  0
LINE
  5
EC
100
AcDbEntity
100
AcDbLine
  8
0
 62
256
370
-1
  6
CONTINUOUS
 10
2000.0
 20
0.0
 30
0.0
 11
2500.0
 21
0.0
 31
0.0
  0
LINE
  5
ED
100
AcDbEntity
100
AcDbLine
  8
0
 62
256
370
-1
  6
CONTINUOUS
 10
2500.0
 20
0.0
 30
0.0
 11
2500.0
 21
500.0
 31
0.0
  0
LINE
  5
EE
100
AcDbEntity
100
AcDbLine
  8
0
 62
256
370
-1
  6
CONTINUOUS
 10
2500.0
 20
500.0
 30
0.0
 11
2000.0
 21
500.0
 31
0.0
  0
MTEXT
  5
EF
100
AcDbEntity
100
AcDbMText
  8
Filled mask
 62
256
370
-1
  6
CONTINUOUS
 10
1100.0
 20
185.0
 30
0.0
 40
35.0
 41
100.0
 71
1
 72
0
  1
5\~um\~lines
  7
standard
 50
0.0
 73
1
 44
1.0
  0
CIRCLE
  5
F0
100
AcDbEntity
100
AcDbCircle
  8
0
 62
256
370
-1
  6
CONTINUOUS
 10
2250.0
 20
250.0
 30
0.0
 40
250.0
  0
CIRCLE
  5
F1
100
AcDbEntity
100
AcDbCircle
  8
0
 62
256
370
-1
  6
CONTINUOUS
 10
250.0
 20
1250.0
 30
0.0
 40
250.0
  0
CIRCLE
  5
F2
100
AcDbEntity
100
AcDbCircle
  8
0
 62
256
370
-1
  6
CONTINUOUS
 10
1250.0
 20
1250.0
 30
0.0
 40
250.0
  0
CIRCLE
  5
F3
100
AcDbEntity
100
AcDbCircle
  8
0
 62
256
370
-1
  6
CONTINUOUS
 10
2250.0
 20
1250.0
 30
0.0
 40
250.0
  0
LINE
  5
F4
100
AcDbEntity
100
AcDbLine
  8
0
 62
256
370
-1
  6
CONTINUOUS
 10
2060.0
 20
300.0
 30
0.0
 11
2110.0
 21
300.0
 31
0.0
  0
LINE
  5
F5
100
AcDbEntity
100
AcDbLine
  8
0
 62
256
370
-1
  6
CONTINUOUS
 10
2110.0
 20
300.0
 30
0.0
 11
2110.0
 21
250.0
 31
0.0
  0
LINE
  5
F6
100
AcDbEntity
100
AcDbLine
  8
0
 62
256
370
-1
  6
CONTINUOUS
 10
2110.0
 20
250.0
 30
0.0
 11
2060.0
 21
250.0
 31
0.0
  0
LINE
  5
F7
100
AcDbEntity
100
AcDbLine
  8
0
 62
256
370
-1
  6
CONTINUOUS
 10
2060.0
 20
250.0
 30
0.0
 11
2060.0
 21
300.0
 31
0.0
  0
LINE
  5
F8
100
AcDbEntity
100
AcDbLine
  8
0
 62
256
370
-1
  6
CONTINUOUS
 10
2120.0
 20
295.0
 30
0.0
 11
2165.0
 21
295.0
 31
0.0
  0
LINE
  5
F9
100
AcDbEntity
100
AcDbLine
  8
0
 62
256
370
-1
  6
CONTINUOUS
 10
2165.0
 20
295.0
 30
0.0
 11
2165.0
 21
250.0
 31
0.0
  0
LINE
  5
FA
100
AcDbEntity
100
AcDbLine
  8
0
 62
256
370
-1
  6
CONTINUOUS
 10
2165.0
 20
250.0
 30
0.0
 11
2120.0
 21
250.0
 31
0.0
  0
LINE
  5
FB
100
AcDbEntity
100
AcDbLine
  8
0
 62
256
370
-1
  6
CONTINUOUS
 10
2120.0
 20
250.0
 30
0.0
 11
2120.0
 21
295.0
 31
0.0
  0
LINE
  5
FC
100
AcDbEntity
100
AcDbLine
  8
0
 62
256
370
-1
  6
CONTINUOUS
 10
2175.0
 20
290.0
 30
0.0
 11
2215.0
 21
290.0
 31
0.0
  0
LINE
  5
FD
100
AcDbEntity
100
AcDbLine
  8
0
 62
256
370
-1
  6
CONTINUOUS
 10
2215.0
 20
290.0
 30
0.0
 11
2215.0
 21
250.0
 31
0.0
  0
LINE
  5
FE
100
AcDbEntity
100
AcDbLine
  8
0
 62
256
370
-1
  6
CONTINUOUS
 10
2215.0
 20
250.0
 30
0.0
 11
2175.0
 21
250.0
 31
0.0
  0
LINE
  5
FF
100
AcDbEntity
100
AcDbLine
  8
0
 62
256
370
-1
  6
CONTINUOUS
 10
2175.0
 20
250.0
 30
0.0
 11
2175.0
 21
290.0
 31
0.0
  0
LINE
  5
100
100
AcDbEntity
100
AcDbLine
  8
0
 62
256
370
-1
  6
CONTINUOUS
 10
2225.0
 20
285.0
 30
0.0
 11
2260.0
 21
285.0
 31
0.0
  0
LINE
  5
101
100
AcDbEntity
100
AcDbLine
  8
0
 62
256
370
-1
  6
CONTINUOUS
 10
2260.0
 20
285.0
 30
0.0
 11
2260.0
 21
250.0
 31
0.0
  0
LINE
  5
102
100
AcDbEntity
100
AcDbLine
  8
0
 62
256
370
-1
  6
CONTINUOUS
 10
2260.0
 20
250.0
 30
0.0
 11
2225.0
 21
250.0
 31
0.0
  0
LINE
  5
103
100
AcDbEntity
100
AcDbLine
  8
0
 62
256
370
-1
  6
CONTINUOUS
 10
2225.0
 20
250.0
 30
0.0
 11
2225.0
 21
285.0
 31
0.0
  0
LINE
  5
104
100
AcDbEntity
100
AcDbLine
  8
0
 62
256
370
-1
  6
CONTINUOUS
 10
2270.0
 20
280.0
 30
0.0
 11
2300.0
 21
280.0
 31
0.0
  0
LINE
  5
105
100
AcDbEntity
100
AcDbLine
  8
0
 62
256
370
-1
  6
CONTINUOUS
 10
2300.0
 20
280.0
 30
0.0
 11
2300.0
 21
250.0
 31
0.0
  0
LINE
  5
106
100
AcDbEntity
100
AcDbLine
  8
0
 62
256
370
-1
  6
CONTINUOUS
 10
2300.0
 20
250.0
 30
0.0
 11
2270.0
 21
250.0
 31
0.0
  0
LINE
  5
107
100
AcDbEntity
100
AcDbLine
  8
0
 62
256
370
-1
  6
CONTINUOUS
 10
2270.0
 20
250.0
 30
0.0
 11
2270.0
 21
280.0
 31
0.0
  0
LINE
  5
108
100
AcDbEntity
100
AcDbLine
  8
0
 62
256
370
-1
  6
CONTINUOUS
 10
2310.0
 20
275.0
 30
0.0
 11
2335.0
 21
275.0
 31
0.0
  0
LINE
  5
109
100
AcDbEntity
100
AcDbLine
  8
0
 62
256
370
-1
  6
CONTINUOUS
 10
2335.0
 20
275.0
 30
0.0
 11
2335.0
 21
250.0
 31
0.0
  0
LINE
  5
10A
100
AcDbEntity
100
AcDbLine
  8
0
 62
256
370
-1
  6
CONTINUOUS
 10
2335.0
 20
250.0
 30
0.0
 11
2310.0
 21
250.0
 31
0.0
  0
LINE
  5
10B
100
AcDbEntity
100
AcDbLine
  8
0
 62
256
370
-1
  6
CONTINUOUS
 10
2310.0
 20
250.0
 30
0.0
 11
2310.0
 21
275.0
 31
0.0
  0
LINE
  5
10C
100
AcDbEntity
100
AcDbLine
  8
0
 62
256
370
-1
  6
CONTINUOUS
 10
2345.0
 20
270.0
 30
0.0
 11
2365.0
 21
270.0
 31
0.0
  0
LINE
  5
10D
100
AcDbEntity
100
AcDbLine
  8
0
 62
256
370
-1
  6
CONTINUOUS
 10
2365.0
 20
270.0
 30
0.0
 11
2365.0
 21
250.0
 31
0.0
  0
LINE
  5
10E
100
AcDbEntity
100
AcDbLine
  8
0
 62
256
370
-1
  6
CONTINUOUS
 10
2365.0
 20
250.0
 30
0.0
 11
2345.0
 21
250.0
 31
0.0
  0
LINE
  5
10F
100
AcDbEntity
100
AcDbLine
  8
0
 62
256
370
-1
  6
CONTINUOUS
 10
2345.0
 20
250.0
 30
0.0
 11
2345.0
 21
270.0
 31
0.0
  0
LINE
  5
110
100
AcDbEntity
100
AcDbLine
  8
0
 62
256
370
-1
  6
CONTINUOUS
 10
2375.0
 20
265.0
 30
0.0
 11
2390.0
 21
265.0
 31
0.0
  0
LINE
  5
111
100
AcDbEntity
100
AcDbLine
  8
0
 62
256
370
-1
  6
CONTINUOUS
 10
2390.0
 20
265.0
 30
0.0
 11
2390.0
 21
250.0
 31
0.0
  0
LINE
  5
112
100
AcDbEntity
100
AcDbLine
  8
0
 62
256
370
-1
  6
CONTINUOUS
 10
2390.0
 20
250.0
 30
0.0
 11
2375.0
 21
250.0
 31
0.0
  0
LINE
  5
113
100
AcDbEntity
100
AcDbLine
  8
0
 62
256
370
-1
  6
CONTINUOUS
 10
2375.0
 20
250.0
 30
0.0
 11
2375.0
 21
265.0
 31
0.0
  0
LINE
  5
114
100
AcDbEntity
100
AcDbLine
  8
0
 62
256
370
-1
  6
CONTINUOUS
 10
2050.0
 20
325.0
 30
0.0
 11
2450.0
 21
325.0
 31
0.0
  0
LINE
  5
115
100
AcDbEntity
100
AcDbLine
  8
0
 62
256
370
-1
  6
CONTINUOUS
 10
2450.0
 20
325.0
 30
0.0
 11
2450.0
 21
225.0
 31
0.0
  0
LINE
  5
116
100
AcDbEntity
100
AcDbLine
  8
0
 62
256
370
-1
  6
CONTINUOUS
 10
2400.0
 20
260.0
 30
0.0
 11
2410.0
 21
260.0
 31
0.0
  0
LINE
  5
117
100
AcDbEntity
100
AcDbLine
  8
0
 62
256
370
-1
  6
CONTINUOUS
 10
2410.0
 20
260.0
 30
0.0
 11
2410.0
 21
250.0
 31
0.0
  0
LINE
  5
118
100
AcDbEntity
100
AcDbLine
  8
0
 62
256
370
-1
  6
CONTINUOUS
 10
2410.0
 20
250.0
 30
0.0
 11
2400.0
 21
250.0
 31
0.0
  0
LINE
  5
119
100
AcDbEntity
100
AcDbLine
  8
0
 62
256
370
-1
  6
CONTINUOUS
 10
2400.0
 20
250.0
 30
0.0
 11
2400.0
 21
260.0
 31
0.0
  0
LINE
  5
11A
100
AcDbEntity
100
AcDbLine
  8
0
 62
256
370
-1
  6
CONTINUOUS
 10
2420.0
 20
255.0
 30
0.0
 11
2425.0
 21
255.0
 31
0.0
  0
LINE
  5
11B
100
AcDbEntity
100
AcDbLine
  8
0
 62
256
370
-1
  6
CONTINUOUS
 10
2425.0
 20
255.0
 30
0.0
 11
2425.0
 21
250.0
 31
0.0
  0
LINE
  5
11C
100
AcDbEntity
100
AcDbLine
  8
0
 62
256
370
-1
  6
CONTINUOUS
 10
2425.0
 20
250.0
 30
0.0
 11
2420.0
 21
250.0
 31
0.0
  0
LINE
  5
11D
100
AcDbEntity
100
AcDbLine
  8
0
 62
256
370
-1
  6
CONTINUOUS
 10
2420.0
 20
250.0
 30
0.0
 11
2420.0
 21
255.0
 31
0.0
  0
LINE
  5
11E
100
AcDbEntity
100
AcDbLine
  8
0
 62
256
370
-1
  6
CONTINUOUS
 10
2050.0
 20
225.0
 30
0.0
 11
2050.0
 21
325.0
 31
0.0
  0
LINE
  5
11F
100
AcDbEntity
100
AcDbLine
  8
0
 62
256
370
-1
  6
CONTINUOUS
 10
2450.0
 20
225.0
 30
0.0
 11
2050.0
 21
225.0
 31
0.0
  0
MTEXT
  5
120
100
AcDbEntity
100
AcDbMText
  8
Filled mask
 62
256
370
-1
  6
CONTINUOUS
 10
2050.0
 20
200.0
 30
0.0
 40
35.0
 41
100.0
 71
1
 72
0
  1
5-50\~um\~by\~5\~um
  7
standard
 50
0.0
 73
1
 44
1.0
  0
LINE
  5
121
100
AcDbEntity
100
AcDbLine
  8
0
 62
256
370
-1
  6
CONTINUOUS
 10
2050.0
 20
1300.0
 30
0.0
 11
2100.0
 21
1300.0
 31
0.0
  0
LINE
  5
122
100
AcDbEntity
100
AcDbLine
  8
0
 62
256
370
-1
  6
CONTINUOUS
 10
2100.0
 20
1300.0
 30
0.0
 11
2100.0
 21
1250.0
 31
0.0
  0
LINE
  5
123
100
AcDbEntity
100
AcDbLine
  8
0
 62
256
370
-1
  6
CONTINUOUS
 10
2100.0
 20
1250.0
 30
0.0
 11
2050.0
 21
1250.0
 31
0.0
  0
LINE
  5
124
100
AcDbEntity
100
AcDbLine
  8
0
 62
256
370
-1
  6
CONTINUOUS
 10
2050.0
 20
1250.0
 30
0.0
 11
2050.0
 21
1300.0
 31
0.0
  0
LINE
  5
125
100
AcDbEntity
100
AcDbLine
  8
0
 62
256
370
-1
  6
CONTINUOUS
 10
2110.0
 20
1295.0
 30
0.0
 11
2155.0
 21
1295.0
 31
0.0
  0
LINE
  5
126
100
AcDbEntity
100
AcDbLine
  8
0
 62
256
370
-1
  6
CONTINUOUS
 10
2155.0
 20
1295.0
 30
0.0
 11
2155.0
 21
1250.0
 31
0.0
  0
LINE
  5
127
100
AcDbEntity
100
AcDbLine
  8
0
 62
256
370
-1
  6
CONTINUOUS
 10
2155.0
 20
1250.0
 30
0.0
 11
2110.0
 21
1250.0
 31
0.0
  0
LINE
  5
128
100
AcDbEntity
100
AcDbLine
  8
0
 62
256
370
-1
  6
CONTINUOUS
 10
2110.0
 20
1250.0
 30
0.0
 11
2110.0
 21
1295.0
 31
0.0
  0
LINE
  5
129
100
AcDbEntity
100
AcDbLine
  8
0
 62
256
370
-1
  6
CONTINUOUS
 10
2165.0
 20
1290.0
 30
0.0
 11
2205.0
 21
1290.0
 31
0.0
  0
LINE
  5
12A
100
AcDbEntity
100
AcDbLine
  8
0
 62
256
370
-1
  6
CONTINUOUS
 10
2205.0
 20
1290.0
 30
0.0
 11
2205.0
 21
1250.0
 31
0.0
  0
LINE
  5
12B
100
AcDbEntity
100
AcDbLine
  8
0
 62
256
370
-1
  6
CONTINUOUS
 10
2205.0
 20
1250.0
 30
0.0
 11
2165.0
 21
1250.0
 31
0.0
  0
LINE
  5
12C
100
AcDbEntity
100
AcDbLine
  8
0
 62
256
370
-1
  6
CONTINUOUS
 10
2165.0
 20
1250.0
 30
0.0
 11
2165.0
 21
1290.0
 31
0.0
  0
LINE
  5
12D
100
AcDbEntity
100
AcDbLine
  8
0
 62
256
370
-1
  6
CONTINUOUS
 10
2215.0
 20
1285.0
 30
0.0
 11
2250.0
 21
1285.0
 31
0.0
  0
LINE
  5
12E
100
AcDbEntity
100
AcDbLine
  8
0
 62
256
370
-1
  6
CONTINUOUS
 10
2250.0
 20
1285.0
 30
0.0
 11
2250.0
 21
1250.0
 31
0.0
  0
LINE
  5
12F
100
AcDbEntity
100
AcDbLine
  8
0
 62
256
370
-1
  6
CONTINUOUS
 10
2250.0
 20
1250.0
 30
0.0
 11
2215.0
 21
1250.0
 31
0.0
  0
LINE
  5
130
100
AcDbEntity
100
AcDbLine
  8
0
 62
256
370
-1
  6
CONTINUOUS
 10
2215.0
 20
1250.0
 30
0.0
 11
2215.0
 21
1285.0
 31
0.0
  0
LINE
  5
131
100
AcDbEntity
100
AcDbLine
  8
0
 62
256
370
-1
  6
CONTINUOUS
 10
2260.0
 20
1280.0
 30
0.0
 11
2290.0
 21
1280.0
 31
0.0
  0
LINE
  5
132
100
AcDbEntity
100
AcDbLine
  8
0
 62
256
370
-1
  6
CONTINUOUS
 10
2290.0
 20
1280.0
 30
0.0
 11
2290.0
 21
1250.0
 31
0.0
  0
LINE
  5
133
100
AcDbEntity
100
AcDbLine
  8
0
 62
256
370
-1
  6
CONTINUOUS
 10
2290.0
 20
1250.0
 30
0.0
 11
2260.0
 21
1250.0
 31
0.0
  0
LINE
  5
134
100
AcDbEntity
100
AcDbLine
  8
0
 62
256
370
-1
  6
CONTINUOUS
 10
2260.0
 20
1250.0
 30
0.0
 11
2260.0
 21
1280.0
 31
0.0
  0
LINE
  5
135
100
AcDbEntity
100
AcDbLine
  8
0
 62
256
370
-1
  6
CONTINUOUS
 10
2300.0
 20
1275.0
 30
0.0
 11
2325.0
 21
1275.0
 31
0.0
  0
LINE
  5
136
100
AcDbEntity
100
AcDbLine
  8
0
 62
256
370
-1
  6
CONTINUOUS
 10
2325.0
 20
1275.0
 30
0.0
 11
2325.0
 21
1250.0
 31
0.0
  0
LINE
  5
137
100
AcDbEntity
100
AcDbLine
  8
0
 62
256
370
-1
  6
CONTINUOUS
 10
2325.0
 20
1250.0
 30
0.0
 11
2300.0
 21
1250.0
 31
0.0
  0
LINE
  5
138
100
AcDbEntity
100
AcDbLine
  8
0
 62
256
370
-1
  6
CONTINUOUS
 10
2300.0
 20
1250.0
 30
0.0
 11
2300.0
 21
1275.0
 31
0.0
  0
LINE
  5
139
100
AcDbEntity
100
AcDbLine
  8
0
 62
256
370
-1
  6
CONTINUOUS
 10
2335.0
 20
1270.0
 30
0.0
 11
2355.0
 21
1270.0
 31
0.0
  0
LINE
  5
13A
100
AcDbEntity
100
AcDbLine
  8
0
 62
256
370
-1
  6
CONTINUOUS
 10
2355.0
 20
1270.0
 30
0.0
 11
2355.0
 21
1250.0
 31
0.0
  0
LINE
  5
13B
100
AcDbEntity
100
AcDbLine
  8
0
 62
256
370
-1
  6
CONTINUOUS
 10
2355.0
 20
1250.0
 30
0.0
 11
2335.0
 21
1250.0
 31
0.0
  0
LINE
  5
13C
100
AcDbEntity
100
AcDbLine
  8
0
 62
256
370
-1
  6
CONTINUOUS
 10
2335.0
 20
1250.0
 30
0.0
 11
2335.0
 21
1270.0
 31
0.0
  0
LINE
  5
13D
100
AcDbEntity
100
AcDbLine
  8
0
 62
256
370
-1
  6
CONTINUOUS
 10
2365.0
 20
1265.0
 30
0.0
 11
2380.0
 21
1265.0
 31
0.0
  0
LINE
  5
13E
100
AcDbEntity
100
AcDbLine
  8
0
 62
256
370
-1
  6
CONTINUOUS
 10
2380.0
 20
1265.0
 30
0.0
 11
2380.0
 21
1250.0
 31
0.0
  0
LINE
  5
13F
100
AcDbEntity
100
AcDbLine
  8
0
 62
256
370
-1
  6
CONTINUOUS
 10
2380.0
 20
1250.0
 30
0.0
 11
2365.0
 21
1250.0
 31
0.0
  0
LINE
  5
140
100
AcDbEntity
100
AcDbLine
  8
0
 62
256
370
-1
  6
CONTINUOUS
 10
2365.0
 20
1250.0
 30
0.0
 11
2365.0
 21
1265.0
 31
0.0
  0
LINE
  5
141
100
AcDbEntity
100
AcDbLine
  8
0
 62
256
370
-1
  6
CONTINUOUS
 10
2390.0
 20
1260.0
 30
0.0
 11
2400.0
 21
1260.0
 31
0.0
  0
LINE
  5
142
100
AcDbEntity
100
AcDbLine
  8
0
 62
256
370
-1
  6
CONTINUOUS
 10
2400.0
 20
1260.0
 30
0.0
 11
2400.0
 21
1250.0
 31
0.0
  0
LINE
  5
143
100
AcDbEntity
100
AcDbLine
  8
0
 62
256
370
-1
  6
CONTINUOUS
 10
2400.0
 20
1250.0
 30
0.0
 11
2390.0
 21
1250.0
 31
0.0
  0
LINE
  5
144
100
AcDbEntity
100
AcDbLine
  8
0
 62
256
370
-1
  6
CONTINUOUS
 10
2390.0
 20
1250.0
 30
0.0
 11
2390.0
 21
1260.0
 31
0.0
  0
LINE
  5
145
100
AcDbEntity
100
AcDbLine
  8
0
 62
256
370
-1
  6
CONTINUOUS
 10
2410.0
 20
1255.0
 30
0.0
 11
2415.0
 21
1255.0
 31
0.0
  0
LINE
  5
146
100
AcDbEntity
100
AcDbLine
  8
0
 62
256
370
-1
  6
CONTINUOUS
 10
2415.0
 20
1255.0
 30
0.0
 11
2415.0
 21
1250.0
 31
0.0
  0
LINE
  5
147
100
AcDbEntity
100
AcDbLine
  8
0
 62
256
370
-1
  6
CONTINUOUS
 10
2415.0
 20
1250.0
 30
0.0
 11
2410.0
 21
1250.0
 31
0.0
  0
LINE
  5
148
100
AcDbEntity
100
AcDbLine
  8
0
 62
256
370
-1
  6
CONTINUOUS
 10
2410.0
 20
1250.0
 30
0.0
 11
2410.0
 21
1255.0
 31
0.0
  0
MTEXT
  5
149
100
AcDbEntity
100
AcDbMText
  8
Filled mask
 62
256
370
-1
  6
CONTINUOUS
 10
2050.0
 20
1220.0
 30
0.0
 40
35.0
 41
100.0
 71
1
 72
0
  1
5-50\~um\~by\~5\~um
  7
standard
 50
0.0
 73
1
 44
1.0
  0
LINE
  5
14A
100
AcDbEntity
100
AcDbLine
  8
0
 62
256
370
-1
  6
CONTINUOUS
 10
1120.0
 20
1400.0
 30
0.0
 11
1120.0
 21
1225.0
 31
0.0
  0
LINE
  5
14B
100
AcDbEntity
100
AcDbLine
  8
0
 62
256
370
-1
  6
CONTINUOUS
 10
1120.0
 20
1225.0
 30
0.0
 11
1125.0
 21
1225.0
 31
0.0
  0
LINE
  5
14C
100
AcDbEntity
100
AcDbLine
  8
0
 62
256
370
-1
  6
CONTINUOUS
 10
1125.0
 20
1225.0
 30
0.0
 11
1125.0
 21
1400.0
 31
0.0
  0
LINE
  5
14D
100
AcDbEntity
100
AcDbLine
  8
0
 62
256
370
-1
  6
CONTINUOUS
 10
1125.0
 20
1400.0
 30
0.0
 11
1120.0
 21
1400.0
 31
0.0
  0
LINE
  5
14E
100
AcDbEntity
100
AcDbLine
  8
0
 62
256
370
-1
  6
CONTINUOUS
 10
1130.0
 20
1400.0
 30
0.0
 11
1130.0
 21
1225.0
 31
0.0
  0
LINE
  5
14F
100
AcDbEntity
100
AcDbLine
  8
0
 62
256
370
-1
  6
CONTINUOUS
 10
1130.0
 20
1225.0
 30
0.0
 11
1135.0
 21
1225.0
 31
0.0
  0
LINE
  5
150
100
AcDbEntity
100
AcDbLine
  8
0
 62
256
370
-1
  6
CONTINUOUS
 10
1135.0
 20
1225.0
 30
0.0
 11
1135.0
 21
1400.0
 31
0.0
  0
LINE
  5
151
100
AcDbEntity
100
AcDbLine
  8
0
 62
256
370
-1
  6
CONTINUOUS
 10
1135.0
 20
1400.0
 30
0.0
 11
1130.0
 21
1400.0
 31
0.0
  0
LINE
  5
152
100
AcDbEntity
100
AcDbLine
  8
0
 62
256
370
-1
  6
CONTINUOUS
 10
1140.0
 20
1400.0
 30
0.0
 11
1145.0
 21
1400.0
 31
0.0
  0
LINE
  5
153
100
AcDbEntity
100
AcDbLine
  8
0
 62
256
370
-1
  6
CONTINUOUS
 10
1145.0
 20
1400.0
 30
0.0
 11
1145.0
 21
1225.0
 31
0.0
  0
LINE
  5
154
100
AcDbEntity
100
AcDbLine
  8
0
 62
256
370
-1
  6
CONTINUOUS
 10
1145.0
 20
1225.0
 30
0.0
 11
1140.0
 21
1225.0
 31
0.0
  0
LINE
  5
155
100
AcDbEntity
100
AcDbLine
  8
0
 62
256
370
-1
  6
CONTINUOUS
 10
1140.0
 20
1225.0
 30
0.0
 11
1140.0
 21
1400.0
 31
0.0
  0
LINE
  5
156
100
AcDbEntity
100
AcDbLine
  8
0
 62
256
370
-1
  6
CONTINUOUS
 10
1150.0
 20
1400.0
 30
0.0
 11
1155.0
 21
1400.0
 31
0.0
  0
LINE
  5
157
100
AcDbEntity
100
AcDbLine
  8
0
 62
256
370
-1
  6
CONTINUOUS
 10
1155.0
 20
1400.0
 30
0.0
 11
1155.0
 21
1225.0
 31
0.0
  0
LINE
  5
158
100
AcDbEntity
100
AcDbLine
  8
0
 62
256
370
-1
  6
CONTINUOUS
 10
1155.0
 20
1225.0
 30
0.0
 11
1150.0
 21
1225.0
 31
0.0
  0
LINE
  5
159
100
AcDbEntity
100
AcDbLine
  8
0
 62
256
370
-1
  6
CONTINUOUS
 10
1150.0
 20
1225.0
 30
0.0
 11
1150.0
 21
1400.0
 31
0.0
  0
LINE
  5
15A
100
AcDbEntity
100
AcDbLine
  8
0
 62
256
370
-1
  6
CONTINUOUS
 10
1160.0
 20
1400.0
 30
0.0
 11
1165.0
 21
1400.0
 31
0.0
  0
LINE
  5
15B
100
AcDbEntity
100
AcDbLine
  8
0
 62
256
370
-1
  6
CONTINUOUS
 10
1165.0
 20
1400.0
 30
0.0
 11
1165.0
 21
1225.0
 31
0.0
  0
LINE
  5
15C
100
AcDbEntity
100
AcDbLine
  8
0
 62
256
370
-1
  6
CONTINUOUS
 10
1165.0
 20
1225.0
 30
0.0
 11
1160.0
 21
1225.0
 31
0.0
  0
LINE
  5
15D
100
AcDbEntity
100
AcDbLine
  8
0
 62
256
370
-1
  6
CONTINUOUS
 10
1160.0
 20
1225.0
 30
0.0
 11
1160.0
 21
1400.0
 31
0.0
  0
LINE
  5
15E
100
AcDbEntity
100
AcDbLine
  8
0
 62
256
370
-1
  6
CONTINUOUS
 10
1170.0
 20
1400.0
 30
0.0
 11
1175.0
 21
1400.0
 31
0.0
  0
LINE
  5
15F
100
AcDbEntity
100
AcDbLine
  8
0
 62
256
370
-1
  6
CONTINUOUS
 10
1175.0
 20
1400.0
 30
0.0
 11
1175.0
 21
1225.0
 31
0.0
  0
LINE
  5
160
100
AcDbEntity
100
AcDbLine
  8
0
 62
256
370
-1
  6
CONTINUOUS
 10
1175.0
 20
1225.0
 30
0.0
 11
1170.0
 21
1225.0
 31
0.0
  0
LINE
  5
161
100
AcDbEntity
100
AcDbLine
  8
0
 62
256
370
-1
  6
CONTINUOUS
 10
1170.0
 20
1225.0
 30
0.0
 11
1170.0
 21
1400.0
 31
0.0
  0
LINE
  5
162
100
AcDbEntity
100
AcDbLine
  8
0
 62
256
370
-1
  6
CONTINUOUS
 10
1180.0
 20
1400.0
 30
0.0
 11
1185.0
 21
1400.0
 31
0.0
  0
LINE
  5
163
100
AcDbEntity
100
AcDbLine
  8
0
 62
256
370
-1
  6
CONTINUOUS
 10
1185.0
 20
1400.0
 30
0.0
 11
1185.0
 21
1225.0
 31
0.0
  0
LINE
  5
164
100
AcDbEntity
100
AcDbLine
  8
0
 62
256
370
-1
  6
CONTINUOUS
 10
1185.0
 20
1225.0
 30
0.0
 11
1180.0
 21
1225.0
 31
0.0
  0
LINE
  5
165
100
AcDbEntity
100
AcDbLine
  8
0
 62
256
370
-1
  6
CONTINUOUS
 10
1180.0
 20
1225.0
 30
0.0
 11
1180.0
 21
1400.0
 31
0.0
  0
LINE
  5
166
100
AcDbEntity
100
AcDbLine
  8
0
 62
256
370
-1
  6
CONTINUOUS
 10
1190.0
 20
1400.0
 30
0.0
 11
1195.0
 21
1400.0
 31
0.0
  0
LINE
  5
167
100
AcDbEntity
100
AcDbLine
  8
0
 62
256
370
-1
  6
CONTINUOUS
 10
1195.0
 20
1400.0
 30
0.0
 11
1195.0
 21
1225.0
 31
0.0
  0
LINE
  5
168
100
AcDbEntity
100
AcDbLine
  8
0
 62
256
370
-1
  6
CONTINUOUS
 10
1195.0
 20
1225.0
 30
0.0
 11
1190.0
 21
1225.0
 31
0.0
  0
LINE
  5
169
100
AcDbEntity
100
AcDbLine
  8
0
 62
256
370
-1
  6
CONTINUOUS
 10
1190.0
 20
1225.0
 30
0.0
 11
1190.0
 21
1400.0
 31
0.0
  0
LINE
  5
16A
100
AcDbEntity
100
AcDbLine
  8
0
 62
256
370
-1
  6
CONTINUOUS
 10
1200.0
 20
1400.0
 30
0.0
 11
1205.0
 21
1400.0
 31
0.0
  0
LINE
  5
16B
100
AcDbEntity
100
AcDbLine
  8
0
 62
256
370
-1
  6
CONTINUOUS
 10
1205.0
 20
1400.0
 30
0.0
 11
1205.0
 21
1225.0
 31
0.0
  0
LINE
  5
16C
100
AcDbEntity
100
AcDbLine
  8
0
 62
256
370
-1
  6
CONTINUOUS
 10
1205.0
 20
1225.0
 30
0.0
 11
1200.0
 21
1225.0
 31
0.0
  0
LINE
  5
16D
100
AcDbEntity
100
AcDbLine
  8
0
 62
256
370
-1
  6
CONTINUOUS
 10
1200.0
 20
1225.0
 30
0.0
 11
1200.0
 21
1400.0
 31
0.0
  0
LINE
  5
16E
100
AcDbEntity
100
AcDbLine
  8
0
 62
256
370
-1
  6
CONTINUOUS
 10
1210.0
 20
1400.0
 30
0.0
 11
1210.0
 21
1225.0
 31
0.0
  0
LINE
  5
16F
100
AcDbEntity
100
AcDbLine
  8
0
 62
256
370
-1
  6
CONTINUOUS
 10
1210.0
 20
1225.0
 30
0.0
 11
1215.0
 21
1225.0
 31
0.0
  0
LINE
  5
170
100
AcDbEntity
100
AcDbLine
  8
0
 62
256
370
-1
  6
CONTINUOUS
 10
1215.0
 20
1225.0
 30
0.0
 11
1215.0
 21
1400.0
 31
0.0
  0
LINE
  5
171
100
AcDbEntity
100
AcDbLine
  8
0
 62
256
370
-1
  6
CONTINUOUS
 10
1215.0
 20
1400.0
 30
0.0
 11
1210.0
 21
1400.0
 31
0.0
  0
LINE
  5
172
100
AcDbEntity
100
AcDbLine
  8
0
 62
256
370
-1
  6
CONTINUOUS
 10
1220.0
 20
1400.0
 30
0.0
 11
1220.0
 21
1225.0
 31
0.0
  0
LINE
  5
173
100
AcDbEntity
100
AcDbLine
  8
0
 62
256
370
-1
  6
CONTINUOUS
 10
1220.0
 20
1225.0
 30
0.0
 11
1225.0
 21
1225.0
 31
0.0
  0
LINE
  5
174
100
AcDbEntity
100
AcDbLine
  8
0
 62
256
370
-1
  6
CONTINUOUS
 10
1225.0
 20
1225.0
 30
0.0
 11
1225.0
 21
1400.0
 31
0.0
  0
LINE
  5
175
100
AcDbEntity
100
AcDbLine
  8
0
 62
256
370
-1
  6
CONTINUOUS
 10
1225.0
 20
1400.0
 30
0.0
 11
1220.0
 21
1400.0
 31
0.0
  0
LINE
  5
176
100
AcDbEntity
100
AcDbLine
  8
0
 62
256
370
-1
  6
CONTINUOUS
 10
1230.0
 20
1400.0
 30
0.0
 11
1235.0
 21
1400.0
 31
0.0
  0
LINE
  5
177
100
AcDbEntity
100
AcDbLine
  8
0
 62
256
370
-1
  6
CONTINUOUS
 10
1235.0
 20
1400.0
 30
0.0
 11
1235.0
 21
1225.0
 31
0.0
  0
LINE
  5
178
100
AcDbEntity
100
AcDbLine
  8
0
 62
256
370
-1
  6
CONTINUOUS
 10
1235.0
 20
1225.0
 30
0.0
 11
1230.0
 21
1225.0
 31
0.0
  0
LINE
  5
179
100
AcDbEntity
100
AcDbLine
  8
0
 62
256
370
-1
  6
CONTINUOUS
 10
1230.0
 20
1225.0
 30
0.0
 11
1230.0
 21
1400.0
 31
0.0
  0
LINE
  5
17A
100
AcDbEntity
100
AcDbLine
  8
0
 62
256
370
-1
  6
CONTINUOUS
 10
1240.0
 20
1400.0
 30
0.0
 11
1245.0
 21
1400.0
 31
0.0
  0
LINE
  5
17B
100
AcDbEntity
100
AcDbLine
  8
0
 62
256
370
-1
  6
CONTINUOUS
 10
1245.0
 20
1400.0
 30
0.0
 11
1245.0
 21
1225.0
 31
0.0
  0
LINE
  5
17C
100
AcDbEntity
100
AcDbLine
  8
0
 62
256
370
-1
  6
CONTINUOUS
 10
1245.0
 20
1225.0
 30
0.0
 11
1240.0
 21
1225.0
 31
0.0
  0
LINE
  5
17D
100
AcDbEntity
100
AcDbLine
  8
0
 62
256
370
-1
  6
CONTINUOUS
 10
1240.0
 20
1225.0
 30
0.0
 11
1240.0
 21
1400.0
 31
0.0
  0
LINE
  5
17E
100
AcDbEntity
100
AcDbLine
  8
0
 62
256
370
-1
  6
CONTINUOUS
 10
1250.0
 20
1400.0
 30
0.0
 11
1255.0
 21
1400.0
 31
0.0
  0
LINE
  5
17F
100
AcDbEntity
100
AcDbLine
  8
0
 62
256
370
-1
  6
CONTINUOUS
 10
1255.0
 20
1400.0
 30
0.0
 11
1255.0
 21
1225.0
 31
0.0
  0
LINE
  5
180
100
AcDbEntity
100
AcDbLine
  8
0
 62
256
370
-1
  6
CONTINUOUS
 10
1255.0
 20
1225.0
 30
0.0
 11
1250.0
 21
1225.0
 31
0.0
  0
LINE
  5
181
100
AcDbEntity
100
AcDbLine
  8
0
 62
256
370
-1
  6
CONTINUOUS
 10
1250.0
 20
1225.0
 30
0.0
 11
1250.0
 21
1400.0
 31
0.0
  0
LINE
  5
182
100
AcDbEntity
100
AcDbLine
  8
0
 62
256
370
-1
  6
CONTINUOUS
 10
1260.0
 20
1400.0
 30
0.0
 11
1265.0
 21
1400.0
 31
0.0
  0
LINE
  5
183
100
AcDbEntity
100
AcDbLine
  8
0
 62
256
370
-1
  6
CONTINUOUS
 10
1265.0
 20
1400.0
 30
0.0
 11
1265.0
 21
1225.0
 31
0.0
  0
LINE
  5
184
100
AcDbEntity
100
AcDbLine
  8
0
 62
256
370
-1
  6
CONTINUOUS
 10
1265.0
 20
1225.0
 30
0.0
 11
1260.0
 21
1225.0
 31
0.0
  0
LINE
  5
185
100
AcDbEntity
100
AcDbLine
  8
0
 62
256
370
-1
  6
CONTINUOUS
 10
1260.0
 20
1225.0
 30
0.0
 11
1260.0
 21
1400.0
 31
0.0
  0
LINE
  5
186
100
AcDbEntity
100
AcDbLine
  8
0
 62
256
370
-1
  6
CONTINUOUS
 10
1270.0
 20
1400.0
 30
0.0
 11
1275.0
 21
1400.0
 31
0.0
  0
LINE
  5
187
100
AcDbEntity
100
AcDbLine
  8
0
 62
256
370
-1
  6
CONTINUOUS
 10
1275.0
 20
1400.0
 30
0.0
 11
1275.0
 21
1225.0
 31
0.0
  0
LINE
  5
188
100
AcDbEntity
100
AcDbLine
  8
0
 62
256
370
-1
  6
CONTINUOUS
 10
1275.0
 20
1225.0
 30
0.0
 11
1270.0
 21
1225.0
 31
0.0
  0
LINE
  5
189
100
AcDbEntity
100
AcDbLine
  8
0
 62
256
370
-1
  6
CONTINUOUS
 10
1270.0
 20
1225.0
 30
0.0
 11
1270.0
 21
1400.0
 31
0.0
  0
LINE
  5
18A
100
AcDbEntity
100
AcDbLine
  8
0
 62
256
370
-1
  6
CONTINUOUS
 10
1280.0
 20
1400.0
 30
0.0
 11
1285.0
 21
1400.0
 31
0.0
  0
LINE
  5
18B
100
AcDbEntity
100
AcDbLine
  8
0
 62
256
370
-1
  6
CONTINUOUS
 10
1285.0
 20
1400.0
 30
0.0
 11
1285.0
 21
1225.0
 31
0.0
  0
LINE
  5
18C
100
AcDbEntity
100
AcDbLine
  8
0
 62
256
370
-1
  6
CONTINUOUS
 10
1285.0
 20
1225.0
 30
0.0
 11
1280.0
 21
1225.0
 31
0.0
  0
LINE
  5
18D
100
AcDbEntity
100
AcDbLine
  8
0
 62
256
370
-1
  6
CONTINUOUS
 10
1280.0
 20
1225.0
 30
0.0
 11
1280.0
 21
1400.0
 31
0.0
  0
LINE
  5
18E
100
AcDbEntity
100
AcDbLine
  8
0
 62
256
370
-1
  6
CONTINUOUS
 10
1290.0
 20
1400.0
 30
0.0
 11
1295.0
 21
1400.0
 31
0.0
  0
LINE
  5
18F
100
AcDbEntity
100
AcDbLine
  8
0
 62
256
370
-1
  6
CONTINUOUS
 10
1295.0
 20
1400.0
 30
0.0
 11
1295.0
 21
1225.0
 31
0.0
  0
LINE
  5
190
100
AcDbEntity
100
AcDbLine
  8
0
 62
256
370
-1
  6
CONTINUOUS
 10
1295.0
 20
1225.0
 30
0.0
 11
1290.0
 21
1225.0
 31
0.0
  0
LINE
  5
191
100
AcDbEntity
100
AcDbLine
  8
0
 62
256
370
-1
  6
CONTINUOUS
 10
1290.0
 20
1225.0
 30
0.0
 11
1290.0
 21
1400.0
 31
0.0
  0
LINE
  5
192
100
AcDbEntity
100
AcDbLine
  8
0
 62
256
370
-1
  6
CONTINUOUS
 10
1300.0
 20
1400.0
 30
0.0
 11
1300.0
 21
1225.0
 31
0.0
  0
LINE
  5
193
100
AcDbEntity
100
AcDbLine
  8
0
 62
256
370
-1
  6
CONTINUOUS
 10
1300.0
 20
1225.0
 30
0.0
 11
1305.0
 21
1225.0
 31
0.0
  0
LINE
  5
194
100
AcDbEntity
100
AcDbLine
  8
0
 62
256
370
-1
  6
CONTINUOUS
 10
1305.0
 20
1225.0
 30
0.0
 11
1305.0
 21
1400.0
 31
0.0
  0
LINE
  5
195
100
AcDbEntity
100
AcDbLine
  8
0
 62
256
370
-1
  6
CONTINUOUS
 10
1305.0
 20
1400.0
 30
0.0
 11
1300.0
 21
1400.0
 31
0.0
  0
LINE
  5
196
100
AcDbEntity
100
AcDbLine
  8
0
 62
256
370
-1
  6
CONTINUOUS
 10
1310.0
 20
1400.0
 30
0.0
 11
1310.0
 21
1225.0
 31
0.0
  0
LINE
  5
197
100
AcDbEntity
100
AcDbLine
  8
0
 62
256
370
-1
  6
CONTINUOUS
 10
1310.0
 20
1225.0
 30
0.0
 11
1315.0
 21
1225.0
 31
0.0
  0
LINE
  5
198
100
AcDbEntity
100
AcDbLine
  8
0
 62
256
370
-1
  6
CONTINUOUS
 10
1315.0
 20
1225.0
 30
0.0
 11
1315.0
 21
1400.0
 31
0.0
  0
LINE
  5
199
100
AcDbEntity
100
AcDbLine
  8
0
 62
256
370
-1
  6
CONTINUOUS
 10
1315.0
 20
1400.0
 30
0.0
 11
1310.0
 21
1400.0
 31
0.0
  0
LINE
  5
19A
100
AcDbEntity
100
AcDbLine
  8
0
 62
256
370
-1
  6
CONTINUOUS
 10
1320.0
 20
1400.0
 30
0.0
 11
1325.0
 21
1400.0
 31
0.0
  0
LINE
  5
19B
100
AcDbEntity
100
AcDbLine
  8
0
 62
256
370
-1
  6
CONTINUOUS
 10
1325.0
 20
1400.0
 30
0.0
 11
1325.0
 21
1225.0
 31
0.0
  0
LINE
  5
19C
100
AcDbEntity
100
AcDbLine
  8
0
 62
256
370
-1
  6
CONTINUOUS
 10
1325.0
 20
1225.0
 30
0.0
 11
1320.0
 21
1225.0
 31
0.0
  0
LINE
  5
19D
100
AcDbEntity
100
AcDbLine
  8
0
 62
256
370
-1
  6
CONTINUOUS
 10
1320.0
 20
1225.0
 30
0.0
 11
1320.0
 21
1400.0
 31
0.0
  0
LINE
  5
19E
100
AcDbEntity
100
AcDbLine
  8
0
 62
256
370
-1
  6
CONTINUOUS
 10
1330.0
 20
1400.0
 30
0.0
 11
1335.0
 21
1400.0
 31
0.0
  0
LINE
  5
19F
100
AcDbEntity
100
AcDbLine
  8
0
 62
256
370
-1
  6
CONTINUOUS
 10
1335.0
 20
1400.0
 30
0.0
 11
1335.0
 21
1225.0
 31
0.0
  0
LINE
  5
1A0
100
AcDbEntity
100
AcDbLine
  8
0
 62
256
370
-1
  6
CONTINUOUS
 10
1335.0
 20
1225.0
 30
0.0
 11
1330.0
 21
1225.0
 31
0.0
  0
LINE
  5
1A1
100
AcDbEntity
100
AcDbLine
  8
0
 62
256
370
-1
  6
CONTINUOUS
 10
1330.0
 20
1225.0
 30
0.0
 11
1330.0
 21
1400.0
 31
0.0
  0
LINE
  5
1A2
100
AcDbEntity
100
AcDbLine
  8
0
 62
256
370
-1
  6
CONTINUOUS
 10
1340.0
 20
1400.0
 30
0.0
 11
1345.0
 21
1400.0
 31
0.0
  0
LINE
  5
1A3
100
AcDbEntity
100
AcDbLine
  8
0
 62
256
370
-1
  6
CONTINUOUS
 10
1345.0
 20
1400.0
 30
0.0
 11
1345.0
 21
1225.0
 31
0.0
  0
LINE
  5
1A4
100
AcDbEntity
100
AcDbLine
  8
0
 62
256
370
-1
  6
CONTINUOUS
 10
1345.0
 20
1225.0
 30
0.0
 11
1340.0
 21
1225.0
 31
0.0
  0
LINE
  5
1A5
100
AcDbEntity
100
AcDbLine
  8
0
 62
256
370
-1
  6
CONTINUOUS
 10
1340.0
 20
1225.0
 30
0.0
 11
1340.0
 21
1400.0
 31
0.0
  0
LINE
  5
1A6
100
AcDbEntity
100
AcDbLine
  8
0
 62
256
370
-1
  6
CONTINUOUS
 10
1350.0
 20
1400.0
 30
0.0
 11
1355.0
 21
1400.0
 31
0.0
  0
LINE
  5
1A7
100
AcDbEntity
100
AcDbLine
  8
0
 62
256
370
-1
  6
CONTINUOUS
 10
1355.0
 20
1400.0
 30
0.0
 11
1355.0
 21
1225.0
 31
0.0
  0
LINE
  5
1A8
100
AcDbEntity
100
AcDbLine
  8
0
 62
256
370
-1
  6
CONTINUOUS
 10
1355.0
 20
1225.0
 30
0.0
 11
1350.0
 21
1225.0
 31
0.0
  0
LINE
  5
1A9
100
AcDbEntity
100
AcDbLine
  8
0
 62
256
370
-1
  6
CONTINUOUS
 10
1350.0
 20
1225.0
 30
0.0
 11
1350.0
 21
1400.0
 31
0.0
  0
LINE
  5
1AA
100
AcDbEntity
100
AcDbLine
  8
0
 62
256
370
-1
  6
CONTINUOUS
 10
1360.0
 20
1400.0
 30
0.0
 11
1365.0
 21
1400.0
 31
0.0
  0
LINE
  5
1AB
100
AcDbEntity
100
AcDbLine
  8
0
 62
256
370
-1
  6
CONTINUOUS
 10
1365.0
 20
1400.0
 30
0.0
 11
1365.0
 21
1225.0
 31
0.0
  0
LINE
  5
1AC
100
AcDbEntity
100
AcDbLine
  8
0
 62
256
370
-1
  6
CONTINUOUS
 10
1365.0
 20
1225.0
 30
0.0
 11
1360.0
 21
1225.0
 31
0.0
  0
LINE
  5
1AD
100
AcDbEntity
100
AcDbLine
  8
0
 62
256
370
-1
  6
CONTINUOUS
 10
1360.0
 20
1225.0
 30
0.0
 11
1360.0
 21
1400.0
 31
0.0
  0
LINE
  5
1AE
100
AcDbEntity
100
AcDbLine
  8
0
 62
256
370
-1
  6
CONTINUOUS
 10
1370.0
 20
1400.0
 30
0.0
 11
1375.0
 21
1400.0
 31
0.0
  0
LINE
  5
1AF
100
AcDbEntity
100
AcDbLine
  8
0
 62
256
370
-1
  6
CONTINUOUS
 10
1375.0
 20
1400.0
 30
0.0
 11
1375.0
 21
1225.0
 31
0.0
  0
LINE
  5
1B0
100
AcDbEntity
100
AcDbLine
  8
0
 62
256
370
-1
  6
CONTINUOUS
 10
1375.0
 20
1225.0
 30
0.0
 11
1370.0
 21
1225.0
 31
0.0
  0
LINE
  5
1B1
100
AcDbEntity
100
AcDbLine
  8
0
 62
256
370
-1
  6
CONTINUOUS
 10
1370.0
 20
1225.0
 30
0.0
 11
1370.0
 21
1400.0
 31
0.0
  0
LINE
  5
1B2
100
AcDbEntity
100
AcDbLine
  8
0
 62
256
370
-1
  6
CONTINUOUS
 10
1380.0
 20
1400.0
 30
0.0
 11
1385.0
 21
1400.0
 31
0.0
  0
LINE
  5
1B3
100
AcDbEntity
100
AcDbLine
  8
0
 62
256
370
-1
  6
CONTINUOUS
 10
1385.0
 20
1400.0
 30
0.0
 11
1385.0
 21
1225.0
 31
0.0
  0
LINE
  5
1B4
100
AcDbEntity
100
AcDbLine
  8
0
 62
256
370
-1
  6
CONTINUOUS
 10
1385.0
 20
1225.0
 30
0.0
 11
1380.0
 21
1225.0
 31
0.0
  0
LINE
  5
1B5
100
AcDbEntity
100
AcDbLine
  8
0
 62
256
370
-1
  6
CONTINUOUS
 10
1380.0
 20
1225.0
 30
0.0
 11
1380.0
 21
1400.0
 31
0.0
  0
LINE
  5
1B6
100
AcDbEntity
100
AcDbLine
  8
0
 62
256
370
-1
  6
CONTINUOUS
 10
1390.0
 20
1400.0
 30
0.0
 11
1390.0
 21
1225.0
 31
0.0
  0
LINE
  5
1B7
100
AcDbEntity
100
AcDbLine
  8
0
 62
256
370
-1
  6
CONTINUOUS
 10
1390.0
 20
1225.0
 30
0.0
 11
1395.0
 21
1225.0
 31
0.0
  0
LINE
  5
1B8
100
AcDbEntity
100
AcDbLine
  8
0
 62
256
370
-1
  6
CONTINUOUS
 10
1395.0
 20
1225.0
 30
0.0
 11
1395.0
 21
1400.0
 31
0.0
  0
LINE
  5
1B9
100
AcDbEntity
100
AcDbLine
  8
0
 62
256
370
-1
  6
CONTINUOUS
 10
1395.0
 20
1400.0
 30
0.0
 11
1390.0
 21
1400.0
 31
0.0
  0
LINE
  5
1BA
100
AcDbEntity
100
AcDbLine
  8
0
 62
256
370
-1
  6
CONTINUOUS
 10
1400.0
 20
1400.0
 30
0.0
 11
1400.0
 21
1225.0
 31
0.0
  0
LINE
  5
1BB
100
AcDbEntity
100
AcDbLine
  8
0
 62
256
370
-1
  6
CONTINUOUS
 10
1400.0
 20
1225.0
 30
0.0
 11
1405.0
 21
1225.0
 31
0.0
  0
LINE
  5
1BC
100
AcDbEntity
100
AcDbLine
  8
0
 62
256
370
-1
  6
CONTINUOUS
 10
1405.0
 20
1225.0
 30
0.0
 11
1405.0
 21
1400.0
 31
0.0
  0
LINE
  5
1BD
100
AcDbEntity
100
AcDbLine
  8
0
 62
256
370
-1
  6
CONTINUOUS
 10
1405.0
 20
1400.0
 30
0.0
 11
1400.0
 21
1400.0
 31
0.0
  0
MTEXT
  5
1BE
100
AcDbEntity
100
AcDbMText
  8
Filled mask
 62
256
370
-1
  6
CONTINUOUS
 10
1120.0
 20
1200.0
 30
0.0
 40
35.0
 41
100.0
 71
1
 72
0
  1
5\~um\~lines
  7
standard
 50
0.0
 73
1
 44
1.0
  0
LINE
  5
1BF
100
AcDbEntity
100
AcDbLine
  8
0
 62
256
370
-1
  6
ByLayer
 10
75.0
 20
1210.0
 30
0.0
 11
80.0
 21
1210.0
 31
0.0
  0
LINE
  5
1C0
100
AcDbEntity
100
AcDbLine
  8
0
 62
256
370
-1
  6
ByLayer
 10
90.0
 20
1210.0
 30
0.0
 11
100.0
 21
1210.0
 31
0.0
  0
LINE
  5
1C1
100
AcDbEntity
100
AcDbLine
  8
0
 62
256
370
-1
  6
ByLayer
 10
110.0
 20
1210.0
 30
0.0
 11
125.0
 21
1210.0
 31
0.0
  0
LINE
  5
1C2
100
AcDbEntity
100
AcDbLine
  8
0
 62
256
370
-1
  6
ByLayer
 10
135.0
 20
1210.0
 30
0.0
 11
155.0
 21
1210.0
 31
0.0
  0
LINE
  5
1C3
100
AcDbEntity
100
AcDbLine
  8
0
 62
256
370
-1
  6
ByLayer
 10
80.0
 20
1355.0
 30
0.0
 11
75.0
 21
1355.0
 31
0.0
  0
LINE
  5
1C4
100
AcDbEntity
100
AcDbLine
  8
0
 62
256
370
-1
  6
ByLayer
 10
100.0
 20
1355.0
 30
0.0
 11
90.0
 21
1355.0
 31
0.0
  0
LINE
  5
1C5
100
AcDbEntity
100
AcDbLine
  8
0
 62
256
370
-1
  6
ByLayer
 10
125.0
 20
1355.0
 30
0.0
 11
110.0
 21
1355.0
 31
0.0
  0
LINE
  5
1C6
100
AcDbEntity
100
AcDbLine
  8
0
 62
256
370
-1
  6
ByLayer
 10
155.0
 20
1355.0
 30
0.0
 11
135.0
 21
1355.0
 31
0.0
  0
LINE
  5
1C7
100
AcDbEntity
100
AcDbLine
  8
0
 62
256
370
-1
  6
ByLayer
 10
80.0
 20
1210.0
 30
0.0
 11
80.0
 21
1355.0
 31
0.0
  0
LINE
  5
1C8
100
AcDbEntity
100
AcDbLine
  8
0
 62
256
370
-1
  6
ByLayer
 10
75.0
 20
1355.0
 30
0.0
 11
75.0
 21
1210.0
 31
0.0
  0
LINE
  5
1C9
100
AcDbEntity
100
AcDbLine
  8
0
 62
256
370
-1
  6
ByLayer
 10
90.0
 20
1355.0
 30
0.0
 11
90.0
 21
1210.0
 31
0.0
  0
LINE
  5
1CA
100
AcDbEntity
100
AcDbLine
  8
0
 62
256
370
-1
  6
ByLayer
 10
110.0
 20
1355.0
 30
0.0
 11
110.0
 21
1210.0
 31
0.0
  0
LINE
  5
1CB
100
AcDbEntity
100
AcDbLine
  8
0
 62
256
370
-1
  6
ByLayer
 10
100.0
 20
1210.0
 30
0.0
 11
100.0
 21
1355.0
 31
0.0
  0
LINE
  5
1CC
100
AcDbEntity
100
AcDbLine
  8
0
 62
256
370
-1
  6
ByLayer
 10
125.0
 20
1210.0
 30
0.0
 11
125.0
 21
1355.0
 31
0.0
  0
LINE
  5
1CD
100
AcDbEntity
100
AcDbLine
  8
0
 62
256
370
-1
  6
ByLayer
 10
135.0
 20
1355.0
 30
0.0
 11
135.0
 21
1210.0
 31
0.0
  0
LINE
  5
1CE
100
AcDbEntity
100
AcDbLine
  8
0
 62
256
370
-1
  6
ByLayer
 10
155.0
 20
1210.0
 30
0.0
 11
155.0
 21
1355.0
 31
0.0
  0
MTEXT
  5
1CF
100
AcDbEntity
100
AcDbMText
  8
Filled mask
 62
256
370
-1
  6
CONTINUOUS
 10
50.0
 20
1195.0
 30
0.0
 40
35.0
 41
100.0
 71
1
 72
0
  1
5-50\~um\~by\~5\~um
  7
standard
 50
0.0
 73
1
 44
1.0
  0
LINE
  5
1D0
100
AcDbEntity
100
AcDbLine
  8
0
 62
256
370
-1
  6
CONTINUOUS
 10
65.0
 20
200.0
 30
0.0
 11
65.0
 21
365.0
 31
0.0
  0
MTEXT
  5
1D1
100
AcDbEntity
100
AcDbMText
  8
Filled mask
 62
256
370
-1
  6
CONTINUOUS
 10
50.0
 20
180.0
 30
0.0
 40
35.0
 41
100.0
 71
1
 72
0
  1
5-50\~um\~by\~5\~um
  7
standard
 50
0.0
 73
1
 44
1.0
  0
LINE
  5
1D2
100
AcDbEntity
100
AcDbLine
  8
Unused
 62
256
370
-1
  6
CONTINUOUS
 10
0.0
 20
1500.0
 30
0.0
 11
500.0
 21
1500.0
 31
0.0
  0
LINE
  5
1D3
100
AcDbEntity
100
AcDbLine
  8
Unused
 62
256
370
-1
  6
CONTINUOUS
 10
500.0
 20
1500.0
 30
0.0
 11
500.0
 21
1000.0
 31
0.0
  0
LINE
  5
1D4
100
AcDbEntity
100
AcDbLine
  8
Unused
 62
256
370
-1
  6
CONTINUOUS
 10
500.0
 20
1000.0
 30
0.0
 11
0.0
 21
1000.0
 31
0.0
  0
LINE
  5
1D5
100
AcDbEntity
100
AcDbLine
  8
Unused
 62
256
370
-1
  6
CONTINUOUS
 10
0.0
 20
1000.0
 30
0.0
 11
0.0
 21
1500.0
 31
0.0
  0
LINE
  5
1D6
100
AcDbEntity
100
AcDbLine
  8
Unused
 62
256
370
-1
  6
CONTINUOUS
 10
1000.0
 20
1500.0
 30
0.0
 11
1500.0
 21
1500.0
 31
0.0
  0
LINE
  5
1D7
100
AcDbEntity
100
AcDbLine
  8
Unused
 62
256
370
-1
  6
CONTINUOUS
 10
1500.0
 20
1500.0
 30
0.0
 11
1500.0
 21
1000.0
 31
0.0
  0
LINE
  5
1D8
100
AcDbEntity
100
AcDbLine
  8
Unused
 62
256
370
-1
  6
CONTINUOUS
 10
1500.0
 20
1000.0
 30
0.0
 11
1000.0
 21
1000.0
 31
0.0
  0
LINE
  5
1D9
100
AcDbEntity
100
AcDbLine
  8
Unused
 62
256
370
-1
  6
CONTINUOUS
 10
1000.0
 20
1000.0
 30
0.0
 11
1000.0
 21
1500.0
 31
0.0
  0
LINE
  5
1DA
100
AcDbEntity
100
AcDbLine
  8
Unused
 62
256
370
-1
  6
CONTINUOUS
 10
2000.0
 20
1500.0
 30
0.0
 11
2500.0
 21
1500.0
 31
0.0
  0
LINE
  5
1DB
100
AcDbEntity
100
AcDbLine
  8
Unused
 62
256
370
-1
  6
CONTINUOUS
 10
2500.0
 20
1500.0
 30
0.0
 11
2500.0
 21
1000.0
 31
0.0
  0
LINE
  5
1DC
100
AcDbEntity
100
AcDbLine
  8
Unused
 62
256
370
-1
  6
CONTINUOUS
 10
2500.0
 20
1000.0
 30
0.0
 11
2000.0
 21
1000.0
 31
0.0
  0
LINE
  5
1DD
100
AcDbEntity
100
AcDbLine
  8
Unused
 62
256
370
-1
  6
CONTINUOUS
 10
2000.0
 20
1000.0
 30
0.0
 11
2000.0
 21
1500.0
 31
0.0
  0
LINE
  5
1DE
100
AcDbEntity
100
AcDbLine
  8
Unused
 62
256
370
-1
  6
CONTINUOUS
 10
2000.0
 20
500.0
 30
0.0
 11
2500.0
 21
500.0
 31
0.0
  0
LINE
  5
1DF
100
AcDbEntity
100
AcDbLine
  8
Unused
 62
256
370
-1
  6
CONTINUOUS
 10
2500.0
 20
500.0
 30
0.0
 11
2500.0
 21
0.0
 31
0.0
  0
LINE
  5
1E0
100
AcDbEntity
100
AcDbLine
  8
Unused
 62
256
370
-1
  6
CONTINUOUS
 10
2500.0
 20
0.0
 30
0.0
 11
2000.0
 21
0.0
 31
0.0
  0
LINE
  5
1E1
100
AcDbEntity
100
AcDbLine
  8
Unused
 62
256
370
-1
  6
CONTINUOUS
 10
2000.0
 20
0.0
 30
0.0
 11
2000.0
 21
500.0
 31
0.0
  0
LINE
  5
1E2
100
AcDbEntity
100
AcDbLine
  8
Unused
 62
256
370
-1
  6
CONTINUOUS
 10
1500.0
 20
500.0
 30
0.0
 11
1000.0
 21
500.0
 31
0.0
  0
LINE
  5
1E3
100
AcDbEntity
100
AcDbLine
  8
Unused
 62
256
370
-1
  6
CONTINUOUS
 10
1000.0
 20
500.0
 30
0.0
 11
1000.0
 21
0.0
 31
0.0
  0
LINE
  5
1E4
100
AcDbEntity
100
AcDbLine
  8
Unused
 62
256
370
-1
  6
CONTINUOUS
 10
1000.0
 20
0.0
 30
0.0
 11
1500.0
 21
0.0
 31
0.0
  0
LINE
  5
1E5
100
AcDbEntity
100
AcDbLine
  8
Unused
 62
256
370
-1
  6
CONTINUOUS
 10
1500.0
 20
0.0
 30
0.0
 11
1500.0
 21
500.0
 31
0.0
  0
LINE
  5
1E6
100
AcDbEntity
100
AcDbLine
  8
Unused
 62
256
370
-1
  6
CONTINUOUS
 10
500.0
 20
500.0
 30
0.0
 11
0.0
 21
500.0
 31
0.0
  0
LINE
  5
1E7
100
AcDbEntity
100
AcDbLine
  8
Unused
 62
256
370
-1
  6
CONTINUOUS
 10
0.0
 20
500.0
 30
0.0
 11
0.0
 21
0.0
 31
0.0
  0
LINE
  5
1E8
100
AcDbEntity
100
AcDbLine
  8
Unused
 62
256
370
-1
  6
CONTINUOUS
 10
0.0
 20
0.0
 30
0.0
 11
500.0
 21
0.0
 31
0.0
  0
LINE
  5
1E9
100
AcDbEntity
100
AcDbLine
  8
Unused
 62
256
370
-1
  6
CONTINUOUS
 10
500.0
 20
0.0
 30
0.0
 11
500.0
 21
500.0
 31
0.0
  0
LINE
  5
1EA
100
AcDbEntity
100
AcDbLine
  8
0
 62
256
370
-1
  6
ByLayer
 10
165.0
 20
1210.0
 30
0.0
 11
190.0
 21
1210.0
 31
0.0
  0
LINE
  5
1EB
100
AcDbEntity
100
AcDbLine
  8
0
 62
256
370
-1
  6
ByLayer
 10
200.0
 20
1210.0
 30
0.0
 11
230.0
 21
1210.0
 31
0.0
  0
LINE
  5
1EC
100
AcDbEntity
100
AcDbLine
  8
0
 62
256
370
-1
  6
ByLayer
 10
240.0
 20
1210.0
 30
0.0
 11
275.0
 21
1210.0
 31
0.0
  0
LINE
  5
1ED
100
AcDbEntity
100
AcDbLine
  8
0
 62
256
370
-1
  6
ByLayer
 10
285.0
 20
1210.0
 30
0.0
 11
325.0
 21
1210.0
 31
0.0
  0
LINE
  5
1EE
100
AcDbEntity
100
AcDbLine
  8
0
 62
256
370
-1
  6
ByLayer
 10
335.0
 20
1210.0
 30
0.0
 11
380.0
 21
1210.0
 31
0.0
  0
LINE
  5
1EF
100
AcDbEntity
100
AcDbLine
  8
0
 62
256
370
-1
  6
ByLayer
 10
390.0
 20
1210.0
 30
0.0
 11
440.0
 21
1210.0
 31
0.0
  0
LINE
  5
1F0
100
AcDbEntity
100
AcDbLine
  8
0
 62
256
370
-1
  6
ByLayer
 10
165.0
 20
1355.0
 30
0.0
 11
190.0
 21
1355.0
 31
0.0
  0
LINE
  5
1F1
100
AcDbEntity
100
AcDbLine
  8
0
 62
256
370
-1
  6
ByLayer
 10
230.0
 20
1355.0
 30
0.0
 11
200.0
 21
1355.0
 31
0.0
  0
LINE
  5
1F2
100
AcDbEntity
100
AcDbLine
  8
0
 62
256
370
-1
  6
ByLayer
 10
275.0
 20
1355.0
 30
0.0
 11
240.0
 21
1355.0
 31
0.0
  0
LINE
  5
1F3
100
AcDbEntity
100
AcDbLine
  8
0
 62
256
370
-1
  6
ByLayer
 10
325.0
 20
1355.0
 30
0.0
 11
285.0
 21
1355.0
 31
0.0
  0
LINE
  5
1F4
100
AcDbEntity
100
AcDbLine
  8
0
 62
256
370
-1
  6
ByLayer
 10
380.0
 20
1355.0
 30
0.0
 11
335.0
 21
1355.0
 31
0.0
  0
LINE
  5
1F5
100
AcDbEntity
100
AcDbLine
  8
0
 62
256
370
-1
  6
ByLayer
 10
440.0
 20
1355.0
 30
0.0
 11
390.0
 21
1355.0
 31
0.0
  0
LINE
  5
1F6
100
AcDbEntity
100
AcDbLine
  8
0
 62
256
370
-1
  6
ByLayer
 10
440.0
 20
1210.0
 30
0.0
 11
440.0
 21
1355.0
 31
0.0
  0
LINE
  5
1F7
100
AcDbEntity
100
AcDbLine
  8
0
 62
256
370
-1
  6
ByLayer
 10
390.0
 20
1355.0
 30
0.0
 11
390.0
 21
1210.0
 31
0.0
  0
LINE
  5
1F8
100
AcDbEntity
100
AcDbLine
  8
0
 62
256
370
-1
  6
ByLayer
 10
380.0
 20
1210.0
 30
0.0
 11
380.0
 21
1355.0
 31
0.0
  0
LINE
  5
1F9
100
AcDbEntity
100
AcDbLine
  8
0
 62
256
370
-1
  6
ByLayer
 10
335.0
 20
1355.0
 30
0.0
 11
335.0
 21
1210.0
 31
0.0
  0
LINE
  5
1FA
100
AcDbEntity
100
AcDbLine
  8
0
 62
256
370
-1
  6
ByLayer
 10
325.0
 20
1210.0
 30
0.0
 11
325.0
 21
1355.0
 31
0.0
  0
LINE
  5
1FB
100
AcDbEntity
100
AcDbLine
  8
0
 62
256
370
-1
  6
ByLayer
 10
285.0
 20
1355.0
 30
0.0
 11
285.0
 21
1210.0
 31
0.0
  0
LINE
  5
1FC
100
AcDbEntity
100
AcDbLine
  8
0
 62
256
370
-1
  6
ByLayer
 10
275.0
 20
1210.0
 30
0.0
 11
275.0
 21
1355.0
 31
0.0
  0
LINE
  5
1FD
100
AcDbEntity
100
AcDbLine
  8
0
 62
256
370
-1
  6
ByLayer
 10
240.0
 20
1355.0
 30
0.0
 11
240.0
 21
1210.0
 31
0.0
  0
LINE
  5
1FE
100
AcDbEntity
100
AcDbLine
  8
0
 62
256
370
-1
  6
ByLayer
 10
230.0
 20
1210.0
 30
0.0
 11
230.0
 21
1355.0
 31
0.0
  0
LINE
  5
1FF
100
AcDbEntity
100
AcDbLine
  8
0
 62
256
370
-1
  6
ByLayer
 10
200.0
 20
1355.0
 30
0.0
 11
200.0
 21
1210.0
 31
0.0
  0
LINE
  5
200
100
AcDbEntity
100
AcDbLine
  8
0
 62
256
370
-1
  6
ByLayer
 10
190.0
 20
1210.0
 30
0.0
 11
190.0
 21
1355.0
 31
0.0
  0
LINE
  5
201
100
AcDbEntity
100
AcDbLine
  8
0
 62
256
370
-1
  6
ByLayer
 10
165.0
 20
1355.0
 30
0.0
 11
165.0
 21
1210.0
 31
0.0
  0
LINE
  5
202
100
AcDbEntity
100
AcDbLine
  8
0
 62
256
370
-1
  6
ByLayer
 10
165.0
 20
210.0
 30
0.0
 11
190.0
 21
210.0
 31
0.0
  0
LINE
  5
203
100
AcDbEntity
100
AcDbLine
  8
0
 62
256
370
-1
  6
ByLayer
 10
200.0
 20
210.0
 30
0.0
 11
230.0
 21
210.0
 31
0.0
  0
LINE
  5
204
100
AcDbEntity
100
AcDbLine
  8
0
 62
256
370
-1
  6
ByLayer
 10
240.0
 20
210.0
 30
0.0
 11
275.0
 21
210.0
 31
0.0
  0
LINE
  5
205
100
AcDbEntity
100
AcDbLine
  8
0
 62
256
370
-1
  6
ByLayer
 10
285.0
 20
210.0
 30
0.0
 11
325.0
 21
210.0
 31
0.0
  0
LINE
  5
206
100
AcDbEntity
100
AcDbLine
  8
0
 62
256
370
-1
  6
ByLayer
 10
335.0
 20
210.0
 30
0.0
 11
380.0
 21
210.0
 31
0.0
  0
LINE
  5
207
100
AcDbEntity
100
AcDbLine
  8
0
 62
256
370
-1
  6
ByLayer
 10
390.0
 20
210.0
 30
0.0
 11
440.0
 21
210.0
 31
0.0
  0
LINE
  5
208
100
AcDbEntity
100
AcDbLine
  8
0
 62
256
370
-1
  6
ByLayer
 10
165.0
 20
355.0
 30
0.0
 11
190.0
 21
355.0
 31
0.0
  0
LINE
  5
209
100
AcDbEntity
100
AcDbLine
  8
0
 62
256
370
-1
  6
ByLayer
 10
230.0
 20
355.0
 30
0.0
 11
200.0
 21
355.0
 31
0.0
  0
LINE
  5
20A
100
AcDbEntity
100
AcDbLine
  8
0
 62
256
370
-1
  6
ByLayer
 10
275.0
 20
355.0
 30
0.0
 11
240.0
 21
355.0
 31
0.0
  0
LINE
  5
20B
100
AcDbEntity
100
AcDbLine
  8
0
 62
256
370
-1
  6
ByLayer
 10
325.0
 20
355.0
 30
0.0
 11
285.0
 21
355.0
 31
0.0
  0
LINE
  5
20C
100
AcDbEntity
100
AcDbLine
  8
0
 62
256
370
-1
  6
ByLayer
 10
380.0
 20
355.0
 30
0.0
 11
335.0
 21
355.0
 31
0.0
  0
LINE
  5
20D
100
AcDbEntity
100
AcDbLine
  8
0
 62
256
370
-1
  6
ByLayer
 10
440.0
 20
355.0
 30
0.0
 11
390.0
 21
355.0
 31
0.0
  0
LINE
  5
20E
100
AcDbEntity
100
AcDbLine
  8
0
 62
256
370
-1
  6
ByLayer
 10
440.0
 20
210.0
 30
0.0
 11
440.0
 21
355.0
 31
0.0
  0
LINE
  5
20F
100
AcDbEntity
100
AcDbLine
  8
0
 62
256
370
-1
  6
ByLayer
 10
390.0
 20
355.0
 30
0.0
 11
390.0
 21
210.0
 31
0.0
  0
LINE
  5
210
100
AcDbEntity
100
AcDbLine
  8
0
 62
256
370
-1
  6
ByLayer
 10
380.0
 20
210.0
 30
0.0
 11
380.0
 21
355.0
 31
0.0
  0
LINE
  5
211
100
AcDbEntity
100
AcDbLine
  8
0
 62
256
370
-1
  6
ByLayer
 10
335.0
 20
355.0
 30
0.0
 11
335.0
 21
210.0
 31
0.0
  0
LINE
  5
212
100
AcDbEntity
100
AcDbLine
  8
0
 62
256
370
-1
  6
ByLayer
 10
285.0
 20
355.0
 30
0.0
 11
285.0
 21
210.0
 31
0.0
  0
LINE
  5
213
100
AcDbEntity
100
AcDbLine
  8
0
 62
256
370
-1
  6
ByLayer
 10
275.0
 20
210.0
 30
0.0
 11
275.0
 21
355.0
 31
0.0
  0
LINE
  5
214
100
AcDbEntity
100
AcDbLine
  8
0
 62
256
370
-1
  6
ByLayer
 10
240.0
 20
355.0
 30
0.0
 11
240.0
 21
210.0
 31
0.0
  0
LINE
  5
215
100
AcDbEntity
100
AcDbLine
  8
0
 62
256
370
-1
  6
ByLayer
 10
230.0
 20
210.0
 30
0.0
 11
230.0
 21
355.0
 31
0.0
  0
LINE
  5
216
100
AcDbEntity
100
AcDbLine
  8
0
 62
256
370
-1
  6
ByLayer
 10
200.0
 20
355.0
 30
0.0
 11
200.0
 21
210.0
 31
0.0
  0
LINE
  5
217
100
AcDbEntity
100
AcDbLine
  8
0
 62
256
370
-1
  6
ByLayer
 10
190.0
 20
210.0
 30
0.0
 11
190.0
 21
355.0
 31
0.0
  0
LINE
  5
218
100
AcDbEntity
100
AcDbLine
  8
0
 62
256
370
-1
  6
ByLayer
 10
165.0
 20
355.0
 30
0.0
 11
165.0
 21
210.0
 31
0.0
  0
LINE
  5
219
100
AcDbEntity
100
AcDbLine
  8
0
 62
256
370
-1
  6
CONTINUOUS
 10
325.0
 20
355.0
 30
0.0
 11
325.0
 21
210.0
 31
0.0
  0
LINE
  5
21A
100
AcDbEntity
100
AcDbLine
  8
0
 62
256
370
-1
  6
CONTINUOUS
 10
65.0
 20
365.0
 30
0.0
 11
450.0
 21
365.0
 31
0.0
  0
LINE
  5
21B
100
AcDbEntity
100
AcDbLine
  8
0
 62
256
370
-1
  6
CONTINUOUS
 10
450.0
 20
200.0
 30
0.0
 11
65.0
 21
200.0
 31
0.0
  0
LINE
  5
21C
100
AcDbEntity
100
AcDbLine
  8
0
 62
256
370
-1
  6
CONTINUOUS
 10
450.0
 20
365.0
 30
0.0
 11
450.0
 21
200.0
 31
0.0
  0
LINE
  5
21D
100
AcDbEntity
100
AcDbLine
  8
0
 62
256
370
-1
  6
ByLayer
 10
0.0
 20
2500.0
 30
0.0
 11
500.0
 21
2500.0
 31
0.0
  0
LINE
  5
21E
100
AcDbEntity
100
AcDbLine
  8
0
 62
256
370
-1
  6
ByLayer
 10
500.0
 20
2500.0
 30
0.0
 11
500.0
 21
2000.0
 31
0.0
  0
LINE
  5
21F
100
AcDbEntity
100
AcDbLine
  8
0
 62
256
370
-1
  6
ByLayer
 10
500.0
 20
2000.0
 30
0.0
 11
0.0
 21
2000.0
 31
0.0
  0
LINE
  5
220
100
AcDbEntity
100
AcDbLine
  8
0
 62
256
370
-1
  6
ByLayer
 10
0.0
 20
2000.0
 30
0.0
 11
0.0
 21
2500.0
 31
0.0
  0
LINE
  5
221
100
AcDbEntity
100
AcDbLine
  8
0
 62
256
370
-1
  6
ByLayer
 10
1000.0
 20
2500.0
 30
0.0
 11
1000.0
 21
2000.0
 31
0.0
  0
LINE
  5
222
100
AcDbEntity
100
AcDbLine
  8
0
 62
256
370
-1
  6
ByLayer
 10
1000.0
 20
2000.0
 30
0.0
 11
1500.0
 21
2000.0
 31
0.0
  0
LINE
  5
223
100
AcDbEntity
100
AcDbLine
  8
0
 62
256
370
-1
  6
ByLayer
 10
1500.0
 20
2000.0
 30
0.0
 11
1500.0
 21
2500.0
 31
0.0
  0
LINE
  5
224
100
AcDbEntity
100
AcDbLine
  8
0
 62
256
370
-1
  6
ByLayer
 10
1500.0
 20
2500.0
 30
0.0
 11
1000.0
 21
2500.0
 31
0.0
  0
CIRCLE
  5
225
100
AcDbEntity
100
AcDbCircle
  8
0
 62
256
370
-1
  6
ByLayer
 10
250.0
 20
2250.0
 30
0.0
 40
250.0
  0
CIRCLE
  5
226
100
AcDbEntity
100
AcDbCircle
  8
0
 62
256
370
-1
  6
ByLayer
 10
1250.0
 20
2250.0
 30
0.0
 40
250.0
  0
LINE
  5
227
100
AcDbEntity
100
AcDbLine
  8
0
 62
256
370
-1
  6
ByLayer
 10
2000.0
 20
2500.0
 30
0.0
 11
2000.0
 21
2000.0
 31
0.0
  0
LINE
  5
228
100
AcDbEntity
100
AcDbLine
  8
0
 62
256
370
-1
  6
ByLayer
 10
2000.0
 20
2000.0
 30
0.0
 11
2500.0
 21
2000.0
 31
0.0
  0
LINE
  5
229
100
AcDbEntity
100
AcDbLine
  8
0
 62
256
370
-1
  6
ByLayer
 10
2500.0
 20
2000.0
 30
0.0
 11
2500.0
 21
2500.0
 31
0.0
  0
LINE
  5
22A
100
AcDbEntity
100
AcDbLine
  8
0
 62
256
370
-1
  6
ByLayer
 10
2500.0
 20
2500.0
 30
0.0
 11
2000.0
 21
2500.0
 31
0.0
  0
CIRCLE
  5
22B
100
AcDbEntity
100
AcDbCircle
  8
0
 62
256
370
-1
  6
ByLayer
 10
2250.0
 20
2250.0
 30
0.0
 40
250.0
  0
LINE
  5
22C
100
AcDbEntity
100
AcDbLine
  8
Unused
 62
256
370
-1
  6
ByLayer
 10
0.0
 20
2500.0
 30
0.0
 11
500.0
 21
2500.0
 31
0.0
  0
LINE
  5
22D
100
AcDbEntity
100
AcDbLine
  8
Unused
 62
256
370
-1
  6
ByLayer
 10
500.0
 20
2500.0
 30
0.0
 11
500.0
 21
2000.0
 31
0.0
  0
LINE
  5
22E
100
AcDbEntity
100
AcDbLine
  8
Unused
 62
256
370
-1
  6
ByLayer
 10
500.0
 20
2000.0
 30
0.0
 11
0.0
 21
2000.0
 31
0.0
  0
LINE
  5
22F
100
AcDbEntity
100
AcDbLine
  8
Unused
 62
256
370
-1
  6
ByLayer
 10
0.0
 20
2000.0
 30
0.0
 11
0.0
 21
2500.0
 31
0.0
  0
LINE
  5
230
100
AcDbEntity
100
AcDbLine
  8
Unused
 62
256
370
-1
  6
ByLayer
 10
1000.0
 20
2500.0
 30
0.0
 11
1500.0
 21
2500.0
 31
0.0
  0
LINE
  5
231
100
AcDbEntity
100
AcDbLine
  8
Unused
 62
256
370
-1
  6
ByLayer
 10
1500.0
 20
2500.0
 30
0.0
 11
1500.0
 21
2000.0
 31
0.0
  0
LINE
  5
232
100
AcDbEntity
100
AcDbLine
  8
Unused
 62
256
370
-1
  6
ByLayer
 10
1500.0
 20
2000.0
 30
0.0
 11
1000.0
 21
2000.0
 31
0.0
  0
LINE
  5
233
100
AcDbEntity
100
AcDbLine
  8
Unused
 62
256
370
-1
  6
ByLayer
 10
1000.0
 20
2000.0
 30
0.0
 11
1000.0
 21
2500.0
 31
0.0
  0
LINE
  5
234
100
AcDbEntity
100
AcDbLine
  8
Unused
 62
256
370
-1
  6
ByLayer
 10
2000.0
 20
2500.0
 30
0.0
 11
2500.0
 21
2500.0
 31
0.0
  0
LINE
  5
235
100
AcDbEntity
100
AcDbLine
  8
Unused
 62
256
370
-1
  6
ByLayer
 10
2500.0
 20
2500.0
 30
0.0
 11
2500.0
 21
2000.0
 31
0.0
  0
LINE
  5
236
100
AcDbEntity
100
AcDbLine
  8
Unused
 62
256
370
-1
  6
ByLayer
 10
2500.0
 20
2000.0
 30
0.0
 11
2000.0
 21
2000.0
 31
0.0
  0
LINE
  5
237
100
AcDbEntity
100
AcDbLine
  8
Unused
 62
256
370
-1
  6
ByLayer
 10
2000.0
 20
2000.0
 30
0.0
 11
2000.0
 21
2500.0
 31
0.0
  0
LINE
  5
238
100
AcDbEntity
100
AcDbLine
  8
Vernier 1
 62
256
370
-1
  6
ByLayer
 10
220.0
 20
2255.0
 30
0.0
 11
245.0
 21
2255.0
 31
0.0
  0
LINE
  5
239
100
AcDbEntity
100
AcDbLine
  8
Vernier 1
 62
256
370
-1
  6
ByLayer
 10
245.0
 20
2255.0
 30
0.0
 11
245.0
 21
2280.0
 31
0.0
  0
LINE
  5
23A
100
AcDbEntity
100
AcDbLine
  8
Vernier 1
 62
256
370
-1
  6
ByLayer
 10
260.0
 20
2280.0
 30
0.0
 11
260.0
 21
2255.0
 31
0.0
  0
LINE
  5
23B
100
AcDbEntity
100
AcDbLine
  8
Vernier 1
 62
256
370
-1
  6
ByLayer
 10
260.0
 20
2255.0
 30
0.0
 11
285.0
 21
2255.0
 31
0.0
  0
LINE
  5
23C
100
AcDbEntity
100
AcDbLine
  8
Vernier 1
 62
256
370
-1
  6
ByLayer
 10
285.0
 20
2240.0
 30
0.0
 11
260.0
 21
2240.0
 31
0.0
  0
LINE
  5
23D
100
AcDbEntity
100
AcDbLine
  8
Vernier 1
 62
256
370
-1
  6
ByLayer
 10
260.0
 20
2240.0
 30
0.0
 11
260.0
 21
2215.0
 31
0.0
  0
LINE
  5
23E
100
AcDbEntity
100
AcDbLine
  8
Vernier 1
 62
256
370
-1
  6
ByLayer
 10
245.0
 20
2215.0
 30
0.0
 11
245.0
 21
2240.0
 31
0.0
  0
LINE
  5
23F
100
AcDbEntity
100
AcDbLine
  8
Vernier 1
 62
256
370
-1
  6
ByLayer
 10
245.0
 20
2240.0
 30
0.0
 11
220.0
 21
2240.0
 31
0.0
  0
LINE
  5
240
100
AcDbEntity
100
AcDbLine
  8
Vernier 2
 62
256
370
-1
  6
ByLayer
 10
215.0
 20
2260.0
 30
0.0
 11
240.0
 21
2260.0
 31
0.0
  0
LINE
  5
241
100
AcDbEntity
100
AcDbLine
  8
Vernier 2
 62
256
370
-1
  6
ByLayer
 10
240.0
 20
2260.0
 30
0.0
 11
240.0
 21
2285.0
 31
0.0
  0
LINE
  5
242
100
AcDbEntity
100
AcDbLine
  8
Vernier 2
 62
256
370
-1
  6
ByLayer
 10
265.0
 20
2285.0
 30
0.0
 11
265.0
 21
2260.0
 31
0.0
  0
LINE
  5
243
100
AcDbEntity
100
AcDbLine
  8
Vernier 2
 62
256
370
-1
  6
ByLayer
 10
265.0
 20
2260.0
 30
0.0
 11
290.0
 21
2260.0
 31
0.0
  0
LINE
  5
244
100
AcDbEntity
100
AcDbLine
  8
Vernier 2
 62
256
370
-1
  6
ByLayer
 10
290.0
 20
2235.0
 30
0.0
 11
265.0
 21
2235.0
 31
0.0
  0
LINE
  5
245
100
AcDbEntity
100
AcDbLine
  8
Vernier 2
 62
256
370
-1
  6
ByLayer
 10
265.0
 20
2235.0
 30
0.0
 11
265.0
 21
2210.0
 31
0.0
  0
LINE
  5
246
100
AcDbEntity
100
AcDbLine
  8
Vernier 2
 62
256
370
-1
  6
ByLayer
 10
240.0
 20
2210.0
 30
0.0
 11
240.0
 21
2235.0
 31
0.0
  0
LINE
  5
247
100
AcDbEntity
100
AcDbLine
  8
Vernier 2
 62
256
370
-1
  6
ByLayer
 10
240.0
 20
2235.0
 30
0.0
 11
215.0
 21
2235.0
 31
0.0
  0
LINE
  5
248
100
AcDbEntity
100
AcDbLine
  8
Vernier 2
 62
256
370
-1
  6
ByLayer
 10
235.0
 20
2275.0
 30
0.0
 11
225.0
 21
2265.0
 31
0.0
  0
LINE
  5
249
100
AcDbEntity
100
AcDbLine
  8
Vernier 2
 62
256
370
-1
  6
ByLayer
 10
270.0
 20
2275.0
 30
0.0
 11
280.0
 21
2265.0
 31
0.0
  0
LINE
  5
24A
100
AcDbEntity
100
AcDbLine
  8
Vernier 2
 62
256
370
-1
  6
ByLayer
 10
280.0
 20
2230.0
 30
0.0
 11
270.0
 21
2220.0
 31
0.0
  0
LINE
  5
24B
100
AcDbEntity
100
AcDbLine
  8
Vernier 2
 62
256
370
-1
  6
ByLayer
 10
270.0
 20
2220.0
 30
0.0
 11
295.0
 21
2195.0
 31
0.0
  0
LINE
  5
24C
100
AcDbEntity
100
AcDbLine
  8
Vernier 2
 62
256
370
-1
  6
ByLayer
 10
295.0
 20
2195.0
 30
0.0
 11
305.0
 21
2205.0
 31
0.0
  0
LINE
  5
24D
100
AcDbEntity
100
AcDbLine
  8
Vernier 2
 62
256
370
-1
  6
ByLayer
 10
305.0
 20
2205.0
 30
0.0
 11
280.0
 21
2230.0
 31
0.0
  0
LINE
  5
24E
100
AcDbEntity
100
AcDbLine
  8
Vernier 2
 62
256
370
-1
  6
ByLayer
 10
225.0
 20
2230.0
 30
0.0
 11
235.0
 21
2220.0
 31
0.0
  0
LINE
  5
24F
100
AcDbEntity
100
AcDbLine
  8
Vernier 2
 62
256
370
-1
  6
ByLayer
 10
235.0
 20
2220.0
 30
0.0
 11
210.0
 21
2195.0
 31
0.0
  0
LINE
  5
250
100
AcDbEntity
100
AcDbLine
  8
Vernier 2
 62
256
370
-1
  6
ByLayer
 10
210.0
 20
2195.0
 30
0.0
 11
200.0
 21
2205.0
 31
0.0
  0
LINE
  5
251
100
AcDbEntity
100
AcDbLine
  8
Vernier 2
 62
256
370
-1
  6
ByLayer
 10
200.0
 20
2205.0
 30
0.0
 11
225.0
 21
2230.0
 31
0.0
  0
LINE
  5
252
100
AcDbEntity
100
AcDbLine
  8
Vernier 1
 62
256
370
-1
  6
ByLayer
 10
225.0
 20
2270.0
 30
0.0
 11
230.0
 21
2275.0
 31
0.0
  0
LINE
  5
253
100
AcDbEntity
100
AcDbLine
  8
Vernier 2
 62
256
370
-1
  6
ByLayer
 10
295.0
 20
2300.0
 30
0.0
 11
270.0
 21
2275.0
 31
0.0
  0
LINE
  5
254
100
AcDbEntity
100
AcDbLine
  8
Vernier 2
 62
256
370
-1
  6
ByLayer
 10
305.0
 20
2290.0
 30
0.0
 11
295.0
 21
2300.0
 31
0.0
  0
LINE
  5
255
100
AcDbEntity
100
AcDbLine
  8
Vernier 2
 62
256
370
-1
  6
ByLayer
 10
280.0
 20
2265.0
 30
0.0
 11
305.0
 21
2290.0
 31
0.0
  0
LINE
  5
256
100
AcDbEntity
100
AcDbLine
  8
Vernier 1
 62
256
370
-1
  6
ByLayer
 10
300.0
 20
2290.0
 30
0.0
 11
295.0
 21
2295.0
 31
0.0
  0
LINE
  5
257
100
AcDbEntity
100
AcDbLine
  8
Vernier 1
 62
256
370
-1
  6
ByLayer
 10
280.0
 20
2270.0
 30
0.0
 11
300.0
 21
2290.0
 31
0.0
  0
LINE
  5
258
100
AcDbEntity
100
AcDbLine
  8
Vernier 1
 62
256
370
-1
  6
ByLayer
 10
295.0
 20
2295.0
 30
0.0
 11
275.0
 21
2275.0
 31
0.0
  0
LINE
  5
259
100
AcDbEntity
100
AcDbLine
  8
Vernier 1
 62
256
370
-1
  6
ByLayer
 10
275.0
 20
2275.0
 30
0.0
 11
280.0
 21
2270.0
 31
0.0
  0
LINE
  5
25A
100
AcDbEntity
100
AcDbLine
  8
Vernier 1
 62
256
370
-1
  6
ByLayer
 10
225.0
 20
2225.0
 30
0.0
 11
230.0
 21
2220.0
 31
0.0
  0
LINE
  5
25B
100
AcDbEntity
100
AcDbLine
  8
Vernier 1
 62
256
370
-1
  6
ByLayer
 10
230.0
 20
2220.0
 30
0.0
 11
210.0
 21
2200.0
 31
0.0
  0
LINE
  5
25C
100
AcDbEntity
100
AcDbLine
  8
Vernier 1
 62
256
370
-1
  6
ByLayer
 10
205.0
 20
2205.0
 30
0.0
 11
225.0
 21
2225.0
 31
0.0
  0
LINE
  5
25D
100
AcDbEntity
100
AcDbLine
  8
Vernier 1
 62
256
370
-1
  6
ByLayer
 10
210.0
 20
2200.0
 30
0.0
 11
205.0
 21
2205.0
 31
0.0
  0
LINE
  5
25E
100
AcDbEntity
100
AcDbLine
  8
Vernier 1
 62
256
370
-1
  6
ByLayer
 10
280.0
 20
2225.0
 30
0.0
 11
275.0
 21
2220.0
 31
0.0
  0
LINE
  5
25F
100
AcDbEntity
100
AcDbLine
  8
Vernier 1
 62
256
370
-1
  6
ByLayer
 10
275.0
 20
2220.0
 30
0.0
 11
295.0
 21
2200.0
 31
0.0
  0
LINE
  5
260
100
AcDbEntity
100
AcDbLine
  8
Vernier 1
 62
256
370
-1
  6
ByLayer
 10
295.0
 20
2200.0
 30
0.0
 11
300.0
 21
2205.0
 31
0.0
  0
LINE
  5
261
100
AcDbEntity
100
AcDbLine
  8
Vernier 1
 62
256
370
-1
  6
ByLayer
 10
300.0
 20
2205.0
 30
0.0
 11
280.0
 21
2225.0
 31
0.0
  0
LINE
  5
262
100
AcDbEntity
100
AcDbLine
  8
Vernier 2
 62
256
370
-1
  6
ByLayer
 10
225.0
 20
2265.0
 30
0.0
 11
200.0
 21
2290.0
 31
0.0
  0
LINE
  5
263
100
AcDbEntity
100
AcDbLine
  8
Vernier 2
 62
256
370
-1
  6
ByLayer
 10
200.0
 20
2290.0
 30
0.0
 11
210.0
 21
2300.0
 31
0.0
  0
LINE
  5
264
100
AcDbEntity
100
AcDbLine
  8
Vernier 2
 62
256
370
-1
  6
ByLayer
 10
210.0
 20
2300.0
 30
0.0
 11
235.0
 21
2275.0
 31
0.0
  0
LINE
  5
265
100
AcDbEntity
100
AcDbLine
  8
Vernier 1
 62
256
370
-1
  6
ByLayer
 10
210.0
 20
2295.0
 30
0.0
 11
205.0
 21
2290.0
 31
0.0
  0
LINE
  5
266
100
AcDbEntity
100
AcDbLine
  8
Vernier 1
 62
256
370
-1
  6
ByLayer
 10
205.0
 20
2290.0
 30
0.0
 11
225.0
 21
2270.0
 31
0.0
  0
LINE
  5
267
100
AcDbEntity
100
AcDbLine
  8
Vernier 1
 62
256
370
-1
  6
ByLayer
 10
230.0
 20
2275.0
 30
0.0
 11
210.0
 21
2295.0
 31
0.0
  0
LINE
  5
268
100
AcDbEntity
100
AcDbLine
  8
Vernier 2
 62
256
370
-1
  6
ByLayer
 10
310.0
 20
2190.0
 30
0.0
 11
310.0
 21
2305.0
 31
0.0
  0
LINE
  5
269
100
AcDbEntity
100
AcDbLine
  8
Vernier 2
 62
256
370
-1
  6
ByLayer
 10
195.0
 20
2190.0
 30
0.0
 11
310.0
 21
2190.0
 31
0.0
  0
LINE
  5
26A
100
AcDbEntity
100
AcDbLine
  8
Vernier 2
 62
256
370
-1
  6
ByLayer
 10
195.0
 20
2305.0
 30
0.0
 11
195.0
 21
2190.0
 31
0.0
  0
LINE
  5
26B
100
AcDbEntity
100
AcDbLine
  8
Vernier 2
 62
256
370
-1
  6
ByLayer
 10
310.0
 20
2305.0
 30
0.0
 11
195.0
 21
2305.0
 31
0.0
  0
LINE
  5
26C
100
AcDbEntity
100
AcDbLine
  8
Vernier 1
 62
256
370
-1
  6
ByLayer
 10
190.0
 20
2310.0
 30
0.0
 11
315.0
 21
2310.0
 31
0.0
  0
LINE
  5
26D
100
AcDbEntity
100
AcDbLine
  8
Vernier 1
 62
256
370
-1
  6
ByLayer
 10
315.0
 20
2310.0
 30
0.0
 11
315.0
 21
2185.0
 31
0.0
  0
LINE
  5
26E
100
AcDbEntity
100
AcDbLine
  8
Vernier 1
 62
256
370
-1
  6
ByLayer
 10
315.0
 20
2185.0
 30
0.0
 11
190.0
 21
2185.0
 31
0.0
  0
LINE
  5
26F
100
AcDbEntity
100
AcDbLine
  8
Vernier 1
 62
256
370
-1
  6
ByLayer
 10
190.0
 20
2185.0
 30
0.0
 11
190.0
 21
2310.0
 31
0.0
  0
LINE
  5
270
100
AcDbEntity
100
AcDbLine
  8
Vernier 1
 62
256
370
-1
  6
ByLayer
 10
335.0
 20
2300.0
 30
0.0
 11
400.0
 21
2300.0
 31
0.0
  0
LINE
  5
271
100
AcDbEntity
100
AcDbLine
  8
Vernier 1
 62
256
370
-1
  6
ByLayer
 10
400.0
 20
2300.0
 30
0.0
 11
400.0
 21
2295.0
 31
0.0
  0
LINE
  5
272
100
AcDbEntity
100
AcDbLine
  8
Vernier 1
 62
256
370
-1
  6
ByLayer
 10
400.0
 20
2295.0
 30
0.0
 11
335.0
 21
2295.0
 31
0.0
  0
LINE
  5
273
100
AcDbEntity
100
AcDbLine
  8
Vernier 1
 62
256
370
-1
  6
ByLayer
 10
335.0
 20
2295.0
 30
0.0
 11
335.0
 21
2300.0
 31
0.0
  0
LINE
  5
274
100
AcDbEntity
100
AcDbLine
  8
Vernier 1
 62
256
370
-1
  6
ByLayer
 10
400.0
 20
2290.0
 30
0.0
 11
375.0
 21
2290.0
 31
0.0
  0
LINE
  5
275
100
AcDbEntity
100
AcDbLine
  8
Vernier 1
 62
256
370
-1
  6
ByLayer
 10
375.0
 20
2290.0
 30
0.0
 11
375.0
 21
2285.0
 31
0.0
  0
LINE
  5
276
100
AcDbEntity
100
AcDbLine
  8
Vernier 1
 62
256
370
-1
  6
ByLayer
 10
375.0
 20
2285.0
 30
0.0
 11
400.0
 21
2285.0
 31
0.0
  0
LINE
  5
277
100
AcDbEntity
100
AcDbLine
  8
Vernier 1
 62
256
370
-1
  6
ByLayer
 10
400.0
 20
2285.0
 30
0.0
 11
400.0
 21
2290.0
 31
0.0
  0
LINE
  5
278
100
AcDbEntity
100
AcDbLine
  8
Vernier 1
 62
256
370
-1
  6
ByLayer
 10
400.0
 20
2280.0
 30
0.0
 11
375.0
 21
2280.0
 31
0.0
  0
LINE
  5
279
100
AcDbEntity
100
AcDbLine
  8
Vernier 1
 62
256
370
-1
  6
ByLayer
 10
375.0
 20
2280.0
 30
0.0
 11
375.0
 21
2275.0
 31
0.0
  0
LINE
  5
27A
100
AcDbEntity
100
AcDbLine
  8
Vernier 1
 62
256
370
-1
  6
ByLayer
 10
375.0
 20
2275.0
 30
0.0
 11
400.0
 21
2275.0
 31
0.0
  0
LINE
  5
27B
100
AcDbEntity
100
AcDbLine
  8
Vernier 1
 62
256
370
-1
  6
ByLayer
 10
400.0
 20
2275.0
 30
0.0
 11
400.0
 21
2280.0
 31
0.0
  0
LINE
  5
27C
100
AcDbEntity
100
AcDbLine
  8
Vernier 1
 62
256
370
-1
  6
ByLayer
 10
400.0
 20
2270.0
 30
0.0
 11
375.0
 21
2270.0
 31
0.0
  0
LINE
  5
27D
100
AcDbEntity
100
AcDbLine
  8
Vernier 1
 62
256
370
-1
  6
ByLayer
 10
375.0
 20
2270.0
 30
0.0
 11
375.0
 21
2265.0
 31
0.0
  0
LINE
  5
27E
100
AcDbEntity
100
AcDbLine
  8
Vernier 1
 62
256
370
-1
  6
ByLayer
 10
375.0
 20
2265.0
 30
0.0
 11
400.0
 21
2265.0
 31
0.0
  0
LINE
  5
27F
100
AcDbEntity
100
AcDbLine
  8
Vernier 1
 62
256
370
-1
  6
ByLayer
 10
400.0
 20
2265.0
 30
0.0
 11
400.0
 21
2270.0
 31
0.0
  0
LINE
  5
280
100
AcDbEntity
100
AcDbLine
  8
Vernier 1
 62
256
370
-1
  6
ByLayer
 10
400.0
 20
2260.0
 30
0.0
 11
375.0
 21
2260.0
 31
0.0
  0
LINE
  5
281
100
AcDbEntity
100
AcDbLine
  8
Vernier 1
 62
256
370
-1
  6
ByLayer
 10
375.0
 20
2260.0
 30
0.0
 11
375.0
 21
2255.0
 31
0.0
  0
LINE
  5
282
100
AcDbEntity
100
AcDbLine
  8
Vernier 1
 62
256
370
-1
  6
ByLayer
 10
375.0
 20
2255.0
 30
0.0
 11
400.0
 21
2255.0
 31
0.0
  0
LINE
  5
283
100
AcDbEntity
100
AcDbLine
  8
Vernier 1
 62
256
370
-1
  6
ByLayer
 10
400.0
 20
2255.0
 30
0.0
 11
400.0
 21
2260.0
 31
0.0
  0
LINE
  5
284
100
AcDbEntity
100
AcDbLine
  8
Vernier 1
 62
256
370
-1
  6
ByLayer
 10
400.0
 20
2250.0
 30
0.0
 11
365.0
 21
2250.0
 31
0.0
  0
LINE
  5
285
100
AcDbEntity
100
AcDbLine
  8
Vernier 1
 62
256
370
-1
  6
ByLayer
 10
365.0
 20
2250.0
 30
0.0
 11
365.0
 21
2245.0
 31
0.0
  0
LINE
  5
286
100
AcDbEntity
100
AcDbLine
  8
Vernier 1
 62
256
370
-1
  6
ByLayer
 10
365.0
 20
2245.0
 30
0.0
 11
400.0
 21
2245.0
 31
0.0
  0
LINE
  5
287
100
AcDbEntity
100
AcDbLine
  8
Vernier 1
 62
256
370
-1
  6
ByLayer
 10
400.0
 20
2245.0
 30
0.0
 11
400.0
 21
2250.0
 31
0.0
  0
LINE
  5
288
100
AcDbEntity
100
AcDbLine
  8
Vernier 1
 62
256
370
-1
  6
ByLayer
 10
400.0
 20
2240.0
 30
0.0
 11
375.0
 21
2240.0
 31
0.0
  0
LINE
  5
289
100
AcDbEntity
100
AcDbLine
  8
Vernier 1
 62
256
370
-1
  6
ByLayer
 10
375.0
 20
2240.0
 30
0.0
 11
375.0
 21
2235.0
 31
0.0
  0
LINE
  5
28A
100
AcDbEntity
100
AcDbLine
  8
Vernier 1
 62
256
370
-1
  6
ByLayer
 10
375.0
 20
2235.0
 30
0.0
 11
400.0
 21
2235.0
 31
0.0
  0
LINE
  5
28B
100
AcDbEntity
100
AcDbLine
  8
Vernier 1
 62
256
370
-1
  6
ByLayer
 10
400.0
 20
2235.0
 30
0.0
 11
400.0
 21
2240.0
 31
0.0
  0
LINE
  5
28C
100
AcDbEntity
100
AcDbLine
  8
Vernier 1
 62
256
370
-1
  6
ByLayer
 10
400.0
 20
2230.0
 30
0.0
 11
375.0
 21
2230.0
 31
0.0
  0
LINE
  5
28D
100
AcDbEntity
100
AcDbLine
  8
Vernier 1
 62
256
370
-1
  6
ByLayer
 10
375.0
 20
2230.0
 30
0.0
 11
375.0
 21
2225.0
 31
0.0
  0
LINE
  5
28E
100
AcDbEntity
100
AcDbLine
  8
Vernier 1
 62
256
370
-1
  6
ByLayer
 10
375.0
 20
2225.0
 30
0.0
 11
400.0
 21
2225.0
 31
0.0
  0
LINE
  5
28F
100
AcDbEntity
100
AcDbLine
  8
Vernier 1
 62
256
370
-1
  6
ByLayer
 10
400.0
 20
2225.0
 30
0.0
 11
400.0
 21
2230.0
 31
0.0
  0
LINE
  5
290
100
AcDbEntity
100
AcDbLine
  8
Vernier 1
 62
256
370
-1
  6
ByLayer
 10
400.0
 20
2220.0
 30
0.0
 11
375.0
 21
2220.0
 31
0.0
  0
LINE
  5
291
100
AcDbEntity
100
AcDbLine
  8
Vernier 1
 62
256
370
-1
  6
ByLayer
 10
375.0
 20
2220.0
 30
0.0
 11
375.0
 21
2215.0
 31
0.0
  0
LINE
  5
292
100
AcDbEntity
100
AcDbLine
  8
Vernier 1
 62
256
370
-1
  6
ByLayer
 10
375.0
 20
2215.0
 30
0.0
 11
400.0
 21
2215.0
 31
0.0
  0
LINE
  5
293
100
AcDbEntity
100
AcDbLine
  8
Vernier 1
 62
256
370
-1
  6
ByLayer
 10
400.0
 20
2215.0
 30
0.0
 11
400.0
 21
2220.0
 31
0.0
  0
LINE
  5
294
100
AcDbEntity
100
AcDbLine
  8
Vernier 1
 62
256
370
-1
  6
ByLayer
 10
400.0
 20
2210.0
 30
0.0
 11
375.0
 21
2210.0
 31
0.0
  0
LINE
  5
295
100
AcDbEntity
100
AcDbLine
  8
Vernier 1
 62
256
370
-1
  6
ByLayer
 10
375.0
 20
2210.0
 30
0.0
 11
375.0
 21
2205.0
 31
0.0
  0
LINE
  5
296
100
AcDbEntity
100
AcDbLine
  8
Vernier 1
 62
256
370
-1
  6
ByLayer
 10
375.0
 20
2205.0
 30
0.0
 11
400.0
 21
2205.0
 31
0.0
  0
LINE
  5
297
100
AcDbEntity
100
AcDbLine
  8
Vernier 1
 62
256
370
-1
  6
ByLayer
 10
400.0
 20
2205.0
 30
0.0
 11
400.0
 21
2210.0
 31
0.0
  0
LINE
  5
298
100
AcDbEntity
100
AcDbLine
  8
Vernier 1
 62
256
370
-1
  6
ByLayer
 10
400.0
 20
2200.0
 30
0.0
 11
335.0
 21
2200.0
 31
0.0
  0
LINE
  5
299
100
AcDbEntity
100
AcDbLine
  8
Vernier 1
 62
256
370
-1
  6
ByLayer
 10
335.0
 20
2200.0
 30
0.0
 11
335.0
 21
2195.0
 31
0.0
  0
LINE
  5
29A
100
AcDbEntity
100
AcDbLine
  8
Vernier 1
 62
256
370
-1
  6
ByLayer
 10
335.0
 20
2195.0
 30
0.0
 11
400.0
 21
2195.0
 31
0.0
  0
LINE
  5
29B
100
AcDbEntity
100
AcDbLine
  8
Vernier 1
 62
256
370
-1
  6
ByLayer
 10
400.0
 20
2195.0
 30
0.0
 11
400.0
 21
2200.0
 31
0.0
  0
LINE
  5
29C
100
AcDbEntity
100
AcDbLine
  8
Vernier 2
 62
256
370
-1
  6
ByLayer
 10
415.0
 20
2300.0
 30
0.0
 11
460.0
 21
2300.0
 31
0.0
  0
LINE
  5
29D
100
AcDbEntity
100
AcDbLine
  8
Vernier 2
 62
256
370
-1
  6
ByLayer
 10
460.0
 20
2300.0
 30
0.0
 11
460.0
 21
2295.5
 31
0.0
  0
LINE
  5
29E
100
AcDbEntity
100
AcDbLine
  8
Vernier 2
 62
256
370
-1
  6
ByLayer
 10
460.0
 20
2295.5
 30
0.0
 11
415.0
 21
2295.5
 31
0.0
  0
LINE
  5
29F
100
AcDbEntity
100
AcDbLine
  8
Vernier 2
 62
256
370
-1
  6
ByLayer
 10
415.0
 20
2295.5
 30
0.0
 11
415.0
 21
2300.0
 31
0.0
  0
LINE
  5
2A0
100
AcDbEntity
100
AcDbLine
  8
Vernier 2
 62
256
370
-1
  6
ByLayer
 10
415.0
 20
2291.0
 30
0.0
 11
437.5
 21
2291.0
 31
0.0
  0
LINE
  5
2A1
100
AcDbEntity
100
AcDbLine
  8
Vernier 2
 62
256
370
-1
  6
ByLayer
 10
437.5
 20
2291.0
 30
0.0
 11
437.5
 21
2286.5
 31
0.0
  0
LINE
  5
2A2
100
AcDbEntity
100
AcDbLine
  8
Vernier 2
 62
256
370
-1
  6
ByLayer
 10
437.5
 20
2286.5
 30
0.0
 11
415.0
 21
2286.5
 31
0.0
  0
LINE
  5
2A3
100
AcDbEntity
100
AcDbLine
  8
Vernier 2
 62
256
370
-1
  6
ByLayer
 10
415.0
 20
2286.5
 30
0.0
 11
415.0
 21
2291.0
 31
0.0
  0
LINE
  5
2A4
100
AcDbEntity
100
AcDbLine
  8
Vernier 2
 62
256
370
-1
  6
ByLayer
 10
415.0
 20
2282.0
 30
0.0
 11
437.5
 21
2282.0
 31
0.0
  0
LINE
  5
2A5
100
AcDbEntity
100
AcDbLine
  8
Vernier 2
 62
256
370
-1
  6
ByLayer
 10
437.5
 20
2282.0
 30
0.0
 11
437.5
 21
2277.5
 31
0.0
  0
LINE
  5
2A6
100
AcDbEntity
100
AcDbLine
  8
Vernier 2
 62
256
370
-1
  6
ByLayer
 10
437.5
 20
2277.5
 30
0.0
 11
415.0
 21
2277.5
 31
0.0
  0
LINE
  5
2A7
100
AcDbEntity
100
AcDbLine
  8
Vernier 2
 62
256
370
-1
  6
ByLayer
 10
415.0
 20
2277.5
 30
0.0
 11
415.0
 21
2282.0
 31
0.0
  0
LINE
  5
2A8
100
AcDbEntity
100
AcDbLine
  8
Vernier 2
 62
256
370
-1
  6
ByLayer
 10
415.0
 20
2273.0
 30
0.0
 11
437.5
 21
2273.0
 31
0.0
  0
LINE
  5
2A9
100
AcDbEntity
100
AcDbLine
  8
Vernier 2
 62
256
370
-1
  6
ByLayer
 10
437.5
 20
2273.0
 30
0.0
 11
437.5
 21
2268.5
 31
0.0
  0
LINE
  5
2AA
100
AcDbEntity
100
AcDbLine
  8
Vernier 2
 62
256
370
-1
  6
ByLayer
 10
437.5
 20
2268.5
 30
0.0
 11
415.0
 21
2268.5
 31
0.0
  0
LINE
  5
2AB
100
AcDbEntity
100
AcDbLine
  8
Vernier 2
 62
256
370
-1
  6
ByLayer
 10
415.0
 20
2268.5
 30
0.0
 11
415.0
 21
2273.0
 31
0.0
  0
LINE
  5
2AC
100
AcDbEntity
100
AcDbLine
  8
Vernier 2
 62
256
370
-1
  6
ByLayer
 10
415.0
 20
2264.0
 30
0.0
 11
437.5
 21
2264.0
 31
0.0
  0
LINE
  5
2AD
100
AcDbEntity
100
AcDbLine
  8
Vernier 2
 62
256
370
-1
  6
ByLayer
 10
437.5
 20
2264.0
 30
0.0
 11
437.5
 21
2259.5
 31
0.0
  0
LINE
  5
2AE
100
AcDbEntity
100
AcDbLine
  8
Vernier 2
 62
256
370
-1
  6
ByLayer
 10
437.5
 20
2259.5
 30
0.0
 11
415.0
 21
2259.5
 31
0.0
  0
LINE
  5
2AF
100
AcDbEntity
100
AcDbLine
  8
Vernier 2
 62
256
370
-1
  6
ByLayer
 10
415.0
 20
2259.5
 30
0.0
 11
415.0
 21
2264.0
 31
0.0
  0
LINE
  5
2B0
100
AcDbEntity
100
AcDbLine
  8
Vernier 2
 62
256
370
-1
  6
ByLayer
 10
415.0
 20
2255.0
 30
0.0
 11
446.5
 21
2255.0
 31
0.0
  0
LINE
  5
2B1
100
AcDbEntity
100
AcDbLine
  8
Vernier 2
 62
256
370
-1
  6
ByLayer
 10
446.5
 20
2255.0
 30
0.0
 11
446.5
 21
2250.5
 31
0.0
  0
LINE
  5
2B2
100
AcDbEntity
100
AcDbLine
  8
Vernier 2
 62
256
370
-1
  6
ByLayer
 10
446.5
 20
2250.5
 30
0.0
 11
415.0
 21
2250.5
 31
0.0
  0
LINE
  5
2B3
100
AcDbEntity
100
AcDbLine
  8
Vernier 2
 62
256
370
-1
  6
ByLayer
 10
415.0
 20
2250.5
 30
0.0
 11
415.0
 21
2255.0
 31
0.0
  0
LINE
  5
2B4
100
AcDbEntity
100
AcDbLine
  8
Vernier 2
 62
256
370
-1
  6
ByLayer
 10
415.0
 20
2246.0
 30
0.0
 11
437.5
 21
2246.0
 31
0.0
  0
LINE
  5
2B5
100
AcDbEntity
100
AcDbLine
  8
Vernier 2
 62
256
370
-1
  6
ByLayer
 10
437.5
 20
2246.0
 30
0.0
 11
437.5
 21
2241.5
 31
0.0
  0
LINE
  5
2B6
100
AcDbEntity
100
AcDbLine
  8
Vernier 2
 62
256
370
-1
  6
ByLayer
 10
437.5
 20
2241.5
 30
0.0
 11
415.0
 21
2241.5
 31
0.0
  0
LINE
  5
2B7
100
AcDbEntity
100
AcDbLine
  8
Vernier 2
 62
256
370
-1
  6
ByLayer
 10
415.0
 20
2241.5
 30
0.0
 11
415.0
 21
2246.0
 31
0.0
  0
LINE
  5
2B8
100
AcDbEntity
100
AcDbLine
  8
Vernier 2
 62
256
370
-1
  6
ByLayer
 10
415.0
 20
2237.0
 30
0.0
 11
437.5
 21
2237.0
 31
0.0
  0
LINE
  5
2B9
100
AcDbEntity
100
AcDbLine
  8
Vernier 2
 62
256
370
-1
  6
ByLayer
 10
437.5
 20
2237.0
 30
0.0
 11
437.5
 21
2232.5
 31
0.0
  0
LINE
  5
2BA
100
AcDbEntity
100
AcDbLine
  8
Vernier 2
 62
256
370
-1
  6
ByLayer
 10
437.5
 20
2232.5
 30
0.0
 11
415.0
 21
2232.5
 31
0.0
  0
LINE
  5
2BB
100
AcDbEntity
100
AcDbLine
  8
Vernier 2
 62
256
370
-1
  6
ByLayer
 10
415.0
 20
2232.5
 30
0.0
 11
415.0
 21
2237.0
 31
0.0
  0
LINE
  5
2BC
100
AcDbEntity
100
AcDbLine
  8
Vernier 2
 62
256
370
-1
  6
ByLayer
 10
415.0
 20
2228.0
 30
0.0
 11
437.5
 21
2228.0
 31
0.0
  0
LINE
  5
2BD
100
AcDbEntity
100
AcDbLine
  8
Vernier 2
 62
256
370
-1
  6
ByLayer
 10
437.5
 20
2228.0
 30
0.0
 11
437.5
 21
2223.5
 31
0.0
  0
LINE
  5
2BE
100
AcDbEntity
100
AcDbLine
  8
Vernier 2
 62
256
370
-1
  6
ByLayer
 10
437.5
 20
2223.5
 30
0.0
 11
415.0
 21
2223.5
 31
0.0
  0
LINE
  5
2BF
100
AcDbEntity
100
AcDbLine
  8
Vernier 2
 62
256
370
-1
  6
ByLayer
 10
415.0
 20
2223.5
 30
0.0
 11
415.0
 21
2228.0
 31
0.0
  0
LINE
  5
2C0
100
AcDbEntity
100
AcDbLine
  8
Vernier 2
 62
256
370
-1
  6
ByLayer
 10
415.0
 20
2219.0
 30
0.0
 11
437.5
 21
2219.0
 31
0.0
  0
LINE
  5
2C1
100
AcDbEntity
100
AcDbLine
  8
Vernier 2
 62
256
370
-1
  6
ByLayer
 10
437.5
 20
2219.0
 30
0.0
 11
437.5
 21
2214.5
 31
0.0
  0
LINE
  5
2C2
100
AcDbEntity
100
AcDbLine
  8
Vernier 2
 62
256
370
-1
  6
ByLayer
 10
437.5
 20
2214.5
 30
0.0
 11
415.0
 21
2214.5
 31
0.0
  0
LINE
  5
2C3
100
AcDbEntity
100
AcDbLine
  8
Vernier 2
 62
256
370
-1
  6
ByLayer
 10
415.0
 20
2214.5
 30
0.0
 11
415.0
 21
2219.0
 31
0.0
  0
LINE
  5
2C4
100
AcDbEntity
100
AcDbLine
  8
Vernier 1
 62
256
370
-1
  6
ByLayer
 10
465.0
 20
2190.0
 30
0.0
 11
410.0
 21
2190.0
 31
0.0
  0
LINE
  5
2C5
100
AcDbEntity
100
AcDbLine
  8
Vernier 1
 62
256
370
-1
  6
ByLayer
 10
465.0
 20
2305.0
 30
0.0
 11
465.0
 21
2190.0
 31
0.0
  0
LINE
  5
2C6
100
AcDbEntity
100
AcDbLine
  8
Vernier 1
 62
256
370
-1
  6
ByLayer
 10
410.0
 20
2190.0
 30
0.0
 11
410.0
 21
2305.0
 31
0.0
  0
LINE
  5
2C7
100
AcDbEntity
100
AcDbLine
  8
Vernier 1
 62
256
370
-1
  6
ByLayer
 10
410.0
 20
2305.0
 30
0.0
 11
465.0
 21
2305.0
 31
0.0
  0
LINE
  5
2C8
100
AcDbEntity
100
AcDbLine
  8
Vernier 2
 62
256
370
-1
  6
ByLayer
 10
330.0
 20
2305.0
 30
0.0
 11
405.0
 21
2305.0
 31
0.0
  0
LINE
  5
2C9
100
AcDbEntity
100
AcDbLine
  8
Vernier 2
 62
256
370
-1
  6
ByLayer
 10
405.0
 20
2305.0
 30
0.0
 11
405.0
 21
2190.0
 31
0.0
  0
LINE
  5
2CA
100
AcDbEntity
100
AcDbLine
  8
Vernier 2
 62
256
370
-1
  6
ByLayer
 10
405.0
 20
2190.0
 30
0.0
 11
330.0
 21
2190.0
 31
0.0
  0
LINE
  5
2CB
100
AcDbEntity
100
AcDbLine
  8
Vernier 2
 62
256
370
-1
  6
ByLayer
 10
330.0
 20
2190.0
 30
0.0
 11
330.0
 21
2305.0
 31
0.0
  0
LINE
  5
2CC
100
AcDbEntity
100
AcDbLine
  8
Vernier 1
 62
256
370
-1
  6
ByLayer
 10
65.0
 20
2250.0
 30
0.0
 11
70.0
 21
2250.0
 31
0.0
  0
LINE
  5
2CD
100
AcDbEntity
100
AcDbLine
  8
Vernier 1
 62
256
370
-1
  6
ByLayer
 10
70.0
 20
2250.0
 30
0.0
 11
70.0
 21
2110.0
 31
0.0
  0
LINE
  5
2CE
100
AcDbEntity
100
AcDbLine
  8
Vernier 1
 62
256
370
-1
  6
ByLayer
 10
70.0
 20
2110.0
 30
0.0
 11
65.0
 21
2110.0
 31
0.0
  0
LINE
  5
2CF
100
AcDbEntity
100
AcDbLine
  8
Vernier 1
 62
256
370
-1
  6
ByLayer
 10
65.0
 20
2110.0
 30
0.0
 11
65.0
 21
2250.0
 31
0.0
  0
LINE
  5
2D0
100
AcDbEntity
100
AcDbLine
  8
Vernier 1
 62
256
370
-1
  6
ByLayer
 10
75.0
 20
2250.0
 30
0.0
 11
80.0
 21
2250.0
 31
0.0
  0
LINE
  5
2D1
100
AcDbEntity
100
AcDbLine
  8
Vernier 1
 62
256
370
-1
  6
ByLayer
 10
80.0
 20
2250.0
 30
0.0
 11
80.0
 21
2160.0
 31
0.0
  0
LINE
  5
2D2
100
AcDbEntity
100
AcDbLine
  8
Vernier 1
 62
256
370
-1
  6
ByLayer
 10
80.0
 20
2160.0
 30
0.0
 11
75.0
 21
2160.0
 31
0.0
  0
LINE
  5
2D3
100
AcDbEntity
100
AcDbLine
  8
Vernier 1
 62
256
370
-1
  6
ByLayer
 10
75.0
 20
2160.0
 30
0.0
 11
75.0
 21
2250.0
 31
0.0
  0
LINE
  5
2D4
100
AcDbEntity
100
AcDbLine
  8
Vernier 1
 62
256
370
-1
  6
ByLayer
 10
85.0
 20
2250.0
 30
0.0
 11
90.0
 21
2250.0
 31
0.0
  0
LINE
  5
2D5
100
AcDbEntity
100
AcDbLine
  8
Vernier 1
 62
256
370
-1
  6
ByLayer
 10
90.0
 20
2250.0
 30
0.0
 11
90.0
 21
2160.0
 31
0.0
  0
LINE
  5
2D6
100
AcDbEntity
100
AcDbLine
  8
Vernier 1
 62
256
370
-1
  6
ByLayer
 10
90.0
 20
2160.0
 30
0.0
 11
85.0
 21
2160.0
 31
0.0
  0
LINE
  5
2D7
100
AcDbEntity
100
AcDbLine
  8
Vernier 1
 62
256
370
-1
  6
ByLayer
 10
85.0
 20
2160.0
 30
0.0
 11
85.0
 21
2250.0
 31
0.0
  0
LINE
  5
2D8
100
AcDbEntity
100
AcDbLine
  8
Vernier 1
 62
256
370
-1
  6
ByLayer
 10
95.0
 20
2250.0
 30
0.0
 11
95.0
 21
2250.0
 31
0.0
  0
LINE
  5
2D9
100
AcDbEntity
100
AcDbLine
  8
Vernier 1
 62
256
370
-1
  6
ByLayer
 10
95.0
 20
2250.0
 30
0.0
 11
95.0
 21
2250.0
 31
0.0
  0
LINE
  5
2DA
100
AcDbEntity
100
AcDbLine
  8
Vernier 1
 62
256
370
-1
  6
ByLayer
 10
95.0
 20
2250.0
 30
0.0
 11
95.0
 21
2250.0
 31
0.0
  0
LINE
  5
2DB
100
AcDbEntity
100
AcDbLine
  8
Vernier 1
 62
256
370
-1
  6
ByLayer
 10
95.0
 20
2250.0
 30
0.0
 11
95.0
 21
2250.0
 31
0.0
  0
LINE
  5
2DC
100
AcDbEntity
100
AcDbLine
  8
Vernier 1
 62
256
370
-1
  6
ByLayer
 10
95.0
 20
2250.0
 30
0.0
 11
100.0
 21
2250.0
 31
0.0
  0
LINE
  5
2DD
100
AcDbEntity
100
AcDbLine
  8
Vernier 1
 62
256
370
-1
  6
ByLayer
 10
100.0
 20
2250.0
 30
0.0
 11
100.0
 21
2160.0
 31
0.0
  0
LINE
  5
2DE
100
AcDbEntity
100
AcDbLine
  8
Vernier 1
 62
256
370
-1
  6
ByLayer
 10
100.0
 20
2160.0
 30
0.0
 11
95.0
 21
2160.0
 31
0.0
  0
LINE
  5
2DF
100
AcDbEntity
100
AcDbLine
  8
Vernier 1
 62
256
370
-1
  6
ByLayer
 10
95.0
 20
2160.0
 30
0.0
 11
95.0
 21
2250.0
 31
0.0
  0
LINE
  5
2E0
100
AcDbEntity
100
AcDbLine
  8
Vernier 1
 62
256
370
-1
  6
ByLayer
 10
105.0
 20
2250.0
 30
0.0
 11
110.0
 21
2250.0
 31
0.0
  0
LINE
  5
2E1
100
AcDbEntity
100
AcDbLine
  8
Vernier 1
 62
256
370
-1
  6
ByLayer
 10
110.0
 20
2250.0
 30
0.0
 11
110.0
 21
2160.0
 31
0.0
  0
LINE
  5
2E2
100
AcDbEntity
100
AcDbLine
  8
Vernier 1
 62
256
370
-1
  6
ByLayer
 10
110.0
 20
2160.0
 30
0.0
 11
105.0
 21
2160.0
 31
0.0
  0
LINE
  5
2E3
100
AcDbEntity
100
AcDbLine
  8
Vernier 1
 62
256
370
-1
  6
ByLayer
 10
105.0
 20
2160.0
 30
0.0
 11
105.0
 21
2250.0
 31
0.0
  0
LINE
  5
2E4
100
AcDbEntity
100
AcDbLine
  8
Vernier 1
 62
256
370
-1
  6
ByLayer
 10
115.0
 20
2250.0
 30
0.0
 11
120.0
 21
2250.0
 31
0.0
  0
LINE
  5
2E5
100
AcDbEntity
100
AcDbLine
  8
Vernier 1
 62
256
370
-1
  6
ByLayer
 10
120.0
 20
2250.0
 30
0.0
 11
120.0
 21
2135.0
 31
0.0
  0
LINE
  5
2E6
100
AcDbEntity
100
AcDbLine
  8
Vernier 1
 62
256
370
-1
  6
ByLayer
 10
120.0
 20
2135.0
 30
0.0
 11
115.0
 21
2135.0
 31
0.0
  0
LINE
  5
2E7
100
AcDbEntity
100
AcDbLine
  8
Vernier 1
 62
256
370
-1
  6
ByLayer
 10
115.0
 20
2135.0
 30
0.0
 11
115.0
 21
2250.0
 31
0.0
  0
LINE
  5
2E8
100
AcDbEntity
100
AcDbLine
  8
Vernier 1
 62
256
370
-1
  6
ByLayer
 10
125.0
 20
2250.0
 30
0.0
 11
130.0
 21
2250.0
 31
0.0
  0
LINE
  5
2E9
100
AcDbEntity
100
AcDbLine
  8
Vernier 1
 62
256
370
-1
  6
ByLayer
 10
130.0
 20
2250.0
 30
0.0
 11
130.0
 21
2160.0
 31
0.0
  0
LINE
  5
2EA
100
AcDbEntity
100
AcDbLine
  8
Vernier 1
 62
256
370
-1
  6
ByLayer
 10
130.0
 20
2160.0
 30
0.0
 11
125.0
 21
2160.0
 31
0.0
  0
LINE
  5
2EB
100
AcDbEntity
100
AcDbLine
  8
Vernier 1
 62
256
370
-1
  6
ByLayer
 10
125.0
 20
2160.0
 30
0.0
 11
125.0
 21
2250.0
 31
0.0
  0
LINE
  5
2EC
100
AcDbEntity
100
AcDbLine
  8
Vernier 1
 62
256
370
-1
  6
ByLayer
 10
135.0
 20
2250.0
 30
0.0
 11
140.0
 21
2250.0
 31
0.0
  0
LINE
  5
2ED
100
AcDbEntity
100
AcDbLine
  8
Vernier 1
 62
256
370
-1
  6
ByLayer
 10
140.0
 20
2250.0
 30
0.0
 11
140.0
 21
2160.0
 31
0.0
  0
LINE
  5
2EE
100
AcDbEntity
100
AcDbLine
  8
Vernier 1
 62
256
370
-1
  6
ByLayer
 10
140.0
 20
2160.0
 30
0.0
 11
135.0
 21
2160.0
 31
0.0
  0
LINE
  5
2EF
100
AcDbEntity
100
AcDbLine
  8
Vernier 1
 62
256
370
-1
  6
ByLayer
 10
135.0
 20
2160.0
 30
0.0
 11
135.0
 21
2250.0
 31
0.0
  0
LINE
  5
2F0
100
AcDbEntity
100
AcDbLine
  8
Vernier 1
 62
256
370
-1
  6
ByLayer
 10
145.0
 20
2250.0
 30
0.0
 11
150.0
 21
2250.0
 31
0.0
  0
LINE
  5
2F1
100
AcDbEntity
100
AcDbLine
  8
Vernier 1
 62
256
370
-1
  6
ByLayer
 10
150.0
 20
2250.0
 30
0.0
 11
150.0
 21
2160.0
 31
0.0
  0
LINE
  5
2F2
100
AcDbEntity
100
AcDbLine
  8
Vernier 1
 62
256
370
-1
  6
ByLayer
 10
150.0
 20
2160.0
 30
0.0
 11
145.0
 21
2160.0
 31
0.0
  0
LINE
  5
2F3
100
AcDbEntity
100
AcDbLine
  8
Vernier 1
 62
256
370
-1
  6
ByLayer
 10
145.0
 20
2160.0
 30
0.0
 11
145.0
 21
2250.0
 31
0.0
  0
LINE
  5
2F4
100
AcDbEntity
100
AcDbLine
  8
Vernier 1
 62
256
370
-1
  6
ByLayer
 10
155.0
 20
2250.0
 30
0.0
 11
160.0
 21
2250.0
 31
0.0
  0
LINE
  5
2F5
100
AcDbEntity
100
AcDbLine
  8
Vernier 1
 62
256
370
-1
  6
ByLayer
 10
160.0
 20
2250.0
 30
0.0
 11
160.0
 21
2160.0
 31
0.0
  0
LINE
  5
2F6
100
AcDbEntity
100
AcDbLine
  8
Vernier 1
 62
256
370
-1
  6
ByLayer
 10
160.0
 20
2160.0
 30
0.0
 11
155.0
 21
2160.0
 31
0.0
  0
LINE
  5
2F7
100
AcDbEntity
100
AcDbLine
  8
Vernier 1
 62
256
370
-1
  6
ByLayer
 10
155.0
 20
2160.0
 30
0.0
 11
155.0
 21
2250.0
 31
0.0
  0
LINE
  5
2F8
100
AcDbEntity
100
AcDbLine
  8
Vernier 1
 62
256
370
-1
  6
ByLayer
 10
165.0
 20
2250.0
 30
0.0
 11
170.0
 21
2250.0
 31
0.0
  0
LINE
  5
2F9
100
AcDbEntity
100
AcDbLine
  8
Vernier 1
 62
256
370
-1
  6
ByLayer
 10
170.0
 20
2250.0
 30
0.0
 11
170.0
 21
2110.0
 31
0.0
  0
LINE
  5
2FA
100
AcDbEntity
100
AcDbLine
  8
Vernier 1
 62
256
370
-1
  6
ByLayer
 10
170.0
 20
2110.0
 30
0.0
 11
165.0
 21
2110.0
 31
0.0
  0
LINE
  5
2FB
100
AcDbEntity
100
AcDbLine
  8
Vernier 1
 62
256
370
-1
  6
ByLayer
 10
165.0
 20
2110.0
 30
0.0
 11
165.0
 21
2250.0
 31
0.0
  0
LINE
  5
2FC
100
AcDbEntity
100
AcDbLine
  8
Vernier 2
 62
256
370
-1
  6
ByLayer
 10
65.0
 20
2382.0
 30
0.0
 11
69.5
 21
2382.0
 31
0.0
  0
LINE
  5
2FD
100
AcDbEntity
100
AcDbLine
  8
Vernier 2
 62
256
370
-1
  6
ByLayer
 10
69.5
 20
2382.0
 30
0.0
 11
69.5
 21
2265.0
 31
0.0
  0
LINE
  5
2FE
100
AcDbEntity
100
AcDbLine
  8
Vernier 2
 62
256
370
-1
  6
ByLayer
 10
69.5
 20
2265.0
 30
0.0
 11
65.0
 21
2265.0
 31
0.0
  0
LINE
  5
2FF
100
AcDbEntity
100
AcDbLine
  8
Vernier 2
 62
256
370
-1
  6
ByLayer
 10
65.0
 20
2265.0
 30
0.0
 11
65.0
 21
2382.0
 31
0.0
  0
LINE
  5
300
100
AcDbEntity
100
AcDbLine
  8
Vernier 2
 62
256
370
-1
  6
ByLayer
 10
74.0
 20
2328.0
 30
0.0
 11
78.5
 21
2328.0
 31
0.0
  0
LINE
  5
301
100
AcDbEntity
100
AcDbLine
  8
Vernier 2
 62
256
370
-1
  6
ByLayer
 10
78.5
 20
2328.0
 30
0.0
 11
78.5
 21
2265.0
 31
0.0
  0
LINE
  5
302
100
AcDbEntity
100
AcDbLine
  8
Vernier 2
 62
256
370
-1
  6
ByLayer
 10
78.5
 20
2265.0
 30
0.0
 11
74.0
 21
2265.0
 31
0.0
  0
LINE
  5
303
100
AcDbEntity
100
AcDbLine
  8
Vernier 2
 62
256
370
-1
  6
ByLayer
 10
74.0
 20
2265.0
 30
0.0
 11
74.0
 21
2328.0
 31
0.0
  0
LINE
  5
304
100
AcDbEntity
100
AcDbLine
  8
Vernier 2
 62
256
370
-1
  6
ByLayer
 10
83.0
 20
2328.0
 30
0.0
 11
87.5
 21
2328.0
 31
0.0
  0
LINE
  5
305
100
AcDbEntity
100
AcDbLine
  8
Vernier 2
 62
256
370
-1
  6
ByLayer
 10
87.5
 20
2328.0
 30
0.0
 11
87.5
 21
2265.0
 31
0.0
  0
LINE
  5
306
100
AcDbEntity
100
AcDbLine
  8
Vernier 2
 62
256
370
-1
  6
ByLayer
 10
87.5
 20
2265.0
 30
0.0
 11
83.0
 21
2265.0
 31
0.0
  0
LINE
  5
307
100
AcDbEntity
100
AcDbLine
  8
Vernier 2
 62
256
370
-1
  6
ByLayer
 10
83.0
 20
2265.0
 30
0.0
 11
83.0
 21
2328.0
 31
0.0
  0
LINE
  5
308
100
AcDbEntity
100
AcDbLine
  8
Vernier 2
 62
256
370
-1
  6
ByLayer
 10
92.0
 20
2328.0
 30
0.0
 11
96.5
 21
2328.0
 31
0.0
  0
LINE
  5
309
100
AcDbEntity
100
AcDbLine
  8
Vernier 2
 62
256
370
-1
  6
ByLayer
 10
96.5
 20
2328.0
 30
0.0
 11
96.5
 21
2265.0
 31
0.0
  0
LINE
  5
30A
100
AcDbEntity
100
AcDbLine
  8
Vernier 2
 62
256
370
-1
  6
ByLayer
 10
96.5
 20
2265.0
 30
0.0
 11
92.0
 21
2265.0
 31
0.0
  0
LINE
  5
30B
100
AcDbEntity
100
AcDbLine
  8
Vernier 2
 62
256
370
-1
  6
ByLayer
 10
92.0
 20
2265.0
 30
0.0
 11
92.0
 21
2328.0
 31
0.0
  0
LINE
  5
30C
100
AcDbEntity
100
AcDbLine
  8
Vernier 2
 62
256
370
-1
  6
ByLayer
 10
101.0
 20
2328.0
 30
0.0
 11
105.5
 21
2328.0
 31
0.0
  0
LINE
  5
30D
100
AcDbEntity
100
AcDbLine
  8
Vernier 2
 62
256
370
-1
  6
ByLayer
 10
105.5
 20
2328.0
 30
0.0
 11
105.5
 21
2265.0
 31
0.0
  0
LINE
  5
30E
100
AcDbEntity
100
AcDbLine
  8
Vernier 2
 62
256
370
-1
  6
ByLayer
 10
105.5
 20
2265.0
 30
0.0
 11
101.0
 21
2265.0
 31
0.0
  0
LINE
  5
30F
100
AcDbEntity
100
AcDbLine
  8
Vernier 2
 62
256
370
-1
  6
ByLayer
 10
101.0
 20
2265.0
 30
0.0
 11
101.0
 21
2328.0
 31
0.0
  0
LINE
  5
310
100
AcDbEntity
100
AcDbLine
  8
Vernier 2
 62
256
370
-1
  6
ByLayer
 10
110.0
 20
2265.0
 30
0.0
 11
114.5
 21
2265.0
 31
0.0
  0
LINE
  5
311
100
AcDbEntity
100
AcDbLine
  8
Vernier 2
 62
256
370
-1
  6
ByLayer
 10
114.5
 20
2265.0
 30
0.0
 11
114.5
 21
2350.5
 31
0.0
  0
LINE
  5
312
100
AcDbEntity
100
AcDbLine
  8
Vernier 2
 62
256
370
-1
  6
ByLayer
 10
114.5
 20
2350.5
 30
0.0
 11
110.0
 21
2350.5
 31
0.0
  0
LINE
  5
313
100
AcDbEntity
100
AcDbLine
  8
Vernier 2
 62
256
370
-1
  6
ByLayer
 10
110.0
 20
2350.5
 30
0.0
 11
110.0
 21
2265.0
 31
0.0
  0
LINE
  5
314
100
AcDbEntity
100
AcDbLine
  8
Vernier 2
 62
256
370
-1
  6
ByLayer
 10
119.0
 20
2328.0
 30
0.0
 11
123.5
 21
2328.0
 31
0.0
  0
LINE
  5
315
100
AcDbEntity
100
AcDbLine
  8
Vernier 2
 62
256
370
-1
  6
ByLayer
 10
123.5
 20
2328.0
 30
0.0
 11
123.5
 21
2265.0
 31
0.0
  0
LINE
  5
316
100
AcDbEntity
100
AcDbLine
  8
Vernier 2
 62
256
370
-1
  6
ByLayer
 10
123.5
 20
2265.0
 30
0.0
 11
119.0
 21
2265.0
 31
0.0
  0
LINE
  5
317
100
AcDbEntity
100
AcDbLine
  8
Vernier 2
 62
256
370
-1
  6
ByLayer
 10
119.0
 20
2265.0
 30
0.0
 11
119.0
 21
2328.0
 31
0.0
  0
LINE
  5
318
100
AcDbEntity
100
AcDbLine
  8
Vernier 2
 62
256
370
-1
  6
ByLayer
 10
128.0
 20
2328.0
 30
0.0
 11
132.5
 21
2328.0
 31
0.0
  0
LINE
  5
319
100
AcDbEntity
100
AcDbLine
  8
Vernier 2
 62
256
370
-1
  6
ByLayer
 10
132.5
 20
2328.0
 30
0.0
 11
132.5
 21
2265.0
 31
0.0
  0
LINE
  5
31A
100
AcDbEntity
100
AcDbLine
  8
Vernier 2
 62
256
370
-1
  6
ByLayer
 10
132.5
 20
2265.0
 30
0.0
 11
128.0
 21
2265.0
 31
0.0
  0
LINE
  5
31B
100
AcDbEntity
100
AcDbLine
  8
Vernier 2
 62
256
370
-1
  6
ByLayer
 10
128.0
 20
2265.0
 30
0.0
 11
128.0
 21
2328.0
 31
0.0
  0
LINE
  5
31C
100
AcDbEntity
100
AcDbLine
  8
Vernier 2
 62
256
370
-1
  6
ByLayer
 10
137.0
 20
2328.0
 30
0.0
 11
141.5
 21
2328.0
 31
0.0
  0
LINE
  5
31D
100
AcDbEntity
100
AcDbLine
  8
Vernier 2
 62
256
370
-1
  6
ByLayer
 10
141.5
 20
2328.0
 30
0.0
 11
141.5
 21
2265.0
 31
0.0
  0
LINE
  5
31E
100
AcDbEntity
100
AcDbLine
  8
Vernier 2
 62
256
370
-1
  6
ByLayer
 10
141.5
 20
2265.0
 30
0.0
 11
137.0
 21
2265.0
 31
0.0
  0
LINE
  5
31F
100
AcDbEntity
100
AcDbLine
  8
Vernier 2
 62
256
370
-1
  6
ByLayer
 10
137.0
 20
2265.0
 30
0.0
 11
137.0
 21
2328.0
 31
0.0
  0
LINE
  5
320
100
AcDbEntity
100
AcDbLine
  8
Vernier 2
 62
256
370
-1
  6
ByLayer
 10
146.0
 20
2328.0
 30
0.0
 11
150.5
 21
2328.0
 31
0.0
  0
LINE
  5
321
100
AcDbEntity
100
AcDbLine
  8
Vernier 2
 62
256
370
-1
  6
ByLayer
 10
150.5
 20
2328.0
 30
0.0
 11
150.5
 21
2265.0
 31
0.0
  0
LINE
  5
322
100
AcDbEntity
100
AcDbLine
  8
Vernier 2
 62
256
370
-1
  6
ByLayer
 10
150.5
 20
2265.0
 30
0.0
 11
146.0
 21
2265.0
 31
0.0
  0
LINE
  5
323
100
AcDbEntity
100
AcDbLine
  8
Vernier 2
 62
256
370
-1
  6
ByLayer
 10
146.0
 20
2265.0
 30
0.0
 11
146.0
 21
2328.0
 31
0.0
  0
LINE
  5
324
100
AcDbEntity
100
AcDbLine
  8
Vernier 1
 62
256
370
-1
  6
ByLayer
 10
175.0
 20
2390.0
 30
0.0
 11
175.0
 21
2260.0
 31
0.0
  0
LINE
  5
325
100
AcDbEntity
100
AcDbLine
  8
Vernier 1
 62
256
370
-1
  6
ByLayer
 10
60.0
 20
2390.0
 30
0.0
 11
175.0
 21
2390.0
 31
0.0
  0
LINE
  5
326
100
AcDbEntity
100
AcDbLine
  8
Vernier 1
 62
256
370
-1
  6
ByLayer
 10
60.0
 20
2260.0
 30
0.0
 11
60.0
 21
2390.0
 31
0.0
  0
LINE
  5
327
100
AcDbEntity
100
AcDbLine
  8
Vernier 2
 62
256
370
-1
  6
ByLayer
 10
60.0
 20
2105.0
 30
0.0
 11
60.0
 21
2255.0
 31
0.0
  0
LINE
  5
328
100
AcDbEntity
100
AcDbLine
  8
Vernier 2
 62
256
370
-1
  6
ByLayer
 10
175.0
 20
2255.0
 30
0.0
 11
175.0
 21
2105.0
 31
0.0
  0
LINE
  5
329
100
AcDbEntity
100
AcDbLine
  8
Vernier 2
 62
256
370
-1
  6
ByLayer
 10
175.0
 20
2105.0
 30
0.0
 11
60.0
 21
2105.0
 31
0.0
  0
LINE
  5
32A
100
AcDbEntity
100
AcDbLine
  8
Vernier 2
 62
256
370
-1
  6
ByLayer
 10
60.0
 20
2255.0
 30
0.0
 11
175.0
 21
2255.0
 31
0.0
  0
LINE
  5
32B
100
AcDbEntity
100
AcDbLine
  8
Vernier 1
 62
256
370
-1
  6
ByLayer
 10
175.0
 20
2260.0
 30
0.0
 11
60.0
 21
2260.0
 31
0.0
  0
LINE
  5
32C
100
AcDbEntity
100
AcDbLine
  8
Vernier 1
 62
256
370
-1
  6
ByLayer
 10
190.0
 20
2360.0
 30
0.0
 11
195.0
 21
2360.0
 31
0.0
  0
LINE
  5
32D
100
AcDbEntity
100
AcDbLine
  8
Vernier 1
 62
256
370
-1
  6
ByLayer
 10
195.0
 20
2385.0
 30
0.0
 11
190.0
 21
2385.0
 31
0.0
  0
LINE
  5
32E
100
AcDbEntity
100
AcDbLine
  8
Vernier 1
 62
256
370
-1
  6
ByLayer
 10
190.0
 20
2385.0
 30
0.0
 11
190.0
 21
2360.0
 31
0.0
  0
LINE
  5
32F
100
AcDbEntity
100
AcDbLine
  8
Vernier 1
 62
256
370
-1
  6
ByLayer
 10
195.0
 20
2360.0
 30
0.0
 11
195.0
 21
2385.0
 31
0.0
  0
LINE
  5
330
100
AcDbEntity
100
AcDbLine
  8
Vernier 1
 62
256
370
-1
  6
ByLayer
 10
205.0
 20
2360.0
 30
0.0
 11
220.0
 21
2360.0
 31
0.0
  0
LINE
  5
331
100
AcDbEntity
100
AcDbLine
  8
Vernier 1
 62
256
370
-1
  6
ByLayer
 10
210.0
 20
2365.0
 30
0.0
 11
215.0
 21
2365.0
 31
0.0
  0
LINE
  5
332
100
AcDbEntity
100
AcDbLine
  8
Vernier 1
 62
256
370
-1
  6
ByLayer
 10
220.0
 20
2385.0
 30
0.0
 11
205.0
 21
2385.0
 31
0.0
  0
LINE
  5
333
100
AcDbEntity
100
AcDbLine
  8
Vernier 1
 62
256
370
-1
  6
ByLayer
 10
215.0
 20
2380.0
 30
0.0
 11
210.0
 21
2380.0
 31
0.0
  0
LINE
  5
334
100
AcDbEntity
100
AcDbLine
  8
Vernier 1
 62
256
370
-1
  6
ByLayer
 10
205.0
 20
2385.0
 30
0.0
 11
205.0
 21
2360.0
 31
0.0
  0
LINE
  5
335
100
AcDbEntity
100
AcDbLine
  8
Vernier 1
 62
256
370
-1
  6
ByLayer
 10
220.0
 20
2360.0
 30
0.0
 11
220.0
 21
2385.0
 31
0.0
  0
LINE
  5
336
100
AcDbEntity
100
AcDbLine
  8
Vernier 1
 62
256
370
-1
  6
ByLayer
 10
210.0
 20
2380.0
 30
0.0
 11
210.0
 21
2365.0
 31
0.0
  0
LINE
  5
337
100
AcDbEntity
100
AcDbLine
  8
Vernier 1
 62
256
370
-1
  6
ByLayer
 10
215.0
 20
2365.0
 30
0.0
 11
215.0
 21
2380.0
 31
0.0
  0
LINE
  5
338
100
AcDbEntity
100
AcDbLine
  8
Vernier 1
 62
256
370
-1
  6
ByLayer
 10
245.0
 20
2360.0
 30
0.0
 11
260.0
 21
2360.0
 31
0.0
  0
LINE
  5
339
100
AcDbEntity
100
AcDbLine
  8
Vernier 1
 62
256
370
-1
  6
ByLayer
 10
295.0
 20
2360.0
 30
0.0
 11
290.0
 21
2360.0
 31
0.0
  0
LINE
  5
33A
100
AcDbEntity
100
AcDbLine
  8
Vernier 1
 62
256
370
-1
  6
ByLayer
 10
285.0
 20
2360.0
 30
0.0
 11
280.0
 21
2360.0
 31
0.0
  0
LINE
  5
33B
100
AcDbEntity
100
AcDbLine
  8
Vernier 1
 62
256
370
-1
  6
ByLayer
 10
275.0
 20
2360.0
 30
0.0
 11
270.0
 21
2360.0
 31
0.0
  0
LINE
  5
33C
100
AcDbEntity
100
AcDbLine
  8
Vernier 1
 62
256
370
-1
  6
ByLayer
 10
310.0
 20
2360.0
 30
0.0
 11
305.0
 21
2365.0
 31
0.0
  0
LINE
  5
33D
100
AcDbEntity
100
AcDbLine
  8
Vernier 1
 62
256
370
-1
  6
ByLayer
 10
360.0
 20
2365.0
 30
0.0
 11
355.0
 21
2360.0
 31
0.0
  0
LINE
  5
33E
100
AcDbEntity
100
AcDbLine
  8
Vernier 1
 62
256
370
-1
  6
ByLayer
 10
355.0
 20
2360.0
 30
0.0
 11
340.0
 21
2360.0
 31
0.0
  0
LINE
  5
33F
100
AcDbEntity
100
AcDbLine
  8
Vernier 1
 62
256
370
-1
  6
ByLayer
 10
355.0
 20
2370.0
 30
0.0
 11
350.0
 21
2365.0
 31
0.0
  0
LINE
  5
340
100
AcDbEntity
100
AcDbLine
  8
Vernier 1
 62
256
370
-1
  6
ByLayer
 10
350.0
 20
2365.0
 30
0.0
 11
345.0
 21
2365.0
 31
0.0
  0
LINE
  5
341
100
AcDbEntity
100
AcDbLine
  8
Vernier 1
 62
256
370
-1
  6
ByLayer
 10
370.0
 20
2360.0
 30
0.0
 11
375.0
 21
2360.0
 31
0.0
  0
LINE
  5
342
100
AcDbEntity
100
AcDbLine
  8
Vernier 1
 62
256
370
-1
  6
ByLayer
 10
385.0
 20
2365.0
 30
0.0
 11
390.0
 21
2360.0
 31
0.0
  0
LINE
  5
343
100
AcDbEntity
100
AcDbLine
  8
Vernier 1
 62
256
370
-1
  6
ByLayer
 10
390.0
 20
2360.0
 30
0.0
 11
395.0
 21
2360.0
 31
0.0
  0
LINE
  5
344
100
AcDbEntity
100
AcDbLine
  8
Vernier 1
 62
256
370
-1
  6
ByLayer
 10
395.0
 20
2360.0
 30
0.0
 11
400.0
 21
2365.0
 31
0.0
  0
LINE
  5
345
100
AcDbEntity
100
AcDbLine
  8
Vernier 1
 62
256
370
-1
  6
ByLayer
 10
395.0
 20
2365.0
 30
0.0
 11
390.0
 21
2365.0
 31
0.0
  0
LINE
  5
346
100
AcDbEntity
100
AcDbLine
  8
Vernier 1
 62
256
370
-1
  6
ByLayer
 10
260.0
 20
2385.0
 30
0.0
 11
255.0
 21
2385.0
 31
0.0
  0
LINE
  5
347
100
AcDbEntity
100
AcDbLine
  8
Vernier 1
 62
256
370
-1
  6
ByLayer
 10
245.0
 20
2385.0
 30
0.0
 11
250.0
 21
2385.0
 31
0.0
  0
LINE
  5
348
100
AcDbEntity
100
AcDbLine
  8
Vernier 1
 62
256
370
-1
  6
ByLayer
 10
270.0
 20
2385.0
 30
0.0
 11
295.0
 21
2385.0
 31
0.0
  0
LINE
  5
349
100
AcDbEntity
100
AcDbLine
  8
Vernier 1
 62
256
370
-1
  6
ByLayer
 10
275.0
 20
2380.0
 30
0.0
 11
280.0
 21
2380.0
 31
0.0
  0
LINE
  5
34A
100
AcDbEntity
100
AcDbLine
  8
Vernier 1
 62
256
370
-1
  6
ByLayer
 10
285.0
 20
2380.0
 30
0.0
 11
290.0
 21
2380.0
 31
0.0
  0
LINE
  5
34B
100
AcDbEntity
100
AcDbLine
  8
Vernier 1
 62
256
370
-1
  6
ByLayer
 10
245.0
 20
2385.0
 30
0.0
 11
245.0
 21
2360.0
 31
0.0
  0
LINE
  5
34C
100
AcDbEntity
100
AcDbLine
  8
Vernier 1
 62
256
370
-1
  6
ByLayer
 10
250.0
 20
2385.0
 30
0.0
 11
250.0
 21
2365.0
 31
0.0
  0
LINE
  5
34D
100
AcDbEntity
100
AcDbLine
  8
Vernier 1
 62
256
370
-1
  6
ByLayer
 10
250.0
 20
2365.0
 30
0.0
 11
255.0
 21
2365.0
 31
0.0
  0
LINE
  5
34E
100
AcDbEntity
100
AcDbLine
  8
Vernier 1
 62
256
370
-1
  6
ByLayer
 10
255.0
 20
2365.0
 30
0.0
 11
255.0
 21
2385.0
 31
0.0
  0
LINE
  5
34F
100
AcDbEntity
100
AcDbLine
  8
Vernier 1
 62
256
370
-1
  6
ByLayer
 10
260.0
 20
2360.0
 30
0.0
 11
260.0
 21
2385.0
 31
0.0
  0
LINE
  5
350
100
AcDbEntity
100
AcDbLine
  8
Vernier 1
 62
256
370
-1
  6
ByLayer
 10
295.0
 20
2385.0
 30
0.0
 11
295.0
 21
2360.0
 31
0.0
  0
LINE
  5
351
100
AcDbEntity
100
AcDbLine
  8
Vernier 1
 62
256
370
-1
  6
ByLayer
 10
290.0
 20
2380.0
 30
0.0
 11
290.0
 21
2360.0
 31
0.0
  0
LINE
  5
352
100
AcDbEntity
100
AcDbLine
  8
Vernier 1
 62
256
370
-1
  6
ByLayer
 10
285.0
 20
2380.0
 30
0.0
 11
285.0
 21
2360.0
 31
0.0
  0
LINE
  5
353
100
AcDbEntity
100
AcDbLine
  8
Vernier 1
 62
256
370
-1
  6
ByLayer
 10
270.0
 20
2360.0
 30
0.0
 11
270.0
 21
2385.0
 31
0.0
  0
LINE
  5
354
100
AcDbEntity
100
AcDbLine
  8
Vernier 1
 62
256
370
-1
  6
ByLayer
 10
275.0
 20
2380.0
 30
0.0
 11
275.0
 21
2360.0
 31
0.0
  0
LINE
  5
355
100
AcDbEntity
100
AcDbLine
  8
Vernier 1
 62
256
370
-1
  6
ByLayer
 10
280.0
 20
2360.0
 30
0.0
 11
280.0
 21
2380.0
 31
0.0
  0
LINE
  5
356
100
AcDbEntity
100
AcDbLine
  8
Vernier 1
 62
256
370
-1
  6
ByLayer
 10
340.0
 20
2385.0
 30
0.0
 11
355.0
 21
2385.0
 31
0.0
  0
LINE
  5
357
100
AcDbEntity
100
AcDbLine
  8
Vernier 1
 62
256
370
-1
  6
ByLayer
 10
355.0
 20
2385.0
 30
0.0
 11
360.0
 21
2380.0
 31
0.0
  0
LINE
  5
358
100
AcDbEntity
100
AcDbLine
  8
Vernier 1
 62
256
370
-1
  6
ByLayer
 10
345.0
 20
2380.0
 30
0.0
 11
350.0
 21
2380.0
 31
0.0
  0
LINE
  5
359
100
AcDbEntity
100
AcDbLine
  8
Vernier 1
 62
256
370
-1
  6
ByLayer
 10
350.0
 20
2380.0
 30
0.0
 11
355.0
 21
2375.0
 31
0.0
  0
LINE
  5
35A
100
AcDbEntity
100
AcDbLine
  8
Vernier 1
 62
256
370
-1
  6
ByLayer
 10
375.0
 20
2385.0
 30
0.0
 11
370.0
 21
2385.0
 31
0.0
  0
LINE
  5
35B
100
AcDbEntity
100
AcDbLine
  8
Vernier 1
 62
256
370
-1
  6
ByLayer
 10
400.0
 20
2385.0
 30
0.0
 11
395.0
 21
2385.0
 31
0.0
  0
LINE
  5
35C
100
AcDbEntity
100
AcDbLine
  8
Vernier 1
 62
256
370
-1
  6
ByLayer
 10
390.0
 20
2385.0
 30
0.0
 11
385.0
 21
2385.0
 31
0.0
  0
LINE
  5
35D
100
AcDbEntity
100
AcDbLine
  8
Vernier 1
 62
256
370
-1
  6
ByLayer
 10
390.0
 20
2365.0
 30
0.0
 11
390.0
 21
2385.0
 31
0.0
  0
LINE
  5
35E
100
AcDbEntity
100
AcDbLine
  8
Vernier 1
 62
256
370
-1
  6
ByLayer
 10
385.0
 20
2385.0
 30
0.0
 11
385.0
 21
2365.0
 31
0.0
  0
LINE
  5
35F
100
AcDbEntity
100
AcDbLine
  8
Vernier 1
 62
256
370
-1
  6
ByLayer
 10
370.0
 20
2385.0
 30
0.0
 11
370.0
 21
2360.0
 31
0.0
  0
LINE
  5
360
100
AcDbEntity
100
AcDbLine
  8
Vernier 1
 62
256
370
-1
  6
ByLayer
 10
375.0
 20
2360.0
 30
0.0
 11
375.0
 21
2385.0
 31
0.0
  0
LINE
  5
361
100
AcDbEntity
100
AcDbLine
  8
Vernier 1
 62
256
370
-1
  6
ByLayer
 10
360.0
 20
2380.0
 30
0.0
 11
360.0
 21
2365.0
 31
0.0
  0
LINE
  5
362
100
AcDbEntity
100
AcDbLine
  8
Vernier 1
 62
256
370
-1
  6
ByLayer
 10
400.0
 20
2365.0
 30
0.0
 11
400.0
 21
2385.0
 31
0.0
  0
LINE
  5
363
100
AcDbEntity
100
AcDbLine
  8
Vernier 1
 62
256
370
-1
  6
ByLayer
 10
395.0
 20
2385.0
 30
0.0
 11
395.0
 21
2365.0
 31
0.0
  0
LINE
  5
364
100
AcDbEntity
100
AcDbLine
  8
Vernier 1
 62
256
370
-1
  6
ByLayer
 10
340.0
 20
2360.0
 30
0.0
 11
340.0
 21
2385.0
 31
0.0
  0
LINE
  5
365
100
AcDbEntity
100
AcDbLine
  8
Vernier 1
 62
256
370
-1
  6
ByLayer
 10
345.0
 20
2365.0
 30
0.0
 11
345.0
 21
2380.0
 31
0.0
  0
LINE
  5
366
100
AcDbEntity
100
AcDbLine
  8
Vernier 1
 62
256
370
-1
  6
ByLayer
 10
355.0
 20
2375.0
 30
0.0
 11
355.0
 21
2370.0
 31
0.0
  0
LINE
  5
367
100
AcDbEntity
100
AcDbLine
  8
Vernier 1
 62
256
370
-1
  6
ByLayer
 10
330.0
 20
2380.0
 30
0.0
 11
310.0
 21
2360.0
 31
0.0
  0
LINE
  5
368
100
AcDbEntity
100
AcDbLine
  8
Vernier 1
 62
256
370
-1
  6
ByLayer
 10
305.0
 20
2365.0
 30
0.0
 11
325.0
 21
2385.0
 31
0.0
  0
LINE
  5
369
100
AcDbEntity
100
AcDbLine
  8
Vernier 1
 62
256
370
-1
  6
ByLayer
 10
325.0
 20
2385.0
 30
0.0
 11
330.0
 21
2380.0
 31
0.0
  0
LINE
  5
36A
100
AcDbEntity
100
AcDbLine
  8
Vernier 2
 62
256
370
-1
  6
ByLayer
 10
240.0
 20
2285.0
 30
0.0
 11
250.0
 21
2285.0
 31
0.0
  0
LINE
  5
36B
100
AcDbEntity
100
AcDbLine
  8
Vernier 2
 62
256
370
-1
  6
ByLayer
 10
250.0
 20
2285.0
 30
0.0
 11
250.0
 21
2280.0
 31
0.0
  0
LINE
  5
36C
100
AcDbEntity
100
AcDbLine
  8
Vernier 2
 62
256
370
-1
  6
ByLayer
 10
250.0
 20
2280.0
 30
0.0
 11
255.0
 21
2280.0
 31
0.0
  0
LINE
  5
36D
100
AcDbEntity
100
AcDbLine
  8
Vernier 2
 62
256
370
-1
  6
ByLayer
 10
255.0
 20
2280.0
 30
0.0
 11
255.0
 21
2285.0
 31
0.0
  0
LINE
  5
36E
100
AcDbEntity
100
AcDbLine
  8
Vernier 2
 62
256
370
-1
  6
ByLayer
 10
255.0
 20
2285.0
 30
0.0
 11
265.0
 21
2285.0
 31
0.0
  0
LINE
  5
36F
100
AcDbEntity
100
AcDbLine
  8
Vernier 2
 62
256
370
-1
  6
ByLayer
 10
215.0
 20
2260.0
 30
0.0
 11
215.0
 21
2250.0
 31
0.0
  0
LINE
  5
370
100
AcDbEntity
100
AcDbLine
  8
Vernier 2
 62
256
370
-1
  6
ByLayer
 10
215.0
 20
2250.0
 30
0.0
 11
220.0
 21
2250.0
 31
0.0
  0
LINE
  5
371
100
AcDbEntity
100
AcDbLine
  8
Vernier 2
 62
256
370
-1
  6
ByLayer
 10
220.0
 20
2250.0
 30
0.0
 11
220.0
 21
2245.0
 31
0.0
  0
LINE
  5
372
100
AcDbEntity
100
AcDbLine
  8
Vernier 2
 62
256
370
-1
  6
ByLayer
 10
220.0
 20
2245.0
 30
0.0
 11
215.0
 21
2245.0
 31
0.0
  0
LINE
  5
373
100
AcDbEntity
100
AcDbLine
  8
Vernier 2
 62
256
370
-1
  6
ByLayer
 10
215.0
 20
2245.0
 30
0.0
 11
215.0
 21
2235.0
 31
0.0
  0
LINE
  5
374
100
AcDbEntity
100
AcDbLine
  8
Vernier 2
 62
256
370
-1
  6
ByLayer
 10
240.0
 20
2210.0
 30
0.0
 11
250.0
 21
2210.0
 31
0.0
  0
LINE
  5
375
100
AcDbEntity
100
AcDbLine
  8
Vernier 2
 62
256
370
-1
  6
ByLayer
 10
250.0
 20
2210.0
 30
0.0
 11
250.0
 21
2215.0
 31
0.0
  0
LINE
  5
376
100
AcDbEntity
100
AcDbLine
  8
Vernier 2
 62
256
370
-1
  6
ByLayer
 10
250.0
 20
2215.0
 30
0.0
 11
255.0
 21
2215.0
 31
0.0
  0
LINE
  5
377
100
AcDbEntity
100
AcDbLine
  8
Vernier 2
 62
256
370
-1
  6
ByLayer
 10
255.0
 20
2215.0
 30
0.0
 11
255.0
 21
2210.0
 31
0.0
  0
LINE
  5
378
100
AcDbEntity
100
AcDbLine
  8
Vernier 2
 62
256
370
-1
  6
ByLayer
 10
255.0
 20
2210.0
 30
0.0
 11
265.0
 21
2210.0
 31
0.0
  0
LINE
  5
379
100
AcDbEntity
100
AcDbLine
  8
Vernier 2
 62
256
370
-1
  6
ByLayer
 10
290.0
 20
2235.0
 30
0.0
 11
290.0
 21
2245.0
 31
0.0
  0
LINE
  5
37A
100
AcDbEntity
100
AcDbLine
  8
Vernier 2
 62
256
370
-1
  6
ByLayer
 10
290.0
 20
2245.0
 30
0.0
 11
285.0
 21
2245.0
 31
0.0
  0
LINE
  5
37B
100
AcDbEntity
100
AcDbLine
  8
Vernier 2
 62
256
370
-1
  6
ByLayer
 10
285.0
 20
2245.0
 30
0.0
 11
285.0
 21
2250.0
 31
0.0
  0
LINE
  5
37C
100
AcDbEntity
100
AcDbLine
  8
Vernier 2
 62
256
370
-1
  6
ByLayer
 10
285.0
 20
2250.0
 30
0.0
 11
290.0
 21
2250.0
 31
0.0
  0
LINE
  5
37D
100
AcDbEntity
100
AcDbLine
  8
Vernier 2
 62
256
370
-1
  6
ByLayer
 10
290.0
 20
2250.0
 30
0.0
 11
290.0
 21
2260.0
 31
0.0
  0
LINE
  5
37E
100
AcDbEntity
100
AcDbLine
  8
Vernier 1
 62
256
370
-1
  6
ByLayer
 10
245.0
 20
2280.0
 30
0.0
 11
250.0
 21
2280.0
 31
0.0
  0
LINE
  5
37F
100
AcDbEntity
100
AcDbLine
  8
Vernier 1
 62
256
370
-1
  6
ByLayer
 10
250.0
 20
2280.0
 30
0.0
 11
250.0
 21
2275.0
 31
0.0
  0
LINE
  5
380
100
AcDbEntity
100
AcDbLine
  8
Vernier 1
 62
256
370
-1
  6
ByLayer
 10
250.0
 20
2275.0
 30
0.0
 11
255.0
 21
2275.0
 31
0.0
  0
LINE
  5
381
100
AcDbEntity
100
AcDbLine
  8
Vernier 1
 62
256
370
-1
  6
ByLayer
 10
255.0
 20
2275.0
 30
0.0
 11
255.0
 21
2280.0
 31
0.0
  0
LINE
  5
382
100
AcDbEntity
100
AcDbLine
  8
Vernier 1
 62
256
370
-1
  6
ByLayer
 10
255.0
 20
2280.0
 30
0.0
 11
260.0
 21
2280.0
 31
0.0
  0
LINE
  5
383
100
AcDbEntity
100
AcDbLine
  8
Vernier 1
 62
256
370
-1
  6
ByLayer
 10
285.0
 20
2255.0
 30
0.0
 11
285.0
 21
2250.0
 31
0.0
  0
LINE
  5
384
100
AcDbEntity
100
AcDbLine
  8
Vernier 1
 62
256
370
-1
  6
ByLayer
 10
285.0
 20
2250.0
 30
0.0
 11
280.0
 21
2250.0
 31
0.0
  0
LINE
  5
385
100
AcDbEntity
100
AcDbLine
  8
Vernier 1
 62
256
370
-1
  6
ByLayer
 10
280.0
 20
2250.0
 30
0.0
 11
280.0
 21
2245.0
 31
0.0
  0
LINE
  5
386
100
AcDbEntity
100
AcDbLine
  8
Vernier 1
 62
256
370
-1
  6
ByLayer
 10
280.0
 20
2245.0
 30
0.0
 11
285.0
 21
2245.0
 31
0.0
  0
LINE
  5
387
100
AcDbEntity
100
AcDbLine
  8
Vernier 1
 62
256
370
-1
  6
ByLayer
 10
285.0
 20
2245.0
 30
0.0
 11
285.0
 21
2240.0
 31
0.0
  0
LINE
  5
388
100
AcDbEntity
100
AcDbLine
  8
Vernier 1
 62
256
370
-1
  6
ByLayer
 10
260.0
 20
2215.0
 30
0.0
 11
255.0
 21
2215.0
 31
0.0
  0
LINE
  5
389
100
AcDbEntity
100
AcDbLine
  8
Vernier 1
 62
256
370
-1
  6
ByLayer
 10
255.0
 20
2215.0
 30
0.0
 11
255.0
 21
2220.0
 31
0.0
  0
LINE
  5
38A
100
AcDbEntity
100
AcDbLine
  8
Vernier 1
 62
256
370
-1
  6
ByLayer
 10
255.0
 20
2220.0
 30
0.0
 11
250.0
 21
2220.0
 31
0.0
  0
LINE
  5
38B
100
AcDbEntity
100
AcDbLine
  8
Vernier 1
 62
256
370
-1
  6
ByLayer
 10
250.0
 20
2220.0
 30
0.0
 11
250.0
 21
2215.0
 31
0.0
  0
LINE
  5
38C
100
AcDbEntity
100
AcDbLine
  8
Vernier 1
 62
256
370
-1
  6
ByLayer
 10
250.0
 20
2215.0
 30
0.0
 11
245.0
 21
2215.0
 31
0.0
  0
LINE
  5
38D
100
AcDbEntity
100
AcDbLine
  8
Vernier 1
 62
256
370
-1
  6
ByLayer
 10
220.0
 20
2240.0
 30
0.0
 11
220.0
 21
2245.0
 31
0.0
  0
LINE
  5
38E
100
AcDbEntity
100
AcDbLine
  8
Vernier 1
 62
256
370
-1
  6
ByLayer
 10
220.0
 20
2245.0
 30
0.0
 11
225.0
 21
2245.0
 31
0.0
  0
LINE
  5
38F
100
AcDbEntity
100
AcDbLine
  8
Vernier 1
 62
256
370
-1
  6
ByLayer
 10
225.0
 20
2245.0
 30
0.0
 11
225.0
 21
2250.0
 31
0.0
  0
LINE
  5
390
100
AcDbEntity
100
AcDbLine
  8
Vernier 1
 62
256
370
-1
  6
ByLayer
 10
225.0
 20
2250.0
 30
0.0
 11
220.0
 21
2250.0
 31
0.0
  0
LINE
  5
391
100
AcDbEntity
100
AcDbLine
  8
Vernier 1
 62
256
370
-1
  6
ByLayer
 10
220.0
 20
2250.0
 30
0.0
 11
220.0
 21
2255.0
 31
0.0
  0
LINE
  5
392
100
AcDbEntity
100
AcDbLine
  8
Vernier 1
 62
256
370
-1
  6
ByLayer
 10
405.0
 20
2390.0
 30
0.0
 11
405.0
 21
2355.0
 31
0.0
  0
LINE
  5
393
100
AcDbEntity
100
AcDbLine
  8
Vernier 2
 62
256
370
-1
  6
ByLayer
 10
75.0
 20
2400.0
 30
0.0
 11
75.0
 21
2425.0
 31
0.0
  0
LINE
  5
394
100
AcDbEntity
100
AcDbLine
  8
Vernier 2
 62
256
370
-1
  6
ByLayer
 10
75.0
 20
2425.0
 30
0.0
 11
90.0
 21
2425.0
 31
0.0
  0
LINE
  5
395
100
AcDbEntity
100
AcDbLine
  8
Vernier 2
 62
256
370
-1
  6
ByLayer
 10
90.0
 20
2425.0
 30
0.0
 11
90.0
 21
2400.0
 31
0.0
  0
LINE
  5
396
100
AcDbEntity
100
AcDbLine
  8
Vernier 2
 62
256
370
-1
  6
ByLayer
 10
90.0
 20
2400.0
 30
0.0
 11
85.0
 21
2400.0
 31
0.0
  0
LINE
  5
397
100
AcDbEntity
100
AcDbLine
  8
Vernier 2
 62
256
370
-1
  6
ByLayer
 10
85.0
 20
2400.0
 30
0.0
 11
85.0
 21
2410.0
 31
0.0
  0
LINE
  5
398
100
AcDbEntity
100
AcDbLine
  8
Vernier 2
 62
256
370
-1
  6
ByLayer
 10
85.0
 20
2410.0
 30
0.0
 11
80.0
 21
2410.0
 31
0.0
  0
LINE
  5
399
100
AcDbEntity
100
AcDbLine
  8
Vernier 2
 62
256
370
-1
  6
ByLayer
 10
80.0
 20
2410.0
 30
0.0
 11
80.0
 21
2400.0
 31
0.0
  0
LINE
  5
39A
100
AcDbEntity
100
AcDbLine
  8
Vernier 2
 62
256
370
-1
  6
ByLayer
 10
80.0
 20
2400.0
 30
0.0
 11
75.0
 21
2400.0
 31
0.0
  0
LINE
  5
39B
100
AcDbEntity
100
AcDbLine
  8
Vernier 2
 62
256
370
-1
  6
ByLayer
 10
80.0
 20
2420.0
 30
0.0
 11
80.0
 21
2415.0
 31
0.0
  0
LINE
  5
39C
100
AcDbEntity
100
AcDbLine
  8
Vernier 2
 62
256
370
-1
  6
ByLayer
 10
80.0
 20
2415.0
 30
0.0
 11
85.0
 21
2415.0
 31
0.0
  0
LINE
  5
39D
100
AcDbEntity
100
AcDbLine
  8
Vernier 2
 62
256
370
-1
  6
ByLayer
 10
85.0
 20
2415.0
 30
0.0
 11
85.0
 21
2420.0
 31
0.0
  0
LINE
  5
39E
100
AcDbEntity
100
AcDbLine
  8
Vernier 2
 62
256
370
-1
  6
ByLayer
 10
85.0
 20
2420.0
 30
0.0
 11
85.0
 21
2420.0
 31
0.0
  0
LINE
  5
39F
100
AcDbEntity
100
AcDbLine
  8
Vernier 2
 62
256
370
-1
  6
ByLayer
 10
80.0
 20
2420.0
 30
0.0
 11
85.0
 21
2420.0
 31
0.0
  0
LINE
  5
3A0
100
AcDbEntity
100
AcDbLine
  8
Vernier 2
 62
256
370
-1
  6
ByLayer
 10
100.0
 20
2425.0
 30
0.0
 11
100.0
 21
2400.0
 31
0.0
  0
LINE
  5
3A1
100
AcDbEntity
100
AcDbLine
  8
Vernier 2
 62
256
370
-1
  6
ByLayer
 10
100.0
 20
2400.0
 30
0.0
 11
115.0
 21
2400.0
 31
0.0
  0
LINE
  5
3A2
100
AcDbEntity
100
AcDbLine
  8
Vernier 2
 62
256
370
-1
  6
ByLayer
 10
115.0
 20
2400.0
 30
0.0
 11
115.0
 21
2405.0
 31
0.0
  0
LINE
  5
3A3
100
AcDbEntity
100
AcDbLine
  8
Vernier 2
 62
256
370
-1
  6
ByLayer
 10
115.0
 20
2405.0
 30
0.0
 11
105.0
 21
2405.0
 31
0.0
  0
LINE
  5
3A4
100
AcDbEntity
100
AcDbLine
  8
Vernier 2
 62
256
370
-1
  6
ByLayer
 10
105.0
 20
2405.0
 30
0.0
 11
105.0
 21
2425.0
 31
0.0
  0
LINE
  5
3A5
100
AcDbEntity
100
AcDbLine
  8
Vernier 2
 62
256
370
-1
  6
ByLayer
 10
105.0
 20
2425.0
 30
0.0
 11
100.0
 21
2425.0
 31
0.0
  0
LINE
  5
3A6
100
AcDbEntity
100
AcDbLine
  8
Vernier 2
 62
256
370
-1
  6
ByLayer
 10
125.0
 20
2425.0
 30
0.0
 11
130.0
 21
2425.0
 31
0.0
  0
LINE
  5
3A7
100
AcDbEntity
100
AcDbLine
  8
Vernier 2
 62
256
370
-1
  6
ByLayer
 10
130.0
 20
2425.0
 30
0.0
 11
130.0
 21
2400.0
 31
0.0
  0
LINE
  5
3A8
100
AcDbEntity
100
AcDbLine
  8
Vernier 2
 62
256
370
-1
  6
ByLayer
 10
130.0
 20
2400.0
 30
0.0
 11
125.0
 21
2400.0
 31
0.0
  0
LINE
  5
3A9
100
AcDbEntity
100
AcDbLine
  8
Vernier 2
 62
256
370
-1
  6
ByLayer
 10
125.0
 20
2400.0
 30
0.0
 11
125.0
 21
2425.0
 31
0.0
  0
LINE
  5
3AA
100
AcDbEntity
100
AcDbLine
  8
Vernier 2
 62
256
370
-1
  6
ByLayer
 10
140.0
 20
2425.0
 30
0.0
 11
140.0
 21
2400.0
 31
0.0
  0
LINE
  5
3AB
100
AcDbEntity
100
AcDbLine
  8
Vernier 2
 62
256
370
-1
  6
ByLayer
 10
140.0
 20
2400.0
 30
0.0
 11
155.0
 21
2400.0
 31
0.0
  0
LINE
  5
3AC
100
AcDbEntity
100
AcDbLine
  8
Vernier 2
 62
256
370
-1
  6
ByLayer
 10
155.0
 20
2400.0
 30
0.0
 11
155.0
 21
2410.0
 31
0.0
  0
LINE
  5
3AD
100
AcDbEntity
100
AcDbLine
  8
Vernier 2
 62
256
370
-1
  6
ByLayer
 10
155.0
 20
2410.0
 30
0.0
 11
150.0
 21
2410.0
 31
0.0
  0
LINE
  5
3AE
100
AcDbEntity
100
AcDbLine
  8
Vernier 2
 62
256
370
-1
  6
ByLayer
 10
150.0
 20
2410.0
 30
0.0
 11
150.0
 21
2405.0
 31
0.0
  0
LINE
  5
3AF
100
AcDbEntity
100
AcDbLine
  8
Vernier 2
 62
256
370
-1
  6
ByLayer
 10
150.0
 20
2405.0
 30
0.0
 11
145.0
 21
2405.0
 31
0.0
  0
LINE
  5
3B0
100
AcDbEntity
100
AcDbLine
  8
Vernier 2
 62
256
370
-1
  6
ByLayer
 10
145.0
 20
2405.0
 30
0.0
 11
145.0
 21
2420.0
 31
0.0
  0
LINE
  5
3B1
100
AcDbEntity
100
AcDbLine
  8
Vernier 2
 62
256
370
-1
  6
ByLayer
 10
145.0
 20
2420.0
 30
0.0
 11
155.0
 21
2420.0
 31
0.0
  0
LINE
  5
3B2
100
AcDbEntity
100
AcDbLine
  8
Vernier 2
 62
256
370
-1
  6
ByLayer
 10
155.0
 20
2420.0
 30
0.0
 11
155.0
 21
2425.0
 31
0.0
  0
LINE
  5
3B3
100
AcDbEntity
100
AcDbLine
  8
Vernier 2
 62
256
370
-1
  6
ByLayer
 10
155.0
 20
2425.0
 30
0.0
 11
140.0
 21
2425.0
 31
0.0
  0
LINE
  5
3B4
100
AcDbEntity
100
AcDbLine
  8
Vernier 2
 62
256
370
-1
  6
ByLayer
 10
165.0
 20
2400.0
 30
0.0
 11
165.0
 21
2425.0
 31
0.0
  0
LINE
  5
3B5
100
AcDbEntity
100
AcDbLine
  8
Vernier 2
 62
256
370
-1
  6
ByLayer
 10
165.0
 20
2425.0
 30
0.0
 11
170.0
 21
2425.0
 31
0.0
  0
LINE
  5
3B6
100
AcDbEntity
100
AcDbLine
  8
Vernier 2
 62
256
370
-1
  6
ByLayer
 10
180.0
 20
2410.0
 30
0.0
 11
180.0
 21
2425.0
 31
0.0
  0
LINE
  5
3B7
100
AcDbEntity
100
AcDbLine
  8
Vernier 2
 62
256
370
-1
  6
ByLayer
 10
180.0
 20
2425.0
 30
0.0
 11
185.0
 21
2425.0
 31
0.0
  0
LINE
  5
3B8
100
AcDbEntity
100
AcDbLine
  8
Vernier 2
 62
256
370
-1
  6
ByLayer
 10
185.0
 20
2425.0
 30
0.0
 11
185.0
 21
2400.0
 31
0.0
  0
LINE
  5
3B9
100
AcDbEntity
100
AcDbLine
  8
Vernier 2
 62
256
370
-1
  6
ByLayer
 10
185.0
 20
2400.0
 30
0.0
 11
180.0
 21
2400.0
 31
0.0
  0
LINE
  5
3BA
100
AcDbEntity
100
AcDbLine
  8
Vernier 2
 62
256
370
-1
  6
ByLayer
 10
170.0
 20
2400.0
 30
0.0
 11
165.0
 21
2400.0
 31
0.0
  0
LINE
  5
3BB
100
AcDbEntity
100
AcDbLine
  8
Vernier 2
 62
256
370
-1
  6
ByLayer
 10
180.0
 20
2400.0
 30
0.0
 11
170.0
 21
2415.0
 31
0.0
  0
LINE
  5
3BC
100
AcDbEntity
100
AcDbLine
  8
Vernier 2
 62
256
370
-1
  6
ByLayer
 10
170.0
 20
2415.0
 30
0.0
 11
170.0
 21
2400.0
 31
0.0
  0
LINE
  5
3BD
100
AcDbEntity
100
AcDbLine
  8
Vernier 2
 62
256
370
-1
  6
ByLayer
 10
170.0
 20
2425.0
 30
0.0
 11
180.0
 21
2410.0
 31
0.0
  0
LINE
  5
3BE
100
AcDbEntity
100
AcDbLine
  8
Vernier 2
 62
256
370
-1
  6
ByLayer
 10
195.0
 20
2400.0
 30
0.0
 11
195.0
 21
2425.0
 31
0.0
  0
LINE
  5
3BF
100
AcDbEntity
100
AcDbLine
  8
Vernier 2
 62
256
370
-1
  6
ByLayer
 10
195.0
 20
2425.0
 30
0.0
 11
220.0
 21
2425.0
 31
0.0
  0
LINE
  5
3C0
100
AcDbEntity
100
AcDbLine
  8
Vernier 2
 62
256
370
-1
  6
ByLayer
 10
220.0
 20
2425.0
 30
0.0
 11
220.0
 21
2400.0
 31
0.0
  0
LINE
  5
3C1
100
AcDbEntity
100
AcDbLine
  8
Vernier 2
 62
256
370
-1
  6
ByLayer
 10
220.0
 20
2400.0
 30
0.0
 11
215.0
 21
2400.0
 31
0.0
  0
LINE
  5
3C2
100
AcDbEntity
100
AcDbLine
  8
Vernier 2
 62
256
370
-1
  6
ByLayer
 10
215.0
 20
2400.0
 30
0.0
 11
215.0
 21
2420.0
 31
0.0
  0
LINE
  5
3C3
100
AcDbEntity
100
AcDbLine
  8
Vernier 2
 62
256
370
-1
  6
ByLayer
 10
215.0
 20
2420.0
 30
0.0
 11
210.0
 21
2420.0
 31
0.0
  0
LINE
  5
3C4
100
AcDbEntity
100
AcDbLine
  8
Vernier 2
 62
256
370
-1
  6
ByLayer
 10
210.0
 20
2420.0
 30
0.0
 11
210.0
 21
2400.0
 31
0.0
  0
LINE
  5
3C5
100
AcDbEntity
100
AcDbLine
  8
Vernier 2
 62
256
370
-1
  6
ByLayer
 10
210.0
 20
2400.0
 30
0.0
 11
205.0
 21
2400.0
 31
0.0
  0
LINE
  5
3C6
100
AcDbEntity
100
AcDbLine
  8
Vernier 2
 62
256
370
-1
  6
ByLayer
 10
205.0
 20
2400.0
 30
0.0
 11
205.0
 21
2420.0
 31
0.0
  0
LINE
  5
3C7
100
AcDbEntity
100
AcDbLine
  8
Vernier 2
 62
256
370
-1
  6
ByLayer
 10
205.0
 20
2420.0
 30
0.0
 11
200.0
 21
2420.0
 31
0.0
  0
LINE
  5
3C8
100
AcDbEntity
100
AcDbLine
  8
Vernier 2
 62
256
370
-1
  6
ByLayer
 10
200.0
 20
2420.0
 30
0.0
 11
200.0
 21
2400.0
 31
0.0
  0
LINE
  5
3C9
100
AcDbEntity
100
AcDbLine
  8
Vernier 2
 62
256
370
-1
  6
ByLayer
 10
200.0
 20
2400.0
 30
0.0
 11
195.0
 21
2400.0
 31
0.0
  0
LINE
  5
3CA
100
AcDbEntity
100
AcDbLine
  8
Vernier 2
 62
256
370
-1
  6
ByLayer
 10
230.0
 20
2400.0
 30
0.0
 11
230.0
 21
2425.0
 31
0.0
  0
LINE
  5
3CB
100
AcDbEntity
100
AcDbLine
  8
Vernier 2
 62
256
370
-1
  6
ByLayer
 10
230.0
 20
2425.0
 30
0.0
 11
245.0
 21
2425.0
 31
0.0
  0
LINE
  5
3CC
100
AcDbEntity
100
AcDbLine
  8
Vernier 2
 62
256
370
-1
  6
ByLayer
 10
245.0
 20
2425.0
 30
0.0
 11
245.0
 21
2420.0
 31
0.0
  0
LINE
  5
3CD
100
AcDbEntity
100
AcDbLine
  8
Vernier 2
 62
256
370
-1
  6
ByLayer
 10
245.0
 20
2420.0
 30
0.0
 11
235.0
 21
2420.0
 31
0.0
  0
LINE
  5
3CE
100
AcDbEntity
100
AcDbLine
  8
Vernier 2
 62
256
370
-1
  6
ByLayer
 10
235.0
 20
2420.0
 30
0.0
 11
235.0
 21
2415.0
 31
0.0
  0
LINE
  5
3CF
100
AcDbEntity
100
AcDbLine
  8
Vernier 2
 62
256
370
-1
  6
ByLayer
 10
235.0
 20
2415.0
 30
0.0
 11
245.0
 21
2415.0
 31
0.0
  0
LINE
  5
3D0
100
AcDbEntity
100
AcDbLine
  8
Vernier 2
 62
256
370
-1
  6
ByLayer
 10
245.0
 20
2415.0
 30
0.0
 11
245.0
 21
2410.0
 31
0.0
  0
LINE
  5
3D1
100
AcDbEntity
100
AcDbLine
  8
Vernier 2
 62
256
370
-1
  6
ByLayer
 10
245.0
 20
2410.0
 30
0.0
 11
235.0
 21
2410.0
 31
0.0
  0
LINE
  5
3D2
100
AcDbEntity
100
AcDbLine
  8
Vernier 2
 62
256
370
-1
  6
ByLayer
 10
235.0
 20
2410.0
 30
0.0
 11
235.0
 21
2405.0
 31
0.0
  0
LINE
  5
3D3
100
AcDbEntity
100
AcDbLine
  8
Vernier 2
 62
256
370
-1
  6
ByLayer
 10
235.0
 20
2405.0
 30
0.0
 11
245.0
 21
2405.0
 31
0.0
  0
LINE
  5
3D4
100
AcDbEntity
100
AcDbLine
  8
Vernier 2
 62
256
370
-1
  6
ByLayer
 10
245.0
 20
2405.0
 30
0.0
 11
245.0
 21
2400.0
 31
0.0
  0
LINE
  5
3D5
100
AcDbEntity
100
AcDbLine
  8
Vernier 2
 62
256
370
-1
  6
ByLayer
 10
245.0
 20
2400.0
 30
0.0
 11
230.0
 21
2400.0
 31
0.0
  0
LINE
  5
3D6
100
AcDbEntity
100
AcDbLine
  8
Vernier 2
 62
256
370
-1
  6
ByLayer
 10
255.0
 20
2400.0
 30
0.0
 11
255.0
 21
2425.0
 31
0.0
  0
LINE
  5
3D7
100
AcDbEntity
100
AcDbLine
  8
Vernier 2
 62
256
370
-1
  6
ByLayer
 10
270.0
 20
2410.0
 30
0.0
 11
270.0
 21
2425.0
 31
0.0
  0
LINE
  5
3D8
100
AcDbEntity
100
AcDbLine
  8
Vernier 2
 62
256
370
-1
  6
ByLayer
 10
270.0
 20
2425.0
 30
0.0
 11
275.0
 21
2425.0
 31
0.0
  0
LINE
  5
3D9
100
AcDbEntity
100
AcDbLine
  8
Vernier 2
 62
256
370
-1
  6
ByLayer
 10
275.0
 20
2425.0
 30
0.0
 11
275.0
 21
2400.0
 31
0.0
  0
LINE
  5
3DA
100
AcDbEntity
100
AcDbLine
  8
Vernier 2
 62
256
370
-1
  6
ByLayer
 10
275.0
 20
2400.0
 30
0.0
 11
270.0
 21
2400.0
 31
0.0
  0
LINE
  5
3DB
100
AcDbEntity
100
AcDbLine
  8
Vernier 2
 62
256
370
-1
  6
ByLayer
 10
260.0
 20
2400.0
 30
0.0
 11
255.0
 21
2400.0
 31
0.0
  0
LINE
  5
3DC
100
AcDbEntity
100
AcDbLine
  8
Vernier 2
 62
256
370
-1
  6
ByLayer
 10
260.0
 20
2425.0
 30
0.0
 11
270.0
 21
2410.0
 31
0.0
  0
LINE
  5
3DD
100
AcDbEntity
100
AcDbLine
  8
Vernier 2
 62
256
370
-1
  6
ByLayer
 10
255.0
 20
2425.0
 30
0.0
 11
260.0
 21
2425.0
 31
0.0
  0
LINE
  5
3DE
100
AcDbEntity
100
AcDbLine
  8
Vernier 2
 62
256
370
-1
  6
ByLayer
 10
260.0
 20
2425.0
 30
0.0
 11
260.0
 21
2425.0
 31
0.0
  0
LINE
  5
3DF
100
AcDbEntity
100
AcDbLine
  8
Vernier 2
 62
256
370
-1
  6
ByLayer
 10
270.0
 20
2400.0
 30
0.0
 11
260.0
 21
2415.0
 31
0.0
  0
LINE
  5
3E0
100
AcDbEntity
100
AcDbLine
  8
Vernier 2
 62
256
370
-1
  6
ByLayer
 10
260.0
 20
2415.0
 30
0.0
 11
260.0
 21
2400.0
 31
0.0
  0
LINE
  5
3E1
100
AcDbEntity
100
AcDbLine
  8
Vernier 2
 62
256
370
-1
  6
ByLayer
 10
285.0
 20
2425.0
 30
0.0
 11
285.0
 21
2420.0
 31
0.0
  0
LINE
  5
3E2
100
AcDbEntity
100
AcDbLine
  8
Vernier 2
 62
256
370
-1
  6
ByLayer
 10
285.0
 20
2420.0
 30
0.0
 11
290.0
 21
2420.0
 31
0.0
  0
LINE
  5
3E3
100
AcDbEntity
100
AcDbLine
  8
Vernier 2
 62
256
370
-1
  6
ByLayer
 10
290.0
 20
2420.0
 30
0.0
 11
290.0
 21
2400.0
 31
0.0
  0
LINE
  5
3E4
100
AcDbEntity
100
AcDbLine
  8
Vernier 2
 62
256
370
-1
  6
ByLayer
 10
290.0
 20
2400.0
 30
0.0
 11
295.0
 21
2400.0
 31
0.0
  0
LINE
  5
3E5
100
AcDbEntity
100
AcDbLine
  8
Vernier 2
 62
256
370
-1
  6
ByLayer
 10
295.0
 20
2400.0
 30
0.0
 11
295.0
 21
2420.0
 31
0.0
  0
LINE
  5
3E6
100
AcDbEntity
100
AcDbLine
  8
Vernier 2
 62
256
370
-1
  6
ByLayer
 10
295.0
 20
2420.0
 30
0.0
 11
300.0
 21
2420.0
 31
0.0
  0
LINE
  5
3E7
100
AcDbEntity
100
AcDbLine
  8
Vernier 2
 62
256
370
-1
  6
ByLayer
 10
300.0
 20
2420.0
 30
0.0
 11
300.0
 21
2425.0
 31
0.0
  0
LINE
  5
3E8
100
AcDbEntity
100
AcDbLine
  8
Vernier 2
 62
256
370
-1
  6
ByLayer
 10
300.0
 20
2425.0
 30
0.0
 11
285.0
 21
2425.0
 31
0.0
  0
LINE
  5
3E9
100
AcDbEntity
100
AcDbLine
  8
Vernier 2
 62
256
370
-1
  6
ByLayer
 10
325.0
 20
2425.0
 30
0.0
 11
325.0
 21
2420.0
 31
0.0
  0
LINE
  5
3EA
100
AcDbEntity
100
AcDbLine
  8
Vernier 2
 62
256
370
-1
  6
ByLayer
 10
325.0
 20
2420.0
 30
0.0
 11
330.0
 21
2420.0
 31
0.0
  0
LINE
  5
3EB
100
AcDbEntity
100
AcDbLine
  8
Vernier 2
 62
256
370
-1
  6
ByLayer
 10
330.0
 20
2420.0
 30
0.0
 11
330.0
 21
2400.0
 31
0.0
  0
LINE
  5
3EC
100
AcDbEntity
100
AcDbLine
  8
Vernier 2
 62
256
370
-1
  6
ByLayer
 10
330.0
 20
2400.0
 30
0.0
 11
335.0
 21
2400.0
 31
0.0
  0
LINE
  5
3ED
100
AcDbEntity
100
AcDbLine
  8
Vernier 2
 62
256
370
-1
  6
ByLayer
 10
335.0
 20
2400.0
 30
0.0
 11
335.0
 21
2420.0
 31
0.0
  0
LINE
  5
3EE
100
AcDbEntity
100
AcDbLine
  8
Vernier 2
 62
256
370
-1
  6
ByLayer
 10
335.0
 20
2420.0
 30
0.0
 11
340.0
 21
2420.0
 31
0.0
  0
LINE
  5
3EF
100
AcDbEntity
100
AcDbLine
  8
Vernier 2
 62
256
370
-1
  6
ByLayer
 10
340.0
 20
2420.0
 30
0.0
 11
340.0
 21
2425.0
 31
0.0
  0
LINE
  5
3F0
100
AcDbEntity
100
AcDbLine
  8
Vernier 2
 62
256
370
-1
  6
ByLayer
 10
340.0
 20
2425.0
 30
0.0
 11
325.0
 21
2425.0
 31
0.0
  0
LINE
  5
3F1
100
AcDbEntity
100
AcDbLine
  8
Vernier 2
 62
256
370
-1
  6
ByLayer
 10
350.0
 20
2425.0
 30
0.0
 11
350.0
 21
2400.0
 31
0.0
  0
LINE
  5
3F2
100
AcDbEntity
100
AcDbLine
  8
Vernier 2
 62
256
370
-1
  6
ByLayer
 10
350.0
 20
2400.0
 30
0.0
 11
365.0
 21
2400.0
 31
0.0
  0
LINE
  5
3F3
100
AcDbEntity
100
AcDbLine
  8
Vernier 2
 62
256
370
-1
  6
ByLayer
 10
365.0
 20
2400.0
 30
0.0
 11
365.0
 21
2405.0
 31
0.0
  0
LINE
  5
3F4
100
AcDbEntity
100
AcDbLine
  8
Vernier 2
 62
256
370
-1
  6
ByLayer
 10
365.0
 20
2405.0
 30
0.0
 11
355.0
 21
2405.0
 31
0.0
  0
LINE
  5
3F5
100
AcDbEntity
100
AcDbLine
  8
Vernier 2
 62
256
370
-1
  6
ByLayer
 10
355.0
 20
2405.0
 30
0.0
 11
355.0
 21
2410.0
 31
0.0
  0
LINE
  5
3F6
100
AcDbEntity
100
AcDbLine
  8
Vernier 2
 62
256
370
-1
  6
ByLayer
 10
355.0
 20
2410.0
 30
0.0
 11
365.0
 21
2410.0
 31
0.0
  0
LINE
  5
3F7
100
AcDbEntity
100
AcDbLine
  8
Vernier 2
 62
256
370
-1
  6
ByLayer
 10
365.0
 20
2410.0
 30
0.0
 11
365.0
 21
2415.0
 31
0.0
  0
LINE
  5
3F8
100
AcDbEntity
100
AcDbLine
  8
Vernier 2
 62
256
370
-1
  6
ByLayer
 10
365.0
 20
2415.0
 30
0.0
 11
355.0
 21
2415.0
 31
0.0
  0
LINE
  5
3F9
100
AcDbEntity
100
AcDbLine
  8
Vernier 2
 62
256
370
-1
  6
ByLayer
 10
355.0
 20
2415.0
 30
0.0
 11
355.0
 21
2420.0
 31
0.0
  0
LINE
  5
3FA
100
AcDbEntity
100
AcDbLine
  8
Vernier 2
 62
256
370
-1
  6
ByLayer
 10
355.0
 20
2420.0
 30
0.0
 11
365.0
 21
2420.0
 31
0.0
  0
LINE
  5
3FB
100
AcDbEntity
100
AcDbLine
  8
Vernier 2
 62
256
370
-1
  6
ByLayer
 10
365.0
 20
2420.0
 30
0.0
 11
365.0
 21
2425.0
 31
0.0
  0
LINE
  5
3FC
100
AcDbEntity
100
AcDbLine
  8
Vernier 2
 62
256
370
-1
  6
ByLayer
 10
365.0
 20
2425.0
 30
0.0
 11
350.0
 21
2425.0
 31
0.0
  0
LINE
  5
3FD
100
AcDbEntity
100
AcDbLine
  8
Vernier 2
 62
256
370
-1
  6
ByLayer
 10
375.0
 20
2405.0
 30
0.0
 11
375.0
 21
2400.0
 31
0.0
  0
LINE
  5
3FE
100
AcDbEntity
100
AcDbLine
  8
Vernier 2
 62
256
370
-1
  6
ByLayer
 10
380.0
 20
2420.0
 30
0.0
 11
380.0
 21
2415.0
 31
0.0
  0
LINE
  5
3FF
100
AcDbEntity
100
AcDbLine
  8
Vernier 2
 62
256
370
-1
  6
ByLayer
 10
390.0
 20
2400.0
 30
0.0
 11
390.0
 21
2415.0
 31
0.0
  0
LINE
  5
400
100
AcDbEntity
100
AcDbLine
  8
Vernier 2
 62
256
370
-1
  6
ByLayer
 10
385.0
 20
2405.0
 30
0.0
 11
375.0
 21
2405.0
 31
0.0
  0
LINE
  5
401
100
AcDbEntity
100
AcDbLine
  8
Vernier 2
 62
256
370
-1
  6
ByLayer
 10
375.0
 20
2400.0
 30
0.0
 11
390.0
 21
2400.0
 31
0.0
  0
LINE
  5
402
100
AcDbEntity
100
AcDbLine
  8
Vernier 2
 62
256
370
-1
  6
ByLayer
 10
385.0
 20
2410.0
 30
0.0
 11
385.0
 21
2405.0
 31
0.0
  0
LINE
  5
403
100
AcDbEntity
100
AcDbLine
  8
Vernier 2
 62
256
370
-1
  6
ByLayer
 10
375.0
 20
2410.0
 30
0.0
 11
385.0
 21
2410.0
 31
0.0
  0
LINE
  5
404
100
AcDbEntity
100
AcDbLine
  8
Vernier 2
 62
256
370
-1
  6
ByLayer
 10
390.0
 20
2415.0
 30
0.0
 11
380.0
 21
2415.0
 31
0.0
  0
LINE
  5
405
100
AcDbEntity
100
AcDbLine
  8
Vernier 2
 62
256
370
-1
  6
ByLayer
 10
375.0
 20
2425.0
 30
0.0
 11
375.0
 21
2410.0
 31
0.0
  0
LINE
  5
406
100
AcDbEntity
100
AcDbLine
  8
Vernier 2
 62
256
370
-1
  6
ByLayer
 10
390.0
 20
2425.0
 30
0.0
 11
375.0
 21
2425.0
 31
0.0
  0
LINE
  5
407
100
AcDbEntity
100
AcDbLine
  8
Vernier 2
 62
256
370
-1
  6
ByLayer
 10
390.0
 20
2420.0
 30
0.0
 11
390.0
 21
2425.0
 31
0.0
  0
LINE
  5
408
100
AcDbEntity
100
AcDbLine
  8
Vernier 2
 62
256
370
-1
  6
ByLayer
 10
380.0
 20
2420.0
 30
0.0
 11
390.0
 21
2420.0
 31
0.0
  0
LINE
  5
409
100
AcDbEntity
100
AcDbLine
  8
Vernier 2
 62
256
370
-1
  6
ByLayer
 10
400.0
 20
2425.0
 30
0.0
 11
400.0
 21
2420.0
 31
0.0
  0
LINE
  5
40A
100
AcDbEntity
100
AcDbLine
  8
Vernier 2
 62
256
370
-1
  6
ByLayer
 10
400.0
 20
2420.0
 30
0.0
 11
405.0
 21
2420.0
 31
0.0
  0
LINE
  5
40B
100
AcDbEntity
100
AcDbLine
  8
Vernier 2
 62
256
370
-1
  6
ByLayer
 10
405.0
 20
2420.0
 30
0.0
 11
405.0
 21
2400.0
 31
0.0
  0
LINE
  5
40C
100
AcDbEntity
100
AcDbLine
  8
Vernier 2
 62
256
370
-1
  6
ByLayer
 10
405.0
 20
2400.0
 30
0.0
 11
410.0
 21
2400.0
 31
0.0
  0
LINE
  5
40D
100
AcDbEntity
100
AcDbLine
  8
Vernier 2
 62
256
370
-1
  6
ByLayer
 10
410.0
 20
2400.0
 30
0.0
 11
410.0
 21
2420.0
 31
0.0
  0
LINE
  5
40E
100
AcDbEntity
100
AcDbLine
  8
Vernier 2
 62
256
370
-1
  6
ByLayer
 10
410.0
 20
2420.0
 30
0.0
 11
415.0
 21
2420.0
 31
0.0
  0
LINE
  5
40F
100
AcDbEntity
100
AcDbLine
  8
Vernier 2
 62
256
370
-1
  6
ByLayer
 10
415.0
 20
2420.0
 30
0.0
 11
415.0
 21
2420.0
 31
0.0
  0
LINE
  5
410
100
AcDbEntity
100
AcDbLine
  8
Vernier 2
 62
256
370
-1
  6
ByLayer
 10
415.0
 20
2420.0
 30
0.0
 11
415.0
 21
2425.0
 31
0.0
  0
LINE
  5
411
100
AcDbEntity
100
AcDbLine
  8
Vernier 2
 62
256
370
-1
  6
ByLayer
 10
415.0
 20
2425.0
 30
0.0
 11
400.0
 21
2425.0
 31
0.0
  0
LINE
  5
412
100
AcDbEntity
100
AcDbLine
  8
Vernier 2
 62
256
370
-1
  6
ByLayer
 10
185.0
 20
2435.0
 30
0.0
 11
185.0
 21
2460.0
 31
0.0
  0
LINE
  5
413
100
AcDbEntity
100
AcDbLine
  8
Vernier 2
 62
256
370
-1
  6
ByLayer
 10
185.0
 20
2460.0
 30
0.0
 11
200.0
 21
2460.0
 31
0.0
  0
LINE
  5
414
100
AcDbEntity
100
AcDbLine
  8
Vernier 2
 62
256
370
-1
  6
ByLayer
 10
200.0
 20
2460.0
 30
0.0
 11
200.0
 21
2445.0
 31
0.0
  0
LINE
  5
415
100
AcDbEntity
100
AcDbLine
  8
Vernier 2
 62
256
370
-1
  6
ByLayer
 10
200.0
 20
2445.0
 30
0.0
 11
195.0
 21
2445.0
 31
0.0
  0
LINE
  5
416
100
AcDbEntity
100
AcDbLine
  8
Vernier 2
 62
256
370
-1
  6
ByLayer
 10
195.0
 20
2445.0
 30
0.0
 11
200.0
 21
2435.0
 31
0.0
  0
LINE
  5
417
100
AcDbEntity
100
AcDbLine
  8
Vernier 2
 62
256
370
-1
  6
ByLayer
 10
200.0
 20
2435.0
 30
0.0
 11
195.0
 21
2435.0
 31
0.0
  0
LINE
  5
418
100
AcDbEntity
100
AcDbLine
  8
Vernier 2
 62
256
370
-1
  6
ByLayer
 10
195.0
 20
2435.0
 30
0.0
 11
190.0
 21
2445.0
 31
0.0
  0
LINE
  5
419
100
AcDbEntity
100
AcDbLine
  8
Vernier 2
 62
256
370
-1
  6
ByLayer
 10
190.0
 20
2445.0
 30
0.0
 11
190.0
 21
2435.0
 31
0.0
  0
LINE
  5
41A
100
AcDbEntity
100
AcDbLine
  8
Vernier 2
 62
256
370
-1
  6
ByLayer
 10
190.0
 20
2435.0
 30
0.0
 11
185.0
 21
2435.0
 31
0.0
  0
LINE
  5
41B
100
AcDbEntity
100
AcDbLine
  8
Vernier 2
 62
256
370
-1
  6
ByLayer
 10
190.0
 20
2450.0
 30
0.0
 11
195.0
 21
2450.0
 31
0.0
  0
LINE
  5
41C
100
AcDbEntity
100
AcDbLine
  8
Vernier 2
 62
256
370
-1
  6
ByLayer
 10
195.0
 20
2450.0
 30
0.0
 11
195.0
 21
2455.0
 31
0.0
  0
LINE
  5
41D
100
AcDbEntity
100
AcDbLine
  8
Vernier 2
 62
256
370
-1
  6
ByLayer
 10
195.0
 20
2455.0
 30
0.0
 11
190.0
 21
2455.0
 31
0.0
  0
LINE
  5
41E
100
AcDbEntity
100
AcDbLine
  8
Vernier 2
 62
256
370
-1
  6
ByLayer
 10
190.0
 20
2455.0
 30
0.0
 11
190.0
 21
2450.0
 31
0.0
  0
LINE
  5
41F
100
AcDbEntity
100
AcDbLine
  8
Vernier 2
 62
256
370
-1
  6
ByLayer
 10
210.0
 20
2460.0
 30
0.0
 11
210.0
 21
2435.0
 31
0.0
  0
LINE
  5
420
100
AcDbEntity
100
AcDbLine
  8
Vernier 2
 62
256
370
-1
  6
ByLayer
 10
210.0
 20
2435.0
 30
0.0
 11
225.0
 21
2435.0
 31
0.0
  0
LINE
  5
421
100
AcDbEntity
100
AcDbLine
  8
Vernier 2
 62
256
370
-1
  6
ByLayer
 10
225.0
 20
2435.0
 30
0.0
 11
225.0
 21
2440.0
 31
0.0
  0
LINE
  5
422
100
AcDbEntity
100
AcDbLine
  8
Vernier 2
 62
256
370
-1
  6
ByLayer
 10
225.0
 20
2440.0
 30
0.0
 11
215.0
 21
2440.0
 31
0.0
  0
LINE
  5
423
100
AcDbEntity
100
AcDbLine
  8
Vernier 2
 62
256
370
-1
  6
ByLayer
 10
215.0
 20
2440.0
 30
0.0
 11
215.0
 21
2445.0
 31
0.0
  0
LINE
  5
424
100
AcDbEntity
100
AcDbLine
  8
Vernier 2
 62
256
370
-1
  6
ByLayer
 10
215.0
 20
2445.0
 30
0.0
 11
225.0
 21
2445.0
 31
0.0
  0
LINE
  5
425
100
AcDbEntity
100
AcDbLine
  8
Vernier 2
 62
256
370
-1
  6
ByLayer
 10
225.0
 20
2445.0
 30
0.0
 11
225.0
 21
2450.0
 31
0.0
  0
LINE
  5
426
100
AcDbEntity
100
AcDbLine
  8
Vernier 2
 62
256
370
-1
  6
ByLayer
 10
225.0
 20
2450.0
 30
0.0
 11
215.0
 21
2450.0
 31
0.0
  0
LINE
  5
427
100
AcDbEntity
100
AcDbLine
  8
Vernier 2
 62
256
370
-1
  6
ByLayer
 10
215.0
 20
2450.0
 30
0.0
 11
215.0
 21
2455.0
 31
0.0
  0
LINE
  5
428
100
AcDbEntity
100
AcDbLine
  8
Vernier 2
 62
256
370
-1
  6
ByLayer
 10
215.0
 20
2455.0
 30
0.0
 11
225.0
 21
2455.0
 31
0.0
  0
LINE
  5
429
100
AcDbEntity
100
AcDbLine
  8
Vernier 2
 62
256
370
-1
  6
ByLayer
 10
225.0
 20
2455.0
 30
0.0
 11
225.0
 21
2460.0
 31
0.0
  0
LINE
  5
42A
100
AcDbEntity
100
AcDbLine
  8
Vernier 2
 62
256
370
-1
  6
ByLayer
 10
225.0
 20
2460.0
 30
0.0
 11
210.0
 21
2460.0
 31
0.0
  0
LINE
  5
42B
100
AcDbEntity
100
AcDbLine
  8
Vernier 2
 62
256
370
-1
  6
ByLayer
 10
235.0
 20
2460.0
 30
0.0
 11
235.0
 21
2440.0
 31
0.0
  0
LINE
  5
42C
100
AcDbEntity
100
AcDbLine
  8
Vernier 2
 62
256
370
-1
  6
ByLayer
 10
235.0
 20
2440.0
 30
0.0
 11
240.0
 21
2435.0
 31
0.0
  0
LINE
  5
42D
100
AcDbEntity
100
AcDbLine
  8
Vernier 2
 62
256
370
-1
  6
ByLayer
 10
240.0
 20
2435.0
 30
0.0
 11
245.0
 21
2435.0
 31
0.0
  0
LINE
  5
42E
100
AcDbEntity
100
AcDbLine
  8
Vernier 2
 62
256
370
-1
  6
ByLayer
 10
245.0
 20
2435.0
 30
0.0
 11
250.0
 21
2440.0
 31
0.0
  0
LINE
  5
42F
100
AcDbEntity
100
AcDbLine
  8
Vernier 2
 62
256
370
-1
  6
ByLayer
 10
250.0
 20
2440.0
 30
0.0
 11
250.0
 21
2460.0
 31
0.0
  0
LINE
  5
430
100
AcDbEntity
100
AcDbLine
  8
Vernier 2
 62
256
370
-1
  6
ByLayer
 10
250.0
 20
2460.0
 30
0.0
 11
245.0
 21
2460.0
 31
0.0
  0
LINE
  5
431
100
AcDbEntity
100
AcDbLine
  8
Vernier 2
 62
256
370
-1
  6
ByLayer
 10
245.0
 20
2460.0
 30
0.0
 11
245.0
 21
2440.0
 31
0.0
  0
LINE
  5
432
100
AcDbEntity
100
AcDbLine
  8
Vernier 2
 62
256
370
-1
  6
ByLayer
 10
245.0
 20
2440.0
 30
0.0
 11
240.0
 21
2440.0
 31
0.0
  0
LINE
  5
433
100
AcDbEntity
100
AcDbLine
  8
Vernier 2
 62
256
370
-1
  6
ByLayer
 10
240.0
 20
2440.0
 30
0.0
 11
240.0
 21
2460.0
 31
0.0
  0
LINE
  5
434
100
AcDbEntity
100
AcDbLine
  8
Vernier 2
 62
256
370
-1
  6
ByLayer
 10
240.0
 20
2460.0
 30
0.0
 11
235.0
 21
2460.0
 31
0.0
  0
LINE
  5
435
100
AcDbEntity
100
AcDbLine
  8
Vernier 2
 62
256
370
-1
  6
ByLayer
 10
275.0
 20
2460.0
 30
0.0
 11
275.0
 21
2435.0
 31
0.0
  0
LINE
  5
436
100
AcDbEntity
100
AcDbLine
  8
Vernier 2
 62
256
370
-1
  6
ByLayer
 10
275.0
 20
2435.0
 30
0.0
 11
290.0
 21
2435.0
 31
0.0
  0
LINE
  5
437
100
AcDbEntity
100
AcDbLine
  8
Vernier 2
 62
256
370
-1
  6
ByLayer
 10
290.0
 20
2435.0
 30
0.0
 11
290.0
 21
2460.0
 31
0.0
  0
LINE
  5
438
100
AcDbEntity
100
AcDbLine
  8
Vernier 2
 62
256
370
-1
  6
ByLayer
 10
290.0
 20
2460.0
 30
0.0
 11
275.0
 21
2460.0
 31
0.0
  0
LINE
  5
439
100
AcDbEntity
100
AcDbLine
  8
Vernier 2
 62
256
370
-1
  6
ByLayer
 10
280.0
 20
2455.0
 30
0.0
 11
280.0
 21
2440.0
 31
0.0
  0
LINE
  5
43A
100
AcDbEntity
100
AcDbLine
  8
Vernier 2
 62
256
370
-1
  6
ByLayer
 10
280.0
 20
2440.0
 30
0.0
 11
285.0
 21
2440.0
 31
0.0
  0
LINE
  5
43B
100
AcDbEntity
100
AcDbLine
  8
Vernier 2
 62
256
370
-1
  6
ByLayer
 10
285.0
 20
2440.0
 30
0.0
 11
285.0
 21
2455.0
 31
0.0
  0
LINE
  5
43C
100
AcDbEntity
100
AcDbLine
  8
Vernier 2
 62
256
370
-1
  6
ByLayer
 10
285.0
 20
2455.0
 30
0.0
 11
280.0
 21
2455.0
 31
0.0
  0
LINE
  5
43D
100
AcDbEntity
100
AcDbLine
  8
Vernier 2
 62
256
370
-1
  6
ByLayer
 10
300.0
 20
2440.0
 30
0.0
 11
300.0
 21
2435.0
 31
0.0
  0
LINE
  5
43E
100
AcDbEntity
100
AcDbLine
  8
Vernier 2
 62
256
370
-1
  6
ByLayer
 10
300.0
 20
2435.0
 30
0.0
 11
305.0
 21
2435.0
 31
0.0
  0
LINE
  5
43F
100
AcDbEntity
100
AcDbLine
  8
Vernier 2
 62
256
370
-1
  6
ByLayer
 10
305.0
 20
2435.0
 30
0.0
 11
305.0
 21
2440.0
 31
0.0
  0
LINE
  5
440
100
AcDbEntity
100
AcDbLine
  8
Vernier 2
 62
256
370
-1
  6
ByLayer
 10
305.0
 20
2440.0
 30
0.0
 11
300.0
 21
2440.0
 31
0.0
  0
LINE
  5
441
100
AcDbEntity
100
AcDbLine
  8
Vernier 2
 62
256
370
-1
  6
ByLayer
 10
315.0
 20
2435.0
 30
0.0
 11
320.0
 21
2435.0
 31
0.0
  0
LINE
  5
442
100
AcDbEntity
100
AcDbLine
  8
Vernier 2
 62
256
370
-1
  6
ByLayer
 10
320.0
 20
2435.0
 30
0.0
 11
320.0
 21
2460.0
 31
0.0
  0
LINE
  5
443
100
AcDbEntity
100
AcDbLine
  8
Vernier 2
 62
256
370
-1
  6
ByLayer
 10
320.0
 20
2460.0
 30
0.0
 11
315.0
 21
2460.0
 31
0.0
  0
LINE
  5
444
100
AcDbEntity
100
AcDbLine
  8
Vernier 2
 62
256
370
-1
  6
ByLayer
 10
315.0
 20
2460.0
 30
0.0
 11
315.0
 21
2435.0
 31
0.0
  0
LINE
  5
445
100
AcDbEntity
100
AcDbLine
  8
Vernier 2
 62
256
370
-1
  6
ByLayer
 10
190.0
 20
2320.0
 30
0.0
 11
195.0
 21
2320.0
 31
0.0
  0
LINE
  5
446
100
AcDbEntity
100
AcDbLine
  8
Vernier 2
 62
256
370
-1
  6
ByLayer
 10
190.0
 20
2345.0
 30
0.0
 11
190.0
 21
2320.0
 31
0.0
  0
LINE
  5
447
100
AcDbEntity
100
AcDbLine
  8
Vernier 2
 62
256
370
-1
  6
ByLayer
 10
190.0
 20
2345.0
 30
0.0
 11
195.0
 21
2345.0
 31
0.0
  0
LINE
  5
448
100
AcDbEntity
100
AcDbLine
  8
Vernier 2
 62
256
370
-1
  6
ByLayer
 10
195.0
 20
2345.0
 30
0.0
 11
195.0
 21
2320.0
 31
0.0
  0
LINE
  5
449
100
AcDbEntity
100
AcDbLine
  8
Vernier 2
 62
256
370
-1
  6
ByLayer
 10
285.0
 20
2345.0
 30
0.0
 11
285.0
 21
2325.0
 31
0.0
  0
LINE
  5
44A
100
AcDbEntity
100
AcDbLine
  8
Vernier 2
 62
256
370
-1
  6
ByLayer
 10
285.0
 20
2325.0
 30
0.0
 11
290.0
 21
2320.0
 31
0.0
  0
LINE
  5
44B
100
AcDbEntity
100
AcDbLine
  8
Vernier 2
 62
256
370
-1
  6
ByLayer
 10
290.0
 20
2320.0
 30
0.0
 11
295.0
 21
2320.0
 31
0.0
  0
LINE
  5
44C
100
AcDbEntity
100
AcDbLine
  8
Vernier 2
 62
256
370
-1
  6
ByLayer
 10
295.0
 20
2320.0
 30
0.0
 11
300.0
 21
2325.0
 31
0.0
  0
LINE
  5
44D
100
AcDbEntity
100
AcDbLine
  8
Vernier 2
 62
256
370
-1
  6
ByLayer
 10
300.0
 20
2325.0
 30
0.0
 11
300.0
 21
2345.0
 31
0.0
  0
LINE
  5
44E
100
AcDbEntity
100
AcDbLine
  8
Vernier 2
 62
256
370
-1
  6
ByLayer
 10
300.0
 20
2345.0
 30
0.0
 11
295.0
 21
2345.0
 31
0.0
  0
LINE
  5
44F
100
AcDbEntity
100
AcDbLine
  8
Vernier 2
 62
256
370
-1
  6
ByLayer
 10
295.0
 20
2345.0
 30
0.0
 11
295.0
 21
2325.0
 31
0.0
  0
LINE
  5
450
100
AcDbEntity
100
AcDbLine
  8
Vernier 2
 62
256
370
-1
  6
ByLayer
 10
295.0
 20
2325.0
 30
0.0
 11
290.0
 21
2325.0
 31
0.0
  0
LINE
  5
451
100
AcDbEntity
100
AcDbLine
  8
Vernier 2
 62
256
370
-1
  6
ByLayer
 10
290.0
 20
2325.0
 30
0.0
 11
290.0
 21
2345.0
 31
0.0
  0
LINE
  5
452
100
AcDbEntity
100
AcDbLine
  8
Vernier 2
 62
256
370
-1
  6
ByLayer
 10
290.0
 20
2345.0
 30
0.0
 11
285.0
 21
2345.0
 31
0.0
  0
LINE
  5
453
100
AcDbEntity
100
AcDbLine
  8
Vernier 2
 62
256
370
-1
  6
ByLayer
 10
310.0
 20
2345.0
 30
0.0
 11
310.0
 21
2320.0
 31
0.0
  0
LINE
  5
454
100
AcDbEntity
100
AcDbLine
  8
Vernier 2
 62
256
370
-1
  6
ByLayer
 10
310.0
 20
2320.0
 30
0.0
 11
325.0
 21
2320.0
 31
0.0
  0
LINE
  5
455
100
AcDbEntity
100
AcDbLine
  8
Vernier 2
 62
256
370
-1
  6
ByLayer
 10
325.0
 20
2320.0
 30
0.0
 11
325.0
 21
2325.0
 31
0.0
  0
LINE
  5
456
100
AcDbEntity
100
AcDbLine
  8
Vernier 2
 62
256
370
-1
  6
ByLayer
 10
325.0
 20
2325.0
 30
0.0
 11
315.0
 21
2325.0
 31
0.0
  0
LINE
  5
457
100
AcDbEntity
100
AcDbLine
  8
Vernier 2
 62
256
370
-1
  6
ByLayer
 10
315.0
 20
2325.0
 30
0.0
 11
315.0
 21
2330.0
 31
0.0
  0
LINE
  5
458
100
AcDbEntity
100
AcDbLine
  8
Vernier 2
 62
256
370
-1
  6
ByLayer
 10
315.0
 20
2330.0
 30
0.0
 11
325.0
 21
2330.0
 31
0.0
  0
LINE
  5
459
100
AcDbEntity
100
AcDbLine
  8
Vernier 2
 62
256
370
-1
  6
ByLayer
 10
325.0
 20
2330.0
 30
0.0
 11
325.0
 21
2335.0
 31
0.0
  0
LINE
  5
45A
100
AcDbEntity
100
AcDbLine
  8
Vernier 2
 62
256
370
-1
  6
ByLayer
 10
325.0
 20
2335.0
 30
0.0
 11
315.0
 21
2335.0
 31
0.0
  0
LINE
  5
45B
100
AcDbEntity
100
AcDbLine
  8
Vernier 2
 62
256
370
-1
  6
ByLayer
 10
315.0
 20
2335.0
 30
0.0
 11
315.0
 21
2340.0
 31
0.0
  0
LINE
  5
45C
100
AcDbEntity
100
AcDbLine
  8
Vernier 2
 62
256
370
-1
  6
ByLayer
 10
315.0
 20
2340.0
 30
0.0
 11
325.0
 21
2340.0
 31
0.0
  0
LINE
  5
45D
100
AcDbEntity
100
AcDbLine
  8
Vernier 2
 62
256
370
-1
  6
ByLayer
 10
325.0
 20
2340.0
 30
0.0
 11
325.0
 21
2345.0
 31
0.0
  0
LINE
  5
45E
100
AcDbEntity
100
AcDbLine
  8
Vernier 2
 62
256
370
-1
  6
ByLayer
 10
325.0
 20
2345.0
 30
0.0
 11
310.0
 21
2345.0
 31
0.0
  0
LINE
  5
45F
100
AcDbEntity
100
AcDbLine
  8
Vernier 2
 62
256
370
-1
  6
ByLayer
 10
335.0
 20
2320.0
 30
0.0
 11
335.0
 21
2345.0
 31
0.0
  0
LINE
  5
460
100
AcDbEntity
100
AcDbLine
  8
Vernier 2
 62
256
370
-1
  6
ByLayer
 10
335.0
 20
2345.0
 30
0.0
 11
350.0
 21
2345.0
 31
0.0
  0
LINE
  5
461
100
AcDbEntity
100
AcDbLine
  8
Vernier 2
 62
256
370
-1
  6
ByLayer
 10
350.0
 20
2345.0
 30
0.0
 11
350.0
 21
2335.0
 31
0.0
  0
LINE
  5
462
100
AcDbEntity
100
AcDbLine
  8
Vernier 2
 62
256
370
-1
  6
ByLayer
 10
350.0
 20
2335.0
 30
0.0
 11
345.0
 21
2330.0
 31
0.0
  0
LINE
  5
463
100
AcDbEntity
100
AcDbLine
  8
Vernier 2
 62
256
370
-1
  6
ByLayer
 10
345.0
 20
2330.0
 30
0.0
 11
350.0
 21
2320.0
 31
0.0
  0
LINE
  5
464
100
AcDbEntity
100
AcDbLine
  8
Vernier 2
 62
256
370
-1
  6
ByLayer
 10
350.0
 20
2320.0
 30
0.0
 11
345.0
 21
2320.0
 31
0.0
  0
LINE
  5
465
100
AcDbEntity
100
AcDbLine
  8
Vernier 2
 62
256
370
-1
  6
ByLayer
 10
345.0
 20
2320.0
 30
0.0
 11
340.0
 21
2330.0
 31
0.0
  0
LINE
  5
466
100
AcDbEntity
100
AcDbLine
  8
Vernier 2
 62
256
370
-1
  6
ByLayer
 10
340.0
 20
2330.0
 30
0.0
 11
340.0
 21
2320.0
 31
0.0
  0
LINE
  5
467
100
AcDbEntity
100
AcDbLine
  8
Vernier 2
 62
256
370
-1
  6
ByLayer
 10
340.0
 20
2320.0
 30
0.0
 11
335.0
 21
2320.0
 31
0.0
  0
LINE
  5
468
100
AcDbEntity
100
AcDbLine
  8
Vernier 2
 62
256
370
-1
  6
ByLayer
 10
340.0
 20
2335.0
 30
0.0
 11
340.0
 21
2340.0
 31
0.0
  0
LINE
  5
469
100
AcDbEntity
100
AcDbLine
  8
Vernier 2
 62
256
370
-1
  6
ByLayer
 10
340.0
 20
2340.0
 30
0.0
 11
345.0
 21
2340.0
 31
0.0
  0
LINE
  5
46A
100
AcDbEntity
100
AcDbLine
  8
Vernier 2
 62
256
370
-1
  6
ByLayer
 10
345.0
 20
2340.0
 30
0.0
 11
345.0
 21
2335.0
 31
0.0
  0
LINE
  5
46B
100
AcDbEntity
100
AcDbLine
  8
Vernier 2
 62
256
370
-1
  6
ByLayer
 10
345.0
 20
2335.0
 30
0.0
 11
340.0
 21
2335.0
 31
0.0
  0
LINE
  5
46C
100
AcDbEntity
100
AcDbLine
  8
Vernier 2
 62
256
370
-1
  6
ByLayer
 10
360.0
 20
2320.0
 30
0.0
 11
360.0
 21
2345.0
 31
0.0
  0
LINE
  5
46D
100
AcDbEntity
100
AcDbLine
  8
Vernier 2
 62
256
370
-1
  6
ByLayer
 10
360.0
 20
2345.0
 30
0.0
 11
365.0
 21
2345.0
 31
0.0
  0
LINE
  5
46E
100
AcDbEntity
100
AcDbLine
  8
Vernier 2
 62
256
370
-1
  6
ByLayer
 10
375.0
 20
2345.0
 30
0.0
 11
380.0
 21
2345.0
 31
0.0
  0
LINE
  5
46F
100
AcDbEntity
100
AcDbLine
  8
Vernier 2
 62
256
370
-1
  6
ByLayer
 10
380.0
 20
2345.0
 30
0.0
 11
380.0
 21
2320.0
 31
0.0
  0
LINE
  5
470
100
AcDbEntity
100
AcDbLine
  8
Vernier 2
 62
256
370
-1
  6
ByLayer
 10
380.0
 20
2320.0
 30
0.0
 11
375.0
 21
2320.0
 31
0.0
  0
LINE
  5
471
100
AcDbEntity
100
AcDbLine
  8
Vernier 2
 62
256
370
-1
  6
ByLayer
 10
365.0
 20
2335.0
 30
0.0
 11
365.0
 21
2320.0
 31
0.0
  0
LINE
  5
472
100
AcDbEntity
100
AcDbLine
  8
Vernier 2
 62
256
370
-1
  6
ByLayer
 10
365.0
 20
2320.0
 30
0.0
 11
360.0
 21
2320.0
 31
0.0
  0
LINE
  5
473
100
AcDbEntity
100
AcDbLine
  8
Vernier 2
 62
256
370
-1
  6
ByLayer
 10
390.0
 20
2320.0
 30
0.0
 11
390.0
 21
2345.0
 31
0.0
  0
LINE
  5
474
100
AcDbEntity
100
AcDbLine
  8
Vernier 2
 62
256
370
-1
  6
ByLayer
 10
390.0
 20
2345.0
 30
0.0
 11
395.0
 21
2345.0
 31
0.0
  0
LINE
  5
475
100
AcDbEntity
100
AcDbLine
  8
Vernier 2
 62
256
370
-1
  6
ByLayer
 10
395.0
 20
2345.0
 30
0.0
 11
395.0
 21
2320.0
 31
0.0
  0
LINE
  5
476
100
AcDbEntity
100
AcDbLine
  8
Vernier 2
 62
256
370
-1
  6
ByLayer
 10
395.0
 20
2320.0
 30
0.0
 11
390.0
 21
2320.0
 31
0.0
  0
LINE
  5
477
100
AcDbEntity
100
AcDbLine
  8
Vernier 2
 62
256
370
-1
  6
ByLayer
 10
405.0
 20
2345.0
 30
0.0
 11
405.0
 21
2320.0
 31
0.0
  0
LINE
  5
478
100
AcDbEntity
100
AcDbLine
  8
Vernier 2
 62
256
370
-1
  6
ByLayer
 10
405.0
 20
2320.0
 30
0.0
 11
420.0
 21
2320.0
 31
0.0
  0
LINE
  5
479
100
AcDbEntity
100
AcDbLine
  8
Vernier 2
 62
256
370
-1
  6
ByLayer
 10
420.0
 20
2320.0
 30
0.0
 11
420.0
 21
2325.0
 31
0.0
  0
LINE
  5
47A
100
AcDbEntity
100
AcDbLine
  8
Vernier 2
 62
256
370
-1
  6
ByLayer
 10
420.0
 20
2325.0
 30
0.0
 11
410.0
 21
2325.0
 31
0.0
  0
LINE
  5
47B
100
AcDbEntity
100
AcDbLine
  8
Vernier 2
 62
256
370
-1
  6
ByLayer
 10
410.0
 20
2325.0
 30
0.0
 11
410.0
 21
2330.0
 31
0.0
  0
LINE
  5
47C
100
AcDbEntity
100
AcDbLine
  8
Vernier 2
 62
256
370
-1
  6
ByLayer
 10
410.0
 20
2330.0
 30
0.0
 11
420.0
 21
2330.0
 31
0.0
  0
LINE
  5
47D
100
AcDbEntity
100
AcDbLine
  8
Vernier 2
 62
256
370
-1
  6
ByLayer
 10
420.0
 20
2330.0
 30
0.0
 11
420.0
 21
2335.0
 31
0.0
  0
LINE
  5
47E
100
AcDbEntity
100
AcDbLine
  8
Vernier 2
 62
256
370
-1
  6
ByLayer
 10
420.0
 20
2335.0
 30
0.0
 11
410.0
 21
2335.0
 31
0.0
  0
LINE
  5
47F
100
AcDbEntity
100
AcDbLine
  8
Vernier 2
 62
256
370
-1
  6
ByLayer
 10
410.0
 20
2335.0
 30
0.0
 11
410.0
 21
2340.0
 31
0.0
  0
LINE
  5
480
100
AcDbEntity
100
AcDbLine
  8
Vernier 2
 62
256
370
-1
  6
ByLayer
 10
410.0
 20
2340.0
 30
0.0
 11
420.0
 21
2340.0
 31
0.0
  0
LINE
  5
481
100
AcDbEntity
100
AcDbLine
  8
Vernier 2
 62
256
370
-1
  6
ByLayer
 10
420.0
 20
2340.0
 30
0.0
 11
420.0
 21
2345.0
 31
0.0
  0
LINE
  5
482
100
AcDbEntity
100
AcDbLine
  8
Vernier 2
 62
256
370
-1
  6
ByLayer
 10
420.0
 20
2345.0
 30
0.0
 11
405.0
 21
2345.0
 31
0.0
  0
LINE
  5
483
100
AcDbEntity
100
AcDbLine
  8
Vernier 2
 62
256
370
-1
  6
ByLayer
 10
430.0
 20
2320.0
 30
0.0
 11
430.0
 21
2345.0
 31
0.0
  0
LINE
  5
484
100
AcDbEntity
100
AcDbLine
  8
Vernier 2
 62
256
370
-1
  6
ByLayer
 10
430.0
 20
2345.0
 30
0.0
 11
445.0
 21
2345.0
 31
0.0
  0
LINE
  5
485
100
AcDbEntity
100
AcDbLine
  8
Vernier 2
 62
256
370
-1
  6
ByLayer
 10
445.0
 20
2345.0
 30
0.0
 11
445.0
 21
2335.0
 31
0.0
  0
LINE
  5
486
100
AcDbEntity
100
AcDbLine
  8
Vernier 2
 62
256
370
-1
  6
ByLayer
 10
445.0
 20
2335.0
 30
0.0
 11
440.0
 21
2330.0
 31
0.0
  0
LINE
  5
487
100
AcDbEntity
100
AcDbLine
  8
Vernier 2
 62
256
370
-1
  6
ByLayer
 10
440.0
 20
2330.0
 30
0.0
 11
445.0
 21
2320.0
 31
0.0
  0
LINE
  5
488
100
AcDbEntity
100
AcDbLine
  8
Vernier 2
 62
256
370
-1
  6
ByLayer
 10
445.0
 20
2320.0
 30
0.0
 11
440.0
 21
2320.0
 31
0.0
  0
LINE
  5
489
100
AcDbEntity
100
AcDbLine
  8
Vernier 2
 62
256
370
-1
  6
ByLayer
 10
440.0
 20
2320.0
 30
0.0
 11
435.0
 21
2330.0
 31
0.0
  0
LINE
  5
48A
100
AcDbEntity
100
AcDbLine
  8
Vernier 2
 62
256
370
-1
  6
ByLayer
 10
435.0
 20
2330.0
 30
0.0
 11
435.0
 21
2320.0
 31
0.0
  0
LINE
  5
48B
100
AcDbEntity
100
AcDbLine
  8
Vernier 2
 62
256
370
-1
  6
ByLayer
 10
435.0
 20
2320.0
 30
0.0
 11
430.0
 21
2320.0
 31
0.0
  0
LINE
  5
48C
100
AcDbEntity
100
AcDbLine
  8
Vernier 2
 62
256
370
-1
  6
ByLayer
 10
435.0
 20
2335.0
 30
0.0
 11
435.0
 21
2340.0
 31
0.0
  0
LINE
  5
48D
100
AcDbEntity
100
AcDbLine
  8
Vernier 2
 62
256
370
-1
  6
ByLayer
 10
435.0
 20
2340.0
 30
0.0
 11
440.0
 21
2340.0
 31
0.0
  0
LINE
  5
48E
100
AcDbEntity
100
AcDbLine
  8
Vernier 2
 62
256
370
-1
  6
ByLayer
 10
440.0
 20
2340.0
 30
0.0
 11
440.0
 21
2335.0
 31
0.0
  0
LINE
  5
48F
100
AcDbEntity
100
AcDbLine
  8
Vernier 2
 62
256
370
-1
  6
ByLayer
 10
440.0
 20
2335.0
 30
0.0
 11
435.0
 21
2335.0
 31
0.0
  0
LINE
  5
490
100
AcDbEntity
100
AcDbLine
  8
Vernier 2
 62
256
370
-1
  6
ByLayer
 10
365.0
 20
2345.0
 30
0.0
 11
375.0
 21
2330.0
 31
0.0
  0
LINE
  5
491
100
AcDbEntity
100
AcDbLine
  8
Vernier 2
 62
256
370
-1
  6
ByLayer
 10
375.0
 20
2330.0
 30
0.0
 11
375.0
 21
2345.0
 31
0.0
  0
LINE
  5
492
100
AcDbEntity
100
AcDbLine
  8
Vernier 2
 62
256
370
-1
  6
ByLayer
 10
375.0
 20
2320.0
 30
0.0
 11
365.0
 21
2335.0
 31
0.0
  0
LINE
  5
493
100
AcDbEntity
100
AcDbLine
  8
Vernier 2
 62
256
370
-1
  6
ByLayer
 10
450.0
 20
2350.0
 30
0.0
 11
450.0
 21
2315.0
 31
0.0
  0
LINE
  5
494
100
AcDbEntity
100
AcDbLine
  8
Vernier 1
 62
256
370
-1
  6
ByLayer
 10
185.0
 20
2390.0
 30
0.0
 11
405.0
 21
2390.0
 31
0.0
  0
LINE
  5
495
100
AcDbEntity
100
AcDbLine
  8
Vernier 1
 62
256
370
-1
  6
ByLayer
 10
185.0
 20
2355.0
 30
0.0
 11
185.0
 21
2390.0
 31
0.0
  0
LINE
  5
496
100
AcDbEntity
100
AcDbLine
  8
Vernier 1
 62
256
370
-1
  6
ByLayer
 10
405.0
 20
2355.0
 30
0.0
 11
185.0
 21
2355.0
 31
0.0
  0
LINE
  5
497
100
AcDbEntity
100
AcDbLine
  8
Vernier 2
 62
256
370
-1
  6
ByLayer
 10
450.0
 20
2315.0
 30
0.0
 11
185.0
 21
2315.0
 31
0.0
  0
LINE
  5
498
100
AcDbEntity
100
AcDbLine
  8
Vernier 2
 62
256
370
-1
  6
ByLayer
 10
185.0
 20
2350.0
 30
0.0
 11
450.0
 21
2350.0
 31
0.0
  0
LINE
  5
499
100
AcDbEntity
100
AcDbLine
  8
Vernier 2
 62
256
370
-1
  6
ByLayer
 10
185.0
 20
2315.0
 30
0.0
 11
185.0
 21
2350.0
 31
0.0
  0
LINE
  5
49A
100
AcDbEntity
100
AcDbLine
  8
Vernier 2
 62
256
370
-1
  6
ByLayer
 10
70.0
 20
2395.0
 30
0.0
 11
70.0
 21
2465.0
 31
0.0
  0
LINE
  5
49B
100
AcDbEntity
100
AcDbLine
  8
Vernier 2
 62
256
370
-1
  6
ByLayer
 10
70.0
 20
2465.0
 30
0.0
 11
430.0
 21
2465.0
 31
0.0
  0
LINE
  5
49C
100
AcDbEntity
100
AcDbLine
  8
Vernier 2
 62
256
370
-1
  6
ByLayer
 10
430.0
 20
2465.0
 30
0.0
 11
430.0
 21
2395.0
 31
0.0
  0
LINE
  5
49D
100
AcDbEntity
100
AcDbLine
  8
Vernier 2
 62
256
370
-1
  6
ByLayer
 10
430.0
 20
2395.0
 30
0.0
 11
70.0
 21
2395.0
 31
0.0
  0
LINE
  5
49E
100
AcDbEntity
100
AcDbLine
  8
Vernier 1
 62
1
370
-1
  6
ByLayer
 10
265.0
 20
2170.0
 30
0.0
 11
320.0
 21
2170.0
 31
0.0
  0
LINE
  5
49F
100
AcDbEntity
100
AcDbLine
  8
Vernier 1
 62
1
370
-1
  6
ByLayer
 10
320.0
 20
2170.0
 30
0.0
 11
320.0
 21
2110.0
 31
0.0
  0
LINE
  5
4A0
100
AcDbEntity
100
AcDbLine
  8
Vernier 1
 62
1
370
-1
  6
ByLayer
 10
320.0
 20
2110.0
 30
0.0
 11
265.0
 21
2110.0
 31
0.0
  0
LINE
  5
4A1
100
AcDbEntity
100
AcDbLine
  8
Vernier 1
 62
1
370
-1
  6
ByLayer
 10
265.0
 20
2110.0
 30
0.0
 11
265.0
 21
2170.0
 31
0.0
  0
LINE
  5
4A2
100
AcDbEntity
100
AcDbLine
  8
Vernier 1
 62
1
370
-1
  6
ByLayer
 10
275.0
 20
2160.0
 30
0.0
 11
310.0
 21
2160.0
 31
0.0
  0
LINE
  5
4A3
100
AcDbEntity
100
AcDbLine
  8
Vernier 1
 62
1
370
-1
  6
ByLayer
 10
310.0
 20
2160.0
 30
0.0
 11
310.0
 21
2155.0
 31
0.0
  0
LINE
  5
4A4
100
AcDbEntity
100
AcDbLine
  8
Vernier 1
 62
1
370
-1
  6
ByLayer
 10
310.0
 20
2155.0
 30
0.0
 11
275.0
 21
2155.0
 31
0.0
  0
LINE
  5
4A5
100
AcDbEntity
100
AcDbLine
  8
Vernier 1
 62
1
370
-1
  6
ByLayer
 10
275.0
 20
2155.0
 30
0.0
 11
275.0
 21
2160.0
 31
0.0
  0
LINE
  5
4A6
100
AcDbEntity
100
AcDbLine
  8
Vernier 2
 62
256
370
-1
  6
ByLayer
 10
260.0
 20
2175.0
 30
0.0
 11
325.0
 21
2175.0
 31
0.0
  0
LINE
  5
4A7
100
AcDbEntity
100
AcDbLine
  8
Vernier 2
 62
256
370
-1
  6
ByLayer
 10
325.0
 20
2175.0
 30
0.0
 11
325.0
 21
2105.0
 31
0.0
  0
LINE
  5
4A8
100
AcDbEntity
100
AcDbLine
  8
Vernier 2
 62
256
370
-1
  6
ByLayer
 10
325.0
 20
2105.0
 30
0.0
 11
260.0
 21
2105.0
 31
0.0
  0
LINE
  5
4A9
100
AcDbEntity
100
AcDbLine
  8
Vernier 2
 62
256
370
-1
  6
ByLayer
 10
260.0
 20
2105.0
 30
0.0
 11
260.0
 21
2175.0
 31
0.0
  0
LINE
  5
4AA
100
AcDbEntity
100
AcDbLine
  8
Vernier 2
 62
256
370
-1
  6
ByLayer
 10
305.0
 20
2160.0
 30
0.0
 11
310.0
 21
2160.0
 31
0.0
  0
LINE
  5
4AB
100
AcDbEntity
100
AcDbLine
  8
Vernier 2
 62
256
370
-1
  6
ByLayer
 10
310.0
 20
2160.0
 30
0.0
 11
310.0
 21
2125.0
 31
0.0
  0
LINE
  5
4AC
100
AcDbEntity
100
AcDbLine
  8
Vernier 2
 62
256
370
-1
  6
ByLayer
 10
310.0
 20
2125.0
 30
0.0
 11
305.0
 21
2125.0
 31
0.0
  0
LINE
  5
4AD
100
AcDbEntity
100
AcDbLine
  8
Vernier 2
 62
256
370
-1
  6
ByLayer
 10
305.0
 20
2125.0
 30
0.0
 11
305.0
 21
2160.0
 31
0.0
  0
LINE
  5
4AE
100
AcDbEntity
100
AcDbLine
  8
Vernier 1
 62
256
370
-1
  6
ByLayer
 10
240.0
 20
2160.0
 30
0.0
 11
240.0
 21
2155.0
 31
0.0
  0
LINE
  5
4AF
100
AcDbEntity
100
AcDbLine
  8
Vernier 2
 62
256
370
-1
  6
ByLayer
 10
235.0
 20
2160.0
 30
0.0
 11
240.0
 21
2160.0
 31
0.0
  0
LINE
  5
4B0
100
AcDbEntity
100
AcDbLine
  8
Vernier 1
 62
256
370
-1
  6
ByLayer
 10
205.0
 20
2155.0
 30
0.0
 11
205.0
 21
2160.0
 31
0.0
  0
LINE
  5
4B1
100
AcDbEntity
100
AcDbLine
  8
Vernier 1
 62
256
370
-1
  6
ByLayer
 10
205.0
 20
2160.0
 30
0.0
 11
240.0
 21
2160.0
 31
0.0
  0
LINE
  5
4B2
100
AcDbEntity
100
AcDbLine
  8
Vernier 1
 62
256
370
-1
  6
ByLayer
 10
240.0
 20
2155.0
 30
0.0
 11
205.0
 21
2155.0
 31
0.0
  0
LINE
  5
4B3
100
AcDbEntity
100
AcDbLine
  8
Vernier 2
 62
256
370
-1
  6
ByLayer
 10
235.0
 20
2125.0
 30
0.0
 11
235.0
 21
2160.0
 31
0.0
  0
LINE
  5
4B4
100
AcDbEntity
100
AcDbLine
  8
Vernier 2
 62
256
370
-1
  6
ByLayer
 10
240.0
 20
2125.0
 30
0.0
 11
235.0
 21
2125.0
 31
0.0
  0
LINE
  5
4B5
100
AcDbEntity
100
AcDbLine
  8
Vernier 2
 62
256
370
-1
  6
ByLayer
 10
240.0
 20
2160.0
 30
0.0
 11
240.0
 21
2125.0
 31
0.0
  0
LINE
  5
4B6
100
AcDbEntity
100
AcDbLine
  8
Vernier 2
 62
256
370
-1
  6
ByLayer
 10
205.0
 20
2160.0
 30
0.0
 11
210.0
 21
2160.0
 31
0.0
  0
LINE
  5
4B7
100
AcDbEntity
100
AcDbLine
  8
Vernier 2
 62
256
370
-1
  6
ByLayer
 10
210.0
 20
2160.0
 30
0.0
 11
210.0
 21
2125.0
 31
0.0
  0
LINE
  5
4B8
100
AcDbEntity
100
AcDbLine
  8
Vernier 2
 62
256
370
-1
  6
ByLayer
 10
210.0
 20
2125.0
 30
0.0
 11
205.0
 21
2125.0
 31
0.0
  0
LINE
  5
4B9
100
AcDbEntity
100
AcDbLine
  8
Vernier 2
 62
256
370
-1
  6
ByLayer
 10
205.0
 20
2125.0
 30
0.0
 11
205.0
 21
2160.0
 31
0.0
  0
LINE
  5
4BA
100
AcDbEntity
100
AcDbLine
  8
Vernier 2
 62
256
370
-1
  6
ByLayer
 10
275.0
 20
2160.0
 30
0.0
 11
280.0
 21
2160.0
 31
0.0
  0
LINE
  5
4BB
100
AcDbEntity
100
AcDbLine
  8
Vernier 2
 62
256
370
-1
  6
ByLayer
 10
280.0
 20
2160.0
 30
0.0
 11
280.0
 21
2125.0
 31
0.0
  0
LINE
  5
4BC
100
AcDbEntity
100
AcDbLine
  8
Vernier 2
 62
256
370
-1
  6
ByLayer
 10
280.0
 20
2125.0
 30
0.0
 11
275.0
 21
2125.0
 31
0.0
  0
LINE
  5
4BD
100
AcDbEntity
100
AcDbLine
  8
Vernier 2
 62
256
370
-1
  6
ByLayer
 10
275.0
 20
2125.0
 30
0.0
 11
275.0
 21
2160.0
 31
0.0
  0
LINE
  5
4BE
100
AcDbEntity
100
AcDbLine
  8
Vernier 1
 62
256
370
-1
  6
ByLayer
 10
205.0
 20
2130.0
 30
0.0
 11
240.0
 21
2130.0
 31
0.0
  0
LINE
  5
4BF
100
AcDbEntity
100
AcDbLine
  8
Vernier 1
 62
256
370
-1
  6
ByLayer
 10
240.0
 20
2130.0
 30
0.0
 11
240.0
 21
2125.0
 31
0.0
  0
LINE
  5
4C0
100
AcDbEntity
100
AcDbLine
  8
Vernier 1
 62
256
370
-1
  6
ByLayer
 10
240.0
 20
2125.0
 30
0.0
 11
205.0
 21
2125.0
 31
0.0
  0
LINE
  5
4C1
100
AcDbEntity
100
AcDbLine
  8
Vernier 1
 62
256
370
-1
  6
ByLayer
 10
205.0
 20
2125.0
 30
0.0
 11
205.0
 21
2130.0
 31
0.0
  0
LINE
  5
4C2
100
AcDbEntity
100
AcDbLine
  8
Vernier 1
 62
256
370
-1
  6
ByLayer
 10
275.0
 20
2130.0
 30
0.0
 11
310.0
 21
2130.0
 31
0.0
  0
LINE
  5
4C3
100
AcDbEntity
100
AcDbLine
  8
Vernier 1
 62
256
370
-1
  6
ByLayer
 10
310.0
 20
2130.0
 30
0.0
 11
310.0
 21
2125.0
 31
0.0
  0
LINE
  5
4C4
100
AcDbEntity
100
AcDbLine
  8
Vernier 1
 62
256
370
-1
  6
ByLayer
 10
310.0
 20
2125.0
 30
0.0
 11
275.0
 21
2125.0
 31
0.0
  0
LINE
  5
4C5
100
AcDbEntity
100
AcDbLine
  8
Vernier 1
 62
256
370
-1
  6
ByLayer
 10
275.0
 20
2125.0
 30
0.0
 11
275.0
 21
2130.0
 31
0.0
  0
LINE
  5
4C6
100
AcDbEntity
100
AcDbLine
  8
Vernier 2
 62
256
370
-1
  6
ByLayer
 10
240.0
 20
2345.0
 30
0.0
 11
240.0
 21
2320.0
 31
0.0
  0
LINE
  5
4C7
100
AcDbEntity
100
AcDbLine
  8
Vernier 2
 62
256
370
-1
  6
ByLayer
 10
250.0
 20
2320.0
 30
0.0
 11
250.0
 21
2340.0
 31
0.0
  0
LINE
  5
4C8
100
AcDbEntity
100
AcDbLine
  8
Vernier 2
 62
256
370
-1
  6
ByLayer
 10
250.0
 20
2340.0
 30
0.0
 11
245.0
 21
2340.0
 31
0.0
  0
LINE
  5
4C9
100
AcDbEntity
100
AcDbLine
  8
Vernier 2
 62
256
370
-1
  6
ByLayer
 10
245.0
 20
2340.0
 30
0.0
 11
245.0
 21
2320.0
 31
0.0
  0
LINE
  5
4CA
100
AcDbEntity
100
AcDbLine
  8
Vernier 2
 62
256
370
-1
  6
ByLayer
 10
265.0
 20
2345.0
 30
0.0
 11
265.0
 21
2320.0
 31
0.0
  0
LINE
  5
4CB
100
AcDbEntity
100
AcDbLine
  8
Vernier 2
 62
256
370
-1
  6
ByLayer
 10
265.0
 20
2320.0
 30
0.0
 11
260.0
 21
2320.0
 31
0.0
  0
LINE
  5
4CC
100
AcDbEntity
100
AcDbLine
  8
Vernier 2
 62
256
370
-1
  6
ByLayer
 10
260.0
 20
2320.0
 30
0.0
 11
260.0
 21
2340.0
 31
0.0
  0
LINE
  5
4CD
100
AcDbEntity
100
AcDbLine
  8
Vernier 2
 62
256
370
-1
  6
ByLayer
 10
260.0
 20
2340.0
 30
0.0
 11
255.0
 21
2340.0
 31
0.0
  0
LINE
  5
4CE
100
AcDbEntity
100
AcDbLine
  8
Vernier 2
 62
256
370
-1
  6
ByLayer
 10
255.0
 20
2340.0
 30
0.0
 11
255.0
 21
2320.0
 31
0.0
  0
LINE
  5
4CF
100
AcDbEntity
100
AcDbLine
  8
Vernier 2
 62
256
370
-1
  6
ByLayer
 10
240.0
 20
2345.0
 30
0.0
 11
265.0
 21
2345.0
 31
0.0
  0
LINE
  5
4D0
100
AcDbEntity
100
AcDbLine
  8
Vernier 2
 62
256
370
-1
  6
ByLayer
 10
255.0
 20
2320.0
 30
0.0
 11
250.0
 21
2320.0
 31
0.0
  0
LINE
  5
4D1
100
AcDbEntity
100
AcDbLine
  8
Vernier 2
 62
256
370
-1
  6
ByLayer
 10
240.0
 20
2320.0
 30
0.0
 11
245.0
 21
2320.0
 31
0.0
  0
LINE
  5
4D2
100
AcDbEntity
100
AcDbLine
  8
Vernier 2
 62
256
370
-1
  6
ByLayer
 10
215.0
 20
2345.0
 30
0.0
 11
215.0
 21
2320.0
 31
0.0
  0
LINE
  5
4D3
100
AcDbEntity
100
AcDbLine
  8
Vernier 2
 62
256
370
-1
  6
ByLayer
 10
215.0
 20
2320.0
 30
0.0
 11
230.0
 21
2320.0
 31
0.0
  0
LINE
  5
4D4
100
AcDbEntity
100
AcDbLine
  8
Vernier 2
 62
256
370
-1
  6
ByLayer
 10
230.0
 20
2320.0
 30
0.0
 11
230.0
 21
2345.0
 31
0.0
  0
LINE
  5
4D5
100
AcDbEntity
100
AcDbLine
  8
Vernier 2
 62
256
370
-1
  6
ByLayer
 10
230.0
 20
2345.0
 30
0.0
 11
225.0
 21
2345.0
 31
0.0
  0
LINE
  5
4D6
100
AcDbEntity
100
AcDbLine
  8
Vernier 2
 62
256
370
-1
  6
ByLayer
 10
225.0
 20
2345.0
 30
0.0
 11
225.0
 21
2325.0
 31
0.0
  0
LINE
  5
4D7
100
AcDbEntity
100
AcDbLine
  8
Vernier 2
 62
256
370
-1
  6
ByLayer
 10
225.0
 20
2325.0
 30
0.0
 11
220.0
 21
2325.0
 31
0.0
  0
LINE
  5
4D8
100
AcDbEntity
100
AcDbLine
  8
Vernier 2
 62
256
370
-1
  6
ByLayer
 10
220.0
 20
2325.0
 30
0.0
 11
220.0
 21
2345.0
 31
0.0
  0
LINE
  5
4D9
100
AcDbEntity
100
AcDbLine
  8
Vernier 2
 62
256
370
-1
  6
ByLayer
 10
220.0
 20
2345.0
 30
0.0
 11
215.0
 21
2345.0
 31
0.0
  0
ENDSEC
  0
SECTION
  2
OBJECTS
  0
DICTIONARY
  5
C
100
AcDbDictionary
280
0
281
1
  3
ACAD_GROUP
350
D
  3
ACAD_LAYOUT
350
1A
  3
ACAD_MLINESTYLE
350
17
  3
ACAD_PLOTSETTINGS
350
19
  3
ACAD_PLOTSTYLENAME
350
E
  3
AcDbVariableDictionary
350
4DA
  0
DICTIONARY
  5
D
100
AcDbDictionary
280
0
281
1
  0
ACDBDICTIONARYWDFLT
  5
E
100
AcDbDictionary
281
1
  3
Normal
350
F
100
AcDbDictionaryWithDefault
340
F
  0
ACDBPLACEHOLDER
  5
F
  0
DICTIONARY
  5
17
100
AcDbDictionary
280
0
281
1
  3
Standard
350
18
  0
MLINESTYLE
  5
18
100
AcDbMlineStyle
  2
STANDARD
 70
0
  3

 62
256
 51
90.0
 52
90.0
 71
2
 49
0.5
 62
256
  6
BYLAYER
 49
-0.5
 62
256
  6
BYLAYER
  0
DICTIONARY
  5
19
100
AcDbDictionary
280
0
281
1
  0
DICTIONARY
  5
1A
100
AcDbDictionary
281
1
  3
Layout1
350
1E
  3
Layout2
350
26
  3
Model
350
22
  0
LAYOUT
  5
1E
100
AcDbPlotSettings
  1

  2
C:\Program Files\AutoCAD 2002\plotters\DWF ePlot (optimized for plotting).pc3
  4

  6

 40
0.0
 41
0.0
 42
0.0
 43
0.0
 44
0.0
 45
0.0
 46
0.0
 47
0.0
 48
0.0
 49
0.0
140
0.0
141
0.0
142
1.0
143
1.0
 70
688
 72
0
 73
0
 74
5
  7

 75
16
147
1.0
148
0.0
149
0.0
100
AcDbLayout
  1
Layout1
 70
1
 71
1
 10
0.0
 20
0.0
 11
420.0
 21
297.0
 12
0.0
 22
0.0
 32
0.0
 14
100000000000000000000.0
 24
100000000000000000000.0
 34
100000000000000000000.0
 15
-100000000000000000000.0
 25
-100000000000000000000.0
 35
-100000000000000000000.0
146
0.0
 13
0.0
 23
0.0
 33
0.0
 16
1.0
 26
0.0
 36
0.0
 17
0.0
 27
1.0
 37
0.0
 76
0
330
1B
  0
LAYOUT
  5
22
100
AcDbPlotSettings
  1

  2
C:\Program Files\AutoCAD 2002\plotters\DWF ePlot (optimized for plotting).pc3
  4

  6

 40
0.0
 41
0.0
 42
0.0
 43
0.0
 44
0.0
 45
0.0
 46
0.0
 47
0.0
 48
0.0
 49
0.0
140
0.0
141
0.0
142
1.0
143
1.0
 70
1712
 72
0
 73
0
 74
0
  7

 75
0
147
1.0
148
0.0
149
0.0
100
AcDbLayout
  1
Model
 70
1
 71
0
 10
0.0
 20
0.0
 11
12.0
 21
9.0
 12
0.0
 22
0.0
 32
0.0
 14
0.0
 24
0.0
 34
0.0
 15
0.0
 25
0.0
 35
0.0
146
0.0
 13
0.0
 23
0.0
 33
0.0
 16
1.0
 26
0.0
 36
0.0
 17
0.0
 27
1.0
 37
0.0
 76
0
330
1F
  0
LAYOUT
  5
26
100
AcDbPlotSettings
  1

  2
C:\Program Files\AutoCAD 2002\plotters\DWF ePlot (optimized for plotting).pc3
  4

  6

 40
0.0
 41
0.0
 42
0.0
 43
0.0
 44
0.0
 45
0.0
 46
0.0
 47
0.0
 48
0.0
 49
0.0
140
0.0
141
0.0
142
1.0
143
1.0
 70
688
 72
0
 73
0
 74
5
  7

 75
16
147
1.0
148
0.0
149
0.0
100
AcDbLayout
  1
Layout2
 70
1
 71
2
 10
0.0
 20
0.0
 11
12.0
 21
9.0
 12
0.0
 22
0.0
 32
0.0
 14
0.0
 24
0.0
 34
0.0
 15
0.0
 25
0.0
 35
0.0
146
0.0
 13
0.0
 23
0.0
 33
0.0
 16
1.0
 26
0.0
 36
0.0
 17
0.0
 27
1.0
 37
0.0
 76
0
330
23
  0
DICTIONARY
  5
4DA
100
AcDbDictionary
281
1
  3
DIMASSOC
350
4DC
  3
HIDETEXT
350
4DB
  0
DICTIONARYVAR
  5
4DB
100
DictionaryVariables
280
0
  1
2
  0
DICTIONARYVAR
  5
4DC
100
DictionaryVariables
280
0
  1
1
  0
ENDSEC
  0
EOF
